<svg width="662" height="513" viewBox="0 0 662 513" fill="none" xmlns="http://www.w3.org/2000/svg">
<g clip-path="url(#clip0_328_130)">
<path d="M539.147 247.593C539.147 254.801 538.817 261.937 538.157 268.999C537.637 274.512 536.928 279.976 536.03 285.389C535.075 291.122 533.905 296.785 532.52 302.379V302.386C531.614 306.067 530.62 309.719 529.536 313.34C526.392 323.868 522.483 334.191 517.834 344.238C516.823 346.424 515.779 348.594 514.703 350.75C510.629 358.914 506.069 366.866 501.041 374.568C486.942 396.198 469.343 415.733 448.847 432.501C446.628 434.313 444.38 436.094 442.1 437.846C393.708 474.975 332.629 495.275 269.573 495.186C120.69 495.186 0 384.336 0 247.593C0 110.85 120.69 0.000306662 269.573 0.000306662C330.458 -0.0878667 389.567 18.8405 437.193 53.6776C439.426 55.3024 441.63 56.9638 443.806 58.6617C454.426 66.934 464.337 75.9444 473.452 85.6132H473.459C515.913 130.561 539.243 188.09 539.147 247.593Z" fill="#F2F2F2"/>
<path d="M79.5784 290.361C53.8984 276.323 34.5161 250.088 37.0324 222.738C60.5102 243.377 91.1795 255.722 123.614 257.591C136.125 258.27 150.118 257.829 159.328 265.637C165.059 270.495 167.726 277.809 168.164 284.96C168.601 292.112 167.041 299.225 165.49 306.244L166.024 307.964C136.14 308.067 105.258 304.399 79.5784 290.361Z" fill="#E6E6E6"/>
<path d="M37.6598 222.709C47.9491 243.369 65.0645 260.526 86.5749 271.743C91.1991 274.12 96.1153 276.162 101.34 277.11C106.44 277.997 111.706 277.614 116.59 276C121.177 274.579 125.69 272.638 130.573 272.266C135.72 271.874 140.485 273.698 144.229 276.892C148.81 280.801 151.588 285.988 154.114 291.147C156.917 296.876 159.731 302.867 165.106 306.986C165.757 307.485 164.876 308.384 164.226 307.886C154.873 300.719 153.347 288.716 145.871 280.274C142.382 276.336 137.58 273.339 131.876 273.418C126.887 273.487 122.232 275.485 117.601 276.96C112.738 278.51 107.867 279.237 102.734 278.556C97.4822 277.858 92.4687 275.989 87.7986 273.73C77.25 268.537 67.6562 261.852 59.3684 253.921C49.855 244.918 42.0886 234.486 36.4051 223.078C36.0537 222.372 37.3106 222.007 37.6598 222.709Z" fill="white"/>
<path d="M79.416 268.506C76.877 271.565 73.2367 273.696 69.1451 274.517C65.0536 275.339 60.7774 274.798 57.08 272.991C56.3332 272.623 56.9207 271.54 57.6685 271.909C61.1081 273.597 65.0915 274.1 68.8998 273.328C72.7081 272.556 76.0904 270.559 78.4363 267.697C78.9469 267.076 79.9236 267.888 79.416 268.506Z" fill="white"/>
<path d="M114.366 277.002C113.297 269.2 109.066 262.055 102.517 256.991C101.867 256.49 102.748 255.591 103.397 256.091C110.202 261.373 114.589 268.817 115.681 276.938C115.785 277.712 114.469 277.772 114.366 277.002Z" fill="white"/>
<path d="M51.4877 244.351C52.7386 243.355 53.7007 242.09 54.2876 240.668C54.8745 239.247 55.0677 237.714 54.85 236.206C54.7358 235.434 56.0518 235.374 56.1652 236.142C56.3973 237.808 56.1817 239.501 55.537 241.073C54.8924 242.645 53.8385 244.048 52.4674 245.16C52.3477 245.274 52.1849 245.343 52.0122 245.351C51.8394 245.36 51.6696 245.308 51.5373 245.205C51.4082 245.098 51.3306 244.947 51.3213 244.787C51.312 244.627 51.3718 244.471 51.4877 244.351Z" fill="white"/>
<path d="M120.155 169.753C120.241 170.233 120.328 170.714 120.424 171.199C121.62 177.654 123.384 184.009 125.701 190.201C125.871 190.682 126.052 191.168 126.238 191.644C131.992 206.507 140.7 220.261 151.92 232.205C156.39 236.954 161.246 241.384 166.448 245.456C173.631 251.08 181.907 256.652 186.513 263.914C187.003 264.666 187.441 265.446 187.826 266.248L168.265 307.233C168.169 307.305 168.084 307.383 167.988 307.456L167.289 309.125C167.004 308.932 166.714 308.726 166.43 308.534C166.265 308.422 166.104 308.302 165.938 308.191C165.829 308.114 165.721 308.036 165.618 307.972C165.581 307.947 165.545 307.921 165.519 307.9C165.416 307.836 165.327 307.766 165.235 307.707C163.609 306.562 161.989 305.404 160.374 304.234C160.364 304.23 160.364 304.23 160.358 304.217C148.084 295.272 136.515 285.308 126.96 274.048C126.673 273.709 126.375 273.367 126.097 273.009C121.821 267.912 118.006 262.502 114.689 256.834C112.884 253.724 111.251 250.533 109.797 247.273C106.059 238.84 103.787 229.921 103.066 220.84C101.632 202.739 106.517 184.417 119.177 170.786C119.501 170.437 119.821 170.097 120.155 169.753Z" fill="#E6E6E6"/>
<path d="M120.677 170.072C115.349 192.258 117.768 215.421 127.59 236.272C129.724 240.728 132.311 245.076 135.861 248.722C139.351 252.25 143.807 254.856 148.765 256.269C153.359 257.671 158.235 258.616 162.377 261.02C166.744 263.553 169.353 267.644 170.248 272.265C171.344 277.919 170.162 283.597 168.796 289.113C167.279 295.237 165.599 301.576 167.19 307.838C167.383 308.597 166.09 308.827 165.897 308.07C163.128 297.175 169.778 286.747 169.342 275.873C169.139 270.799 167.269 265.751 162.663 262.66C158.634 259.956 153.607 258.977 148.942 257.595C144.044 256.143 139.678 254.03 136.026 250.647C132.29 247.187 129.513 242.921 127.264 238.536C122.246 228.556 118.968 217.913 117.55 206.998C115.856 194.549 116.493 181.925 119.433 169.673C119.616 168.915 120.858 169.319 120.677 170.072Z" fill="white"/>
<path d="M124 229.73C119.968 230.768 115.664 230.457 111.859 228.85C108.054 227.244 104.994 224.447 103.226 220.96C102.871 220.253 104.05 219.713 104.406 220.421C106.045 223.671 108.896 226.276 112.443 227.765C115.989 229.254 119.999 229.53 123.748 228.542C124.563 228.329 124.811 229.517 124 229.73Z" fill="white"/>
<path d="M146.334 255.839C150.595 249.019 151.901 240.974 149.991 233.309C149.801 232.55 151.094 232.319 151.283 233.078C153.255 241.058 151.877 249.427 147.426 256.515C147.002 257.191 145.911 256.511 146.334 255.839Z" fill="white"/>
<path d="M117.532 194.999C119.183 194.895 120.781 194.417 122.182 193.607C123.582 192.796 124.741 191.679 125.555 190.355C125.971 189.675 127.06 190.355 126.648 191.031C125.741 192.489 124.459 193.722 122.914 194.621C121.369 195.519 119.608 196.057 117.784 196.186C117.613 196.211 117.438 196.176 117.295 196.087C117.151 195.999 117.05 195.863 117.012 195.708C116.979 195.551 117.015 195.388 117.113 195.255C117.21 195.122 117.361 195.03 117.532 194.999Z" fill="white"/>
<path d="M186.737 57.3845L219.732 412.133L153.742 416.69V61.8979C161.605 57.119 172.893 56.3714 186.737 57.3845Z" fill="#CCCCCC"/>
<path d="M349.604 57.3845L316.609 412.133L382.599 416.69V61.8979C374.735 57.119 363.448 56.3714 349.604 57.3845Z" fill="#CCCCCC"/>
<path d="M372.716 431.353H162.919C159.555 431.349 156.33 430.12 153.951 427.935C151.572 425.75 150.234 422.788 150.23 419.698V67.1043C150.234 64.0145 151.572 61.0523 153.951 58.8675C156.33 56.6827 159.555 55.4537 162.919 55.4502H372.716C376.081 55.4537 379.306 56.6827 381.685 58.8675C384.063 61.0523 385.401 64.0145 385.405 67.1043V419.698C385.401 422.788 384.063 425.75 381.685 427.935C379.306 430.12 376.081 431.349 372.716 431.353ZM162.919 59.3188C160.672 59.3211 158.517 60.1421 156.928 61.6017C155.339 63.0612 154.445 65.0401 154.443 67.1043V419.698C154.445 421.762 155.339 423.741 156.928 425.201C158.517 426.661 160.672 427.482 162.919 427.484H372.716C374.964 427.482 377.118 426.661 378.708 425.201C380.297 423.741 381.191 421.762 381.193 419.698V67.1043C381.191 65.0401 380.297 63.0612 378.708 61.6017C377.118 60.1421 374.964 59.3211 372.716 59.3188L162.919 59.3188Z" fill="#CCCCCC"/>
<path d="M383.299 114.125H152.336V117.994H383.299V114.125Z" fill="#CCCCCC"/>
<path d="M383.299 178.602H152.336V182.47H383.299V178.602Z" fill="#CCCCCC"/>
<path d="M227.286 57.3848H223.074V233.408H227.286V57.3848Z" fill="#CCCCCC"/>
<path d="M312.564 57.3848H308.352V233.408H312.564V57.3848Z" fill="#CCCCCC"/>
<path d="M409.626 441.992H133.033C128.005 441.992 123.184 440.157 119.63 436.893C116.075 433.628 114.078 429.2 114.078 424.583C114.078 419.966 116.075 415.538 119.63 412.273C123.184 409.008 128.005 407.174 133.033 407.174H409.626C414.653 407.174 419.474 409.008 423.029 412.273C426.583 415.538 428.58 419.966 428.58 424.583C428.58 429.2 426.583 433.628 423.029 436.893C419.474 440.157 414.653 441.992 409.626 441.992Z" fill="#CCCCCC"/>
<path d="M383.301 224.381H153.742V237.276H383.301V224.381Z" fill="#CCCCCC"/>
<path d="M227.94 265.422L227.649 265.292C212 258.349 191.507 258.355 161.201 265.315L160.877 265.389L160.78 265.096C157.574 255.441 153.942 244.506 160.765 239.126C160.861 223.338 175.938 210.519 194.459 210.519C212.975 210.519 228.051 223.332 228.152 239.115C238.301 246.242 233.464 256.774 228.104 265.165L227.94 265.422Z" fill="#2F2E41"/>
<path d="M324.124 231.615C323.844 232.895 323.261 234.102 322.418 235.152C321.574 236.202 320.49 237.07 319.242 237.693C317.994 238.317 316.612 238.682 315.194 238.762C313.776 238.843 312.356 238.636 311.034 238.158L255.731 289.201L250.797 273.352L305.723 225.951C306.745 223.965 308.525 222.392 310.726 221.53C312.926 220.669 315.394 220.579 317.663 221.277C319.931 221.975 321.841 223.413 323.032 225.318C324.223 227.224 324.612 229.464 324.124 231.615Z" fill="#FFB6B6"/>
<path d="M187.443 280.755C187.443 280.755 182.426 291.198 194.806 297.638C207.187 304.079 250.457 295.181 257.478 293.938C264.499 292.696 290.722 256.653 290.722 256.653L287.014 238.977L252.236 266.705L187.443 280.755Z" fill="#1E3A8A"/>
<path d="M178.311 338.506L179.013 350.756C179.013 350.756 176.941 361.608 178.645 363.95C180.336 366.28 226.488 366.574 226.488 366.574C226.488 366.574 229.537 351.476 232.164 338.261L178.311 338.506Z" fill="#FFB6B6"/>
<path d="M311.001 500.486L320.65 498.696L317.888 462.902L303.648 465.544L311.001 500.486Z" fill="#FFB6B6"/>
<path d="M324.823 453.906L333.792 450.202L322.157 415.954L308.918 421.422L324.823 453.906Z" fill="#FFB6B6"/>
<path d="M332.634 434.609L315.745 443.392L274.094 381.918C244.854 400.011 216.261 408.676 187.437 413.3C177.691 414.893 167.755 414.086 165.884 404.976C165.797 404.55 165.727 404.121 165.675 403.691C164.524 393.74 178.001 380.985 179.714 368.81L216.599 366.777L221.147 372.133L263.802 348.046C272.38 343.203 283.663 345.823 289.002 353.898C289.284 354.325 289.546 354.762 289.787 355.209L332.634 434.609Z" fill="#2F2E41"/>
<path d="M322.3 475.963L302.975 477.612L267.935 411.793C233.188 417.282 200.408 419.04 172.055 412.4C162.455 410.183 156.587 401.079 158.948 392.066C159.058 391.644 159.186 391.228 159.331 390.815C162.724 381.306 171.607 374.578 178.605 364.119L229.724 364.832L224.014 382.926L273.672 377.024C283.658 375.837 292.779 382.476 294.043 391.853C294.11 392.348 294.153 392.845 294.174 393.344L322.3 475.963Z" fill="#2F2E41"/>
<path d="M198.273 256.064C209.736 256.064 219.03 247.528 219.03 236.999C219.03 226.47 209.736 217.935 198.273 217.935C186.809 217.935 177.516 226.47 177.516 236.999C177.516 247.528 186.809 256.064 198.273 256.064Z" fill="#FFB6B6"/>
<path d="M186.102 262.945L205.134 265.002C205.937 265.089 206.69 265.403 207.288 265.902C207.887 266.4 208.302 267.058 208.474 267.783L211.501 280.504L230.369 300.911C230.369 300.911 237.144 312.579 234.603 325.802C232.063 339.026 230.946 348.851 230.946 348.851C230.946 348.851 180.334 366.281 178.64 363.947C176.946 361.614 176.396 351.014 176.396 351.014L169.621 281.785C169.621 281.785 177.243 270.118 181.478 270.118C184.211 270.033 183.86 264.384 186.102 262.945Z" fill="#1E3A8A"/>
<path d="M231.461 353.108C234.13 353.108 236.294 350.724 236.294 347.782C236.294 344.841 234.13 342.456 231.461 342.456C228.792 342.456 226.629 344.841 226.629 347.782C226.629 350.724 228.792 353.108 231.461 353.108Z" fill="#1B4F9A"/>
<path d="M306.215 491.27L320.925 484.499L323.697 490.439L342.298 493.893C343.217 494.063 344.052 494.499 344.682 495.136C345.312 495.774 345.704 496.579 345.8 497.436C345.896 498.292 345.692 499.154 345.216 499.896C344.741 500.638 344.02 501.222 343.159 501.561L325.187 508.636L319.347 503.98L320.879 510.332L314.103 513L306.215 491.27Z" fill="#2F2E41"/>
<path d="M320.613 451.056L335.191 444.049L338.077 449.944L356.741 453.096C357.663 453.252 358.506 453.674 359.148 454.301C359.791 454.928 360.198 455.727 360.31 456.582C360.423 457.436 360.235 458.302 359.774 459.051C359.313 459.801 358.604 460.396 357.749 460.749L339.915 468.114L333.986 463.552L335.641 469.879L328.916 472.656L320.613 451.056Z" fill="#2F2E41"/>
<path d="M186.413 231.019C180.929 231.028 175.577 229.477 171.091 226.58L170.941 226.483V226.315C170.947 221.444 173.057 216.773 176.808 213.328C180.559 209.883 185.644 207.945 190.949 207.939H199.373C204.677 207.945 209.763 209.883 213.514 213.328C217.264 216.773 219.374 221.444 219.38 226.315C219.375 227.431 218.895 228.5 218.044 229.295C217.193 230.09 216.038 230.549 214.824 230.573L186.887 231.016C186.729 231.018 186.57 231.019 186.413 231.019Z" fill="#2F2E41"/>
<path d="M220.785 222.786C223.471 221.361 223.92 217.456 221.788 214.064C219.655 210.672 215.749 209.077 213.063 210.501C210.377 211.925 209.928 215.83 212.06 219.222C214.193 222.615 218.099 224.21 220.785 222.786Z" fill="#2F2E41"/>
<path d="M178.774 219.001C181.79 216.232 182.456 212.353 180.263 210.339C178.07 208.324 173.847 208.937 170.831 211.707C167.816 214.476 167.149 218.355 169.342 220.369C171.536 222.383 175.758 221.771 178.774 219.001Z" fill="#2F2E41"/>
<path d="M362.476 393.312H341.758C341.29 393.311 340.828 393.403 340.404 393.584C339.98 393.764 339.603 394.027 339.302 394.354C338.537 394.225 337.751 394.265 337.006 394.469C336.262 394.673 335.581 395.037 335.019 395.53C334.457 396.023 334.031 396.631 333.775 397.305C333.519 397.979 333.44 398.699 333.546 399.406C333.651 400.113 333.938 400.787 334.382 401.372C334.826 401.958 335.415 402.438 336.1 402.774C336.786 403.11 337.548 403.292 338.325 403.305C339.102 403.318 339.871 403.161 340.569 402.848L342.287 407.977C342.491 408.584 342.901 409.116 343.458 409.494C344.015 409.872 344.689 410.076 345.382 410.076H358.852C359.544 410.076 360.218 409.872 360.775 409.494C361.332 409.116 361.742 408.584 361.946 407.977L365.57 397.159C365.719 396.715 365.752 396.244 365.667 395.785C365.582 395.327 365.381 394.893 365.08 394.518C364.779 394.144 364.387 393.84 363.934 393.63C363.482 393.421 362.982 393.312 362.476 393.312ZM338.427 402.016C337.496 402.016 336.604 401.676 335.945 401.072C335.287 400.467 334.917 399.647 334.917 398.792C334.917 397.937 335.287 397.117 335.945 396.512C336.604 395.908 337.496 395.568 338.427 395.568C338.491 395.568 338.551 395.582 338.615 395.586C338.475 396.105 338.492 396.649 338.664 397.159L340.146 401.586C339.624 401.864 339.031 402.012 338.427 402.016Z" fill="#3F3D56"/>
<path d="M269.962 379.315C268.548 379.435 267.121 379.269 265.784 378.828C264.447 378.387 263.231 377.683 262.222 376.764C261.213 375.844 260.436 374.733 259.946 373.509C259.455 372.284 259.263 370.975 259.383 369.675L190.277 335.662L205.392 326.773L270.59 361.5C272.955 361.829 275.107 362.944 276.637 364.633C278.167 366.322 278.969 368.468 278.892 370.664C278.814 372.86 277.863 374.953 276.217 376.548C274.571 378.142 272.346 379.127 269.962 379.315Z" fill="#FFB6B6"/>
<path d="M179.491 273.155C179.491 273.155 167.159 271.737 163.994 284.478C160.829 297.219 182.524 332.737 185.835 338.558C189.145 344.378 234.262 357.109 234.262 357.109L251.634 348.775L212.735 326.132L179.491 273.155Z" fill="#1E3A8A"/>
<path d="M266.414 220.512H270.626C272.674 220.512 274.638 221.259 276.086 222.589C277.534 223.919 278.348 225.723 278.348 227.604H258.691C258.691 225.723 259.505 223.919 260.953 222.589C262.401 221.259 264.366 220.512 266.414 220.512Z" fill="#CCCCCC"/>
<path d="M132.85 88.1823C155.896 88.1823 174.579 71.0229 174.579 49.8558C174.579 28.6887 155.896 11.5293 132.85 11.5293C109.804 11.5293 91.1211 28.6887 91.1211 49.8558C91.1211 71.0229 109.804 88.1823 132.85 88.1823Z" fill="#FF6584"/>
<path d="M260.616 47.8588C249.572 37.2184 236.746 27.5116 221.563 22.3822C217.333 20.9473 212.948 19.9351 208.483 19.3632C208.447 19.3587 208.413 19.3654 208.377 19.3627C208.304 19.3455 208.231 19.3322 208.156 19.3229C201.911 18.5922 195.572 18.9437 189.467 20.3592C186.482 21.0472 183.57 21.979 180.765 23.1434C177.951 24.4045 175.224 25.8239 172.6 27.3936C167.046 30.4471 160.931 32.5424 154.556 33.5761C151.357 34.1051 148.116 34.3973 144.865 34.4496C142.045 34.5016 139.385 34.5916 136.713 35.5275C133.858 36.5134 131.294 38.0984 129.225 40.1562C127.156 42.2139 125.639 44.6873 124.795 47.3791C124.73 47.6188 124.75 47.8713 124.851 48.1001C124.953 48.3289 125.131 48.5222 125.359 48.6521C126.082 49.1276 126.787 49.6671 127.547 50.0907C128.222 50.3748 128.944 50.5555 129.683 50.6259C130.89 50.8599 132.099 51.0871 133.31 51.3074C137.77 52.119 142.248 52.8374 146.745 53.4627C155.844 54.7278 164.992 55.619 174.189 56.1362C192.615 57.1612 211.103 56.6509 229.427 54.6114C239.726 53.4657 249.955 51.8408 260.074 49.7429C260.279 49.6879 260.465 49.5852 260.614 49.4447C260.763 49.3043 260.87 49.1309 260.924 48.9413C260.979 48.7517 260.979 48.5525 260.925 48.3628C260.871 48.1731 260.764 47.9995 260.616 47.8588Z" fill="#E6E6E6"/>
<path d="M134.832 73.4848C130.603 72.0499 126.218 71.0377 121.752 70.4657C121.716 70.4612 121.682 70.4679 121.646 70.4652C121.574 70.448 121.5 70.4348 121.426 70.4255C115.18 69.6947 108.841 70.0462 102.737 71.4618C99.7515 72.1498 96.8393 73.0816 94.0348 74.246C91.2204 75.5071 88.4935 76.9265 85.8695 78.4962C80.3155 81.5497 74.2004 83.6449 67.8259 84.6786C64.6263 85.2077 61.3855 85.4998 58.1349 85.5522C55.3144 85.6042 52.6545 85.6942 49.9823 86.63C47.1277 87.6159 44.5636 89.201 42.4945 91.2587C40.4253 93.3164 38.9085 95.7898 38.065 98.4816C38 98.7213 38.0196 98.9737 38.1209 99.2026C38.2223 99.4314 38.4002 99.6247 38.629 99.7546C39.3519 100.23 40.0566 100.77 40.8161 101.193C41.4917 101.477 42.2133 101.658 42.9524 101.728C44.1599 101.962 45.3689 102.19 46.5795 102.41C51.0392 103.221 55.5175 103.94 60.0143 104.565C69.1134 105.83 78.2617 106.721 87.459 107.239C105.884 108.264 124.372 107.753 142.697 105.714C152.996 104.568 163.224 102.943 173.344 100.845C173.549 100.79 173.734 100.688 173.883 100.547C174.032 100.407 174.139 100.233 174.194 100.044C174.248 99.8542 174.248 99.655 174.194 99.4653C174.14 99.2756 174.034 99.102 173.885 98.9613C162.842 88.321 150.016 78.6142 134.832 73.4848Z" fill="#E6E6E6"/>
<path d="M435.754 359.202L403.664 320.482L378.344 333.632L431.999 392.153L435.754 359.202Z" fill="#3F3D56"/>
<path d="M509.676 296.26C510.388 312.487 513.126 328.584 517.833 344.238C516.822 346.423 515.779 348.594 514.702 350.75C510.629 358.914 506.068 366.865 501.041 374.568C486.942 396.198 469.342 415.732 448.846 432.501C446.628 434.312 444.379 436.094 442.1 437.846C429.106 421.391 422.093 403.234 419.32 384.549C418.969 382.176 418.681 379.778 418.463 377.392V377.379C417.931 371.581 417.76 365.76 417.951 359.944C417.958 359.48 417.972 359.009 417.993 358.539C418.238 352.323 418.849 346.095 419.769 339.924V339.918C419.874 339.208 419.979 338.499 420.099 337.79C420.436 335.662 420.815 333.534 421.229 331.42C423.64 319.222 427.004 307.201 431.296 295.448V295.441C431.415 295.1 431.535 294.764 431.668 294.429C432.131 293.152 432.602 291.889 433.086 290.625C433.116 290.526 433.154 290.429 433.198 290.335C433.823 288.684 434.462 287.046 435.115 285.422C435.29 284.97 435.473 284.519 435.662 284.068C436.4 282.256 437.151 280.457 437.916 278.684C438.155 278.116 438.4 277.549 438.646 276.988C438.836 276.556 439.018 276.124 439.215 275.698V275.692C440.331 273.158 441.461 270.673 442.605 268.238C445.814 261.391 449.113 254.95 452.328 249.011L452.335 249.005C465.681 224.42 477.811 208.455 477.811 208.455L523.365 221.995C517.931 230.848 513.726 243.905 511.424 259.308C509.65 271.551 509.065 283.915 509.676 296.254L509.676 296.26Z" fill="#3F3D56"/>
<path d="M433.962 292.32C433.696 291.747 433.394 291.186 433.085 290.625C431.483 287.777 429.422 285.168 426.97 282.887C426.605 282.546 426.226 282.204 425.833 281.882C421.604 278.304 416.462 275.764 410.882 274.495C405.301 273.226 399.463 273.269 393.905 274.621L393.877 274.634L393.667 274.686L393.716 274.905C393.926 275.927 394.232 276.93 394.629 277.903C394.734 278.168 394.853 278.419 394.973 278.671C395.022 278.787 395.085 278.89 395.141 279.006C395.141 279.006 395.134 279.012 395.148 279.012C395.148 279.019 395.155 279.025 395.155 279.032C395.288 279.27 395.415 279.515 395.555 279.747C395.267 279.496 394.994 279.238 394.727 278.974C394.467 278.729 394.228 278.471 393.99 278.213C393.171 277.336 392.432 276.401 391.778 275.414L391.666 275.24L391.469 275.311C388.82 276.154 386.293 277.291 383.944 278.696L383.691 278.851C381.897 279.933 379.876 280.656 377.758 280.974C375.641 281.291 373.474 281.196 371.399 280.695C368.127 279.92 364.716 279.779 361.382 280.28C358.048 280.78 354.863 281.912 352.03 283.603C350.154 284.727 348.457 286.085 346.99 287.639C346.863 287.775 346.737 287.917 346.611 288.052C346.344 288.349 346.091 288.652 345.846 288.961C343.207 292.201 341.587 296.044 341.163 300.071L341.149 300.219L341.282 300.303C343.658 301.798 346.344 302.825 349.173 303.32C347.396 303.548 345.597 303.589 343.81 303.443H343.803C342.992 303.381 342.186 303.278 341.388 303.133L341.24 303.108H341.233L341.051 303.075L341.079 303.385C341.288 307.324 342.638 311.142 344.989 314.443L345.059 314.533C345.085 314.566 345.109 314.6 345.129 314.636C346.125 316.035 346.954 317.529 347.601 319.091C349.242 322.974 349.603 327.214 348.64 331.284C347.549 335.637 347.912 340.191 349.68 344.352C351.448 348.513 354.539 352.088 358.552 354.612C362.077 356.839 366.184 358.163 370.451 358.448C371.034 358.493 371.624 358.519 372.213 358.519C375.589 358.529 378.929 357.89 382.02 356.643L382.133 356.604L382.161 356.488C382.755 354.726 383.59 353.041 384.646 351.472C384.3 352.708 384.126 353.98 384.126 355.257V355.682L384.527 355.469C384.87 355.283 385.222 355.083 385.537 354.896C387.434 353.758 389.151 352.387 390.641 350.821C391.224 350.202 391.813 349.602 392.431 349.002L392.438 348.996C393.639 347.823 394.909 346.675 396.229 345.579C399.037 343.262 402.042 341.156 405.215 339.279C408.386 337.409 411.701 335.754 415.134 334.327H415.141C415.527 334.16 415.921 333.999 416.307 333.844C418.016 333.16 419.662 332.349 421.228 331.419C421.284 331.387 421.333 331.361 421.382 331.329C428.169 327.248 433.158 321.087 435.462 313.944C437.765 306.8 437.234 299.138 433.962 292.32Z" fill="#1E3A8A"/>
<path opacity="0.15" d="M349.796 340.439C349.604 341.223 349.459 342.015 349.361 342.814C348.054 339.02 347.865 334.977 348.812 331.094C348.958 330.5 349.068 329.899 349.154 329.295C350.451 332.89 350.673 336.738 349.796 340.439Z" fill="black"/>
<path opacity="0.15" d="M350.327 312.47C348.248 312.735 346.139 312.745 344.057 312.498C343.512 311.553 343.041 310.574 342.648 309.567C344.967 311.004 347.579 311.992 350.327 312.47Z" fill="black"/>
<path opacity="0.15" d="M343.894 303.235C343.126 305.038 342.616 306.925 342.376 308.848C341.736 307.016 341.358 305.116 341.252 303.194L341.234 302.885L341.566 302.944C342.336 303.077 343.113 303.174 343.894 303.235Z" fill="black"/>
<path opacity="0.15" d="M352.215 283.412C355.044 281.718 358.227 280.585 361.56 280.083C364.893 279.582 368.303 279.724 371.572 280.5C373.648 281.004 375.816 281.101 377.936 280.783C380.055 280.466 382.077 279.742 383.871 278.659L384.125 278.506C386.472 277.097 388.998 275.958 391.646 275.112L391.848 275.048L391.959 275.216C393.006 276.806 394.275 278.264 395.733 279.552C394.847 278.037 394.227 276.403 393.895 274.71L393.847 274.487L394.087 274.428C399.299 273.161 404.764 273.044 410.035 274.086C415.306 275.128 420.234 277.3 424.417 280.424C428.6 283.549 431.92 287.537 434.105 292.064C436.29 296.591 437.279 301.529 436.991 306.474C435.886 302.442 433.92 298.652 431.208 295.324C428.496 291.995 425.092 289.194 421.193 287.082C417.294 284.971 412.977 283.591 408.493 283.023C404.009 282.455 399.447 282.71 395.071 283.773L394.831 283.831L394.879 284.054C395.211 285.747 395.831 287.381 396.717 288.897C395.259 287.608 393.99 286.151 392.943 284.561L392.832 284.393L392.63 284.457C389.982 285.302 387.456 286.442 385.109 287.85L384.855 288.004C383.061 289.087 381.038 289.811 378.919 290.128C376.8 290.445 374.632 290.349 372.556 289.845C367.121 288.549 361.366 289.026 356.271 291.192C351.176 293.359 347.057 297.081 344.616 301.725C343.53 301.246 342.476 300.705 341.462 300.107L341.324 300.027L341.341 299.878C341.69 296.56 342.849 293.356 344.731 290.505C346.614 287.654 349.172 285.23 352.215 283.412Z" fill="black"/>
<path d="M613.195 118.664L612.528 118.257L612.043 118.838C608.295 123.173 605.312 128.023 603.205 133.21C603.496 127.234 604.633 121.319 606.589 115.614L606.799 115.014L606.196 114.698C598.341 110.613 589.972 107.426 581.274 105.207L580.326 104.975C573.661 103.295 567.455 100.344 562.115 96.3131C556.774 92.2825 552.419 87.2633 549.332 81.5828C542.16 68.5458 530.83 57.8279 516.853 50.8592C502.876 43.8905 486.917 41.0025 471.107 42.5805H471.1C470.932 42.5934 470.756 42.6127 470.588 42.6321C470.3 42.6578 470.019 42.6901 469.738 42.7223C469.162 42.7932 468.601 42.8642 468.039 42.9415C467.562 43.006 467.077 43.077 466.6 43.1543C466.347 43.1866 466.102 43.2252 465.856 43.2704C465.61 43.3091 465.358 43.3478 465.112 43.3929H465.105C460.391 44.2118 455.771 45.4313 451.303 47.0359H451.296V47.0423L450.166 47.4485C449.001 47.8869 447.845 48.3512 446.698 48.8412C446.438 48.9508 446.186 49.0669 445.926 49.1765C445.856 49.2087 445.778 49.2409 445.708 49.2796C444.971 49.602 444.241 49.9373 443.518 50.2919C443.413 50.3371 443.307 50.3886 443.202 50.4402L442.528 50.7691C441.047 51.5041 439.591 52.2843 438.162 53.1096C438.042 53.1741 437.93 53.2385 437.811 53.3095C437.684 53.3868 437.551 53.4642 437.424 53.5416C437.347 53.5803 437.27 53.6318 437.193 53.677C436.975 53.7995 436.764 53.9284 436.554 54.0638C436.133 54.3153 435.712 54.5732 435.297 54.8376C434.869 55.1019 434.448 55.3792 434.027 55.6564L433.605 55.9337L433.683 56.4108C433.753 56.8041 433.816 57.1974 433.893 57.5843C433.964 57.9712 434.034 58.3516 434.111 58.732C434.23 59.3703 434.364 60.0022 434.497 60.6147C434.588 61.0209 434.673 61.4207 434.771 61.814C434.862 62.2202 434.96 62.6264 435.066 63.0326C435.269 63.8708 435.487 64.6832 435.719 65.4828C435.831 65.8825 435.95 66.2823 436.077 66.6756C436.147 66.9142 436.217 67.1527 436.294 67.3848C436.35 67.546 436.407 67.7072 436.463 67.8684C436.477 67.92 436.491 67.978 436.512 68.0361C436.527 68.0907 436.546 68.1445 436.568 68.1973C436.645 68.4359 436.722 68.668 436.8 68.8936C436.842 69.0161 436.884 69.1386 436.933 69.2547C437.031 69.5319 437.137 69.8156 437.242 70.0864C437.354 70.3959 437.474 70.7054 437.593 71.0085C437.621 71.0858 437.649 71.1568 437.677 71.2341C437.698 71.2922 437.719 71.3502 437.747 71.4082C437.775 71.4727 437.804 71.5436 437.832 71.6081C437.951 71.8982 438.07 72.1948 438.197 72.485C438.239 72.5882 438.281 72.6978 438.33 72.8009C439.468 75.4276 440.866 77.9529 442.507 80.3448C440.689 78.9134 438.938 77.396 437.256 75.7927C434.658 73.3136 432.265 70.6606 430.095 67.8555C429.92 67.6363 429.744 67.4106 429.583 67.185C429.253 66.753 428.93 66.321 428.614 65.8825C428.277 65.4312 427.954 64.9605 427.638 64.4963C427.428 64.1868 427.217 63.8708 427.014 63.5613C426.81 63.2647 426.62 62.9746 426.438 62.678L425.89 61.814H425.883V61.8204L425.111 62.5168C424.802 62.7941 424.493 63.0713 424.192 63.3485C414.756 72.0679 407.922 82.8702 404.346 94.7167L404.24 95.0713L404.135 95.4389C403.931 96.0965 403.728 96.7349 403.51 97.3861V97.3925C403.3 98.0373 403.075 98.6821 402.836 99.3139C402.619 99.9136 402.394 100.507 402.155 101.1C402.078 101.3 401.994 101.5 401.903 101.7C401.755 102.086 401.594 102.467 401.432 102.854C401.355 103.028 401.278 103.208 401.201 103.382C401.011 103.808 400.821 104.234 400.632 104.653C400.604 104.717 400.569 104.788 400.534 104.853C400.477 104.981 400.414 105.11 400.358 105.233C400.211 105.542 400.056 105.858 399.909 106.168C399.804 106.368 399.705 106.574 399.607 106.774C399.565 106.864 399.516 106.954 399.474 107.045C399.214 107.561 398.947 108.07 398.666 108.573C398.35 109.166 398.027 109.759 397.683 110.34C397.382 110.881 397.066 111.41 396.736 111.939C396.167 112.874 395.57 113.802 394.953 114.705C394.714 115.053 394.475 115.401 394.23 115.749C394.173 115.833 394.117 115.917 394.061 115.994C393.857 116.297 393.647 116.587 393.429 116.884C393.282 117.084 393.134 117.284 392.987 117.477C392.741 117.825 392.482 118.161 392.215 118.49C392.145 118.593 392.067 118.689 391.99 118.786C391.597 119.289 391.204 119.779 390.804 120.269C390.79 120.276 390.79 120.282 390.783 120.288C390.769 120.288 390.769 120.295 390.762 120.301C390.586 120.514 390.411 120.727 390.228 120.933C389.989 121.236 389.73 121.533 389.47 121.823C389.049 122.313 388.606 122.809 388.157 123.293C388.143 123.306 388.136 123.319 388.122 123.325C385.796 125.835 383.276 128.188 380.582 130.366C380.533 130.405 380.498 130.444 380.449 130.476C380.07 130.779 379.691 131.082 379.298 131.379C379.136 131.501 378.975 131.624 378.813 131.746C378.547 131.952 378.273 132.159 378.006 132.346C377.974 132.375 377.939 132.401 377.901 132.423C377.662 132.604 377.43 132.771 377.192 132.939C376.904 133.152 376.616 133.352 376.321 133.551C374.931 134.519 373.504 135.432 372.039 136.292C371.821 136.427 371.59 136.562 371.365 136.691C371.232 136.769 371.098 136.846 370.972 136.911C370.438 137.214 369.905 137.51 369.371 137.794C368.838 138.084 368.29 138.361 367.75 138.632C366.591 139.212 365.447 139.819 364.331 140.45C363.769 140.773 363.208 141.095 362.653 141.424C360.449 142.739 358.326 144.147 356.286 145.647C354.246 147.148 352.289 148.743 350.424 150.425C350.192 150.631 349.961 150.844 349.729 151.063C349.266 151.483 348.816 151.908 348.388 152.334C347.7 152.985 347.04 153.655 346.387 154.332C342.945 157.92 339.897 161.812 337.289 165.951C335.98 168.018 334.789 170.147 333.723 172.328C332.916 173.959 332.179 175.629 331.512 177.319C331.069 178.447 330.655 179.586 330.269 180.736C330.08 181.31 329.897 181.89 329.722 182.47C329.125 184.437 328.626 186.423 328.219 188.415C327.889 190.014 327.622 191.615 327.419 193.219C327.314 194.025 327.229 194.831 327.152 195.63C326.971 197.595 326.879 199.562 326.875 201.531C326.863 207.438 327.644 213.324 329.202 219.055C329.546 220.318 329.927 221.576 330.346 222.827C330.557 223.452 330.782 224.071 331.006 224.69C331.575 226.237 332.204 227.77 332.895 229.287C333.309 230.196 333.744 231.099 334.2 231.995C337.1 237.693 340.801 243.017 345.208 247.831C345.931 248.624 346.677 249.404 347.447 250.171C347.454 250.171 347.447 250.178 347.447 250.178C349.358 252.091 351.38 253.908 353.506 255.62H353.513C354.362 256.31 355.226 256.978 356.103 257.625C356.11 257.618 356.11 257.625 356.11 257.625C356.995 258.283 357.886 258.914 358.799 259.527C359.255 259.83 359.719 260.133 360.189 260.436C361.109 261.036 362.047 261.614 363.004 262.171H363.011C363.966 262.738 364.935 263.28 365.917 263.795C367.89 264.833 369.912 265.807 371.99 266.69L372.341 266.839L372.699 266.69C376.031 265.313 379.465 264.156 382.976 263.228C383.748 263.022 384.528 262.835 385.3 262.654C387.252 262.209 389.217 261.835 391.197 261.532C389.268 262.421 387.406 263.427 385.623 264.543C384.24 265.401 382.878 266.336 381.509 267.367C381.053 267.709 380.596 268.064 380.14 268.425L379.003 269.328L380.428 269.76C380.947 269.914 381.467 270.069 381.986 270.211C382.695 270.417 383.397 270.604 384.085 270.778C385.588 271.165 387.099 271.507 388.62 271.804C388.993 271.874 389.358 271.945 389.73 272.016C390.453 272.145 391.183 272.274 391.913 272.39C391.943 272.397 391.973 272.402 392.004 272.403C392.762 272.519 393.528 272.629 394.286 272.726C395.697 272.912 397.108 273.061 398.519 273.17C398.673 273.19 398.828 273.196 398.989 273.203C399.333 273.228 399.67 273.254 400.014 273.274C400.772 273.319 401.538 273.351 402.303 273.377C402.359 273.377 402.408 273.383 402.464 273.383C402.85 273.396 403.236 273.409 403.623 273.415C403.623 273.415 403.623 273.422 403.63 273.415C404.016 273.422 404.402 273.428 404.788 273.428H406.922C407.322 273.428 407.722 273.435 408.129 273.435C408.691 273.435 409.26 273.441 409.821 273.448C409.969 273.448 410.123 273.454 410.278 273.454C411.176 273.467 412.075 273.486 412.973 273.506C413.029 273.506 413.086 273.512 413.142 273.512C414.04 273.538 414.939 273.564 415.838 273.602C416.034 273.609 416.231 273.615 416.434 273.628C417.298 273.66 418.161 273.699 419.025 273.744C419.27 273.757 419.523 273.776 419.776 273.789C420.429 273.822 421.089 273.86 421.742 273.905C422.128 273.925 422.507 273.951 422.893 273.983C424.451 274.092 426.003 274.215 427.561 274.357C428.081 274.395 428.6 274.447 429.12 274.499C430.51 274.634 431.904 274.782 433.304 274.944C433.928 275.008 434.553 275.085 435.178 275.163C435.248 275.169 435.318 275.176 435.389 275.189C436.161 275.285 436.926 275.382 437.698 275.485C438.204 275.55 438.709 275.621 439.215 275.691C439.734 275.762 440.254 275.833 440.773 275.917C441.054 275.956 441.335 276.001 441.623 276.046C442.297 276.143 442.977 276.246 443.658 276.362C443.72 276.367 443.781 276.376 443.841 276.388C445.287 276.62 446.74 276.865 448.186 277.129C449.036 277.278 449.878 277.432 450.721 277.594C451.381 277.716 452.04 277.845 452.7 277.974C452.813 277.993 452.925 278.019 453.037 278.045C453.062 278.052 453.088 278.056 453.115 278.058C454.111 278.258 455.115 278.464 456.112 278.683C459.573 279.418 463.029 280.235 466.481 281.133C467.274 281.333 468.067 281.546 468.861 281.759C469.198 281.849 469.528 281.939 469.858 282.03C470.546 282.217 471.226 282.404 471.914 282.603C472.518 282.771 473.129 282.945 473.733 283.126C474.112 283.235 474.491 283.345 474.87 283.461C475.46 283.629 476.049 283.803 476.632 283.99C477.13 284.132 477.622 284.28 478.113 284.441C478.815 284.654 479.524 284.873 480.226 285.105C480.43 285.17 480.641 285.234 480.844 285.305C481.701 285.576 482.557 285.853 483.413 286.143C484.249 286.42 485.084 286.704 485.913 286.988C486.488 287.188 487.064 287.381 487.633 287.588C488.271 287.813 488.91 288.039 489.542 288.271C490.455 288.6 491.374 288.935 492.287 289.277C493.129 289.586 493.965 289.902 494.807 290.231C494.962 290.289 495.123 290.347 495.277 290.412C496.008 290.689 496.738 290.979 497.461 291.269C497.931 291.45 498.394 291.637 498.858 291.824C500.88 292.636 502.899 293.476 504.916 294.345H504.923C506.187 294.893 507.471 295.415 508.763 295.912C509.065 296.028 509.367 296.144 509.676 296.253C510.188 296.453 510.708 296.64 511.227 296.834C511.564 296.956 511.901 297.079 512.245 297.195C512.744 297.375 513.249 297.549 513.755 297.717C514.288 297.897 514.815 298.078 515.355 298.246C515.545 298.31 515.734 298.368 515.931 298.433C516.556 298.626 517.18 298.819 517.812 299.006C517.875 299.026 517.939 299.045 518.009 299.064C518.669 299.258 519.329 299.451 519.995 299.632C520.048 299.65 520.102 299.665 520.157 299.677C520.873 299.877 521.603 300.07 522.326 300.257C523.393 300.528 524.467 300.786 525.541 301.025C525.738 301.07 525.934 301.115 526.131 301.154C526.707 301.283 527.275 301.405 527.851 301.521C528.462 301.65 529.079 301.766 529.69 301.882C530.308 301.998 530.926 302.114 531.537 302.217C531.866 302.275 532.196 302.333 532.519 302.385L533.383 302.52C533.98 302.617 534.576 302.701 535.18 302.791C535.197 302.791 535.213 302.793 535.229 302.798C535.91 302.894 536.584 302.985 537.265 303.062C537.918 303.146 538.571 303.217 539.224 303.288C539.357 303.301 539.497 303.314 539.638 303.326C540.178 303.384 540.719 303.443 541.259 303.488C541.414 303.501 541.568 303.513 541.723 303.526C542.256 303.571 542.79 303.617 543.323 303.649C543.43 303.662 543.538 303.668 543.646 303.668C544.124 303.707 544.601 303.739 545.078 303.758C545.415 303.784 545.745 303.797 546.082 303.816C546.258 303.823 546.426 303.829 546.602 303.836C547.065 303.862 547.528 303.875 547.999 303.887C548.567 303.907 549.136 303.92 549.698 303.933C550.379 303.945 551.067 303.952 551.748 303.952H551.762C552.429 303.952 553.102 303.945 553.769 303.933H554.022L554.759 303.913C555.138 303.907 555.517 303.894 555.889 303.881C556.606 303.855 557.315 303.823 558.024 303.784C558.304 303.771 558.592 303.752 558.873 303.739C558.999 303.733 559.133 303.72 559.259 303.713C559.701 303.688 560.137 303.662 560.579 303.629C561.035 303.597 561.499 303.559 561.955 303.513C562.545 303.462 563.134 303.404 563.724 303.346C564.187 303.301 564.651 303.249 565.107 303.198C565.168 303.193 565.229 303.184 565.29 303.172C565.732 303.127 566.174 303.075 566.609 303.017C567.129 302.952 567.641 302.882 568.154 302.811C568.21 302.804 568.259 302.798 568.315 302.791C569.2 302.662 570.091 302.533 570.983 302.385C571.917 302.23 572.85 302.063 573.777 301.889C574.121 301.824 574.458 301.753 574.802 301.689C574.991 301.65 575.188 301.618 575.37 301.579C575.658 301.521 575.939 301.463 576.22 301.399C576.269 301.392 576.325 301.379 576.374 301.373C576.767 301.295 577.154 301.205 577.547 301.115C578.333 300.941 579.105 300.76 579.877 300.567C580.221 300.489 580.565 300.406 580.895 300.322C580.994 300.296 581.092 300.27 581.183 300.244C582.608 299.877 584.022 299.488 585.423 299.077C586.041 298.897 586.652 298.71 587.263 298.51C588.575 298.097 589.876 297.663 591.166 297.208C591.51 297.092 591.854 296.963 592.198 296.84C592.703 296.653 593.209 296.466 593.707 296.279C594.156 296.105 594.606 295.931 595.062 295.75C595.287 295.667 595.511 295.576 595.736 295.486C596.41 295.215 597.084 294.938 597.751 294.661C598.2 294.467 598.642 294.28 599.084 294.087C599.786 293.777 600.481 293.461 601.176 293.146C601.352 293.062 601.52 292.978 601.689 292.901C602.131 292.694 602.574 292.481 603.023 292.275C603.732 291.927 604.441 291.579 605.143 291.218C605.382 291.102 605.613 290.979 605.852 290.857C606.624 290.457 607.389 290.051 608.147 289.638C609.825 288.716 611.48 287.753 613.111 286.749C613.518 286.504 613.925 286.246 614.325 285.995C615.083 285.518 615.827 285.028 616.572 284.538C616.649 284.486 616.719 284.435 616.796 284.39C617.168 284.138 617.54 283.887 617.912 283.629C618.685 283.094 619.45 282.552 620.215 281.997C620.229 281.991 620.25 281.972 620.271 281.959C620.615 281.707 620.959 281.456 621.296 281.204C622.342 280.424 623.374 279.631 624.385 278.812C624.883 278.419 625.375 278.013 625.859 277.607C626.224 277.303 626.589 277 626.947 276.691C627.67 276.066 628.379 275.447 629.081 274.815C629.432 274.505 629.776 274.183 630.127 273.86C630.472 273.538 630.823 273.216 631.167 272.887C631.286 272.777 631.405 272.661 631.525 272.545C631.876 272.203 632.227 271.855 632.578 271.513C632.879 271.217 633.174 270.907 633.476 270.598C633.982 270.082 634.494 269.566 634.992 269.044C635.019 269.015 635.047 268.987 635.077 268.96C635.105 268.928 635.133 268.902 635.154 268.876H635.147C645.351 258.039 652.933 245.334 657.39 231.604C661.848 217.873 663.08 203.43 661.005 189.229C658.93 175.029 653.594 161.395 645.352 149.23C637.11 137.065 626.149 126.646 613.195 118.664Z" fill="#1E3A8A"/>
<g opacity="0.15">
<path d="M471.101 42.5762C472.501 47.193 474.606 51.6042 477.354 55.6779C472.753 52.0476 468.642 47.924 465.109 43.3955C467.094 43.0507 469.091 42.7776 471.101 42.5762Z" fill="black"/>
<path d="M402.599 113.976C397.403 116.58 392.545 119.717 388.117 123.325C395.593 115.206 401.056 105.691 404.129 95.4393C404.166 95.3162 404.204 95.1922 404.24 95.0689L404.345 94.7199C408.037 82.4844 415.202 71.3693 425.106 62.5113L425.885 61.8145L426.434 62.6756C429.47 67.4171 433.103 71.8139 437.259 75.7752C430.891 92.2774 418.501 106.012 402.599 113.976Z" fill="black"/>
<path d="M439.195 70.0572L439.091 70.4061C439.054 70.5295 439.017 70.6535 438.98 70.7766C438.775 71.4551 438.557 72.1285 438.332 72.799C436.111 67.5159 434.552 62.018 433.683 56.4113L433.602 55.9356L434.027 55.656C439.369 52.1304 445.171 49.2336 451.298 47.0332C445.797 53.9816 441.698 61.7797 439.195 70.0572Z" fill="black"/>
<path d="M367.751 138.639C372.35 136.327 376.653 133.553 380.583 130.366C372.733 138.76 367.106 148.71 364.144 159.435C361.181 170.161 360.962 181.37 363.505 192.186C366.048 203.002 371.283 213.131 378.8 221.777C386.318 230.424 395.913 237.355 406.835 242.026L407.19 242.177L407.544 242.03C413.443 239.582 419.663 237.847 426.047 236.869C422.062 238.733 418.347 241.05 414.99 243.764L413.854 244.666L415.279 245.098C416.509 245.471 417.739 245.815 418.935 246.12C425.961 247.917 433.224 248.81 440.517 248.772C473.653 248.577 507.047 255.613 539.769 269.684C545.381 272.094 551.201 274.07 557.17 275.591C583.184 282.244 610.954 279.851 635.166 268.871C621.516 283.371 603.667 294.017 583.692 299.572C563.717 305.127 542.437 305.363 522.322 300.254C516.353 298.732 510.532 296.757 504.92 294.347C472.198 280.276 438.804 273.24 405.668 273.435C398.375 273.472 391.112 272.58 384.086 270.782C382.89 270.477 381.66 270.134 380.43 269.76L379.005 269.328L380.141 268.426C383.499 265.712 387.213 263.396 391.199 261.531C384.814 262.51 378.594 264.244 372.695 266.692L372.341 266.839L371.986 266.689C358.871 261.082 347.71 252.238 339.748 241.144C331.787 230.051 327.338 217.143 326.899 203.862C326.46 190.582 330.047 177.45 337.261 165.933C344.475 154.416 355.031 144.967 367.751 138.639Z" fill="black"/>
</g>
</g>
<defs>
<clipPath id="clip0_328_130">
<rect width="662" height="513" fill="white"/>
</clipPath>
</defs>
</svg>
