<svg width="551" height="458" viewBox="0 0 551 458" fill="none" xmlns="http://www.w3.org/2000/svg">
<g clip-path="url(#clip0_440_3956)">
<path d="M550.999 229C551.056 260.901 543.794 292.458 529.683 321.628C529.228 322.57 528.766 323.507 528.298 324.438C528.067 324.906 527.83 325.368 527.593 325.837C527.356 326.299 527.119 326.768 526.875 327.23C526.563 327.83 526.251 328.424 525.933 329.018C525.54 329.766 525.141 330.508 524.729 331.25C524.679 331.353 524.623 331.456 524.56 331.559C524.217 332.187 523.874 332.815 523.518 333.443C523.443 333.58 523.369 333.717 523.287 333.849C522.882 334.58 522.464 335.311 522.039 336.036V336.042C521.59 336.813 521.139 337.582 520.685 338.349C519.562 340.245 518.408 342.124 517.222 343.985C516.867 344.539 516.517 345.093 516.155 345.641C515.824 346.155 515.494 346.664 515.157 347.172C514.926 347.526 514.695 347.874 514.458 348.223C514.084 348.788 513.703 349.353 513.316 349.919C513.31 349.924 513.31 349.925 513.31 349.93C512.455 351.187 511.581 352.437 510.702 353.676H510.695C510.29 354.253 509.878 354.824 509.466 355.395V355.401C508.224 357.114 506.958 358.81 505.666 360.489V360.495C505.661 360.495 505.657 360.498 505.653 360.501V360.507L505.641 360.518C504.618 361.86 503.573 363.191 502.509 364.51V364.515C501.828 365.361 501.142 366.206 500.449 367.04C499.882 367.725 499.307 368.408 498.727 369.09C498.609 369.238 498.484 369.381 498.353 369.529V369.535C498.197 369.724 498.041 369.906 497.872 370.095V370.101C495.408 372.984 492.868 375.811 490.253 378.581H490.247C490.11 378.735 489.966 378.884 489.823 379.032C489.686 379.181 489.536 379.329 489.392 379.483H489.386C489.168 379.717 488.943 379.952 488.718 380.186C488.5 380.42 488.269 380.654 488.038 380.888V380.894C474.41 394.966 458.944 407.452 441.988 418.071C439.729 419.493 437.441 420.876 435.124 422.222C434.55 422.559 433.976 422.89 433.395 423.222C433.221 423.33 433.046 423.427 432.871 423.524C432.565 423.701 432.254 423.878 431.942 424.055C431.636 424.227 431.324 424.404 431.012 424.575C429.77 425.272 428.516 425.957 427.262 426.631C426.95 426.802 426.631 426.968 426.313 427.139C426.001 427.305 425.683 427.47 425.365 427.636C425.36 427.642 425.355 427.647 425.348 427.651C425.342 427.655 425.335 427.658 425.327 427.659L425.315 427.665L425.302 427.676H425.296C423.724 428.504 422.145 429.321 420.547 430.109C417.69 431.536 414.803 432.913 411.887 434.238C411.163 434.569 410.433 434.894 409.703 435.22C409.097 435.488 408.486 435.757 407.88 436.019C407.712 436.094 407.55 436.168 407.381 436.236C406.876 436.453 406.37 436.67 405.865 436.882C405.316 437.122 404.76 437.35 404.211 437.578C403.594 437.835 402.982 438.087 402.364 438.338C400.043 439.286 397.697 440.2 395.345 441.079C386.941 444.228 378.352 446.947 369.617 449.223C369.212 449.331 368.8 449.44 368.388 449.542C364.65 450.502 360.886 451.379 357.094 452.175C350.473 453.568 343.793 454.712 337.051 455.607C337.039 455.607 337.02 455.613 337.008 455.613C336.203 455.721 335.392 455.824 334.587 455.927C334.518 455.938 334.443 455.95 334.368 455.956C334.362 455.961 334.356 455.961 334.343 455.956C334.343 455.956 334.343 455.961 334.337 455.956C333.445 456.064 332.552 456.173 331.654 456.275C331.591 456.287 331.529 456.292 331.467 456.298C330.631 456.39 329.788 456.481 328.946 456.567C328.041 456.658 327.136 456.744 326.225 456.829C325.533 456.892 324.84 456.955 324.147 457.012C324.086 457.023 324.023 457.029 323.96 457.029C323.33 457.081 322.7 457.132 322.069 457.178C322.044 457.178 322.013 457.183 321.988 457.183C321.439 457.229 320.89 457.263 320.341 457.303C313.883 457.772 307.362 458.004 300.779 458C293.634 458 286.562 457.728 279.563 457.183C279.538 457.183 279.513 457.178 279.488 457.178C277.997 457.063 276.508 456.938 275.021 456.801C274.627 456.766 274.241 456.726 273.847 456.692C273.773 456.686 273.698 456.681 273.623 456.669C273.504 456.658 273.386 456.647 273.261 456.635C273.198 456.629 273.13 456.624 273.067 456.612C272.549 456.561 272.032 456.509 271.507 456.452C270.927 456.39 270.341 456.327 269.76 456.258C269.18 456.195 268.593 456.127 268.013 456.053C267.888 456.041 267.757 456.03 267.632 456.007C267.208 455.961 266.784 455.91 266.366 455.853C266.16 455.83 265.96 455.801 265.76 455.773C265.355 455.721 264.956 455.67 264.55 455.613C264.537 455.613 264.519 455.607 264.506 455.607C251.764 453.923 239.185 451.328 226.886 447.846H226.88C226.212 447.658 225.544 447.464 224.877 447.27C224.677 447.218 224.477 447.161 224.278 447.098C222.543 446.59 220.819 446.065 219.105 445.522C216.74 444.78 214.392 444.003 212.06 443.192C211.423 442.969 210.793 442.747 210.157 442.524C208.89 442.067 207.63 441.61 206.375 441.142C204.235 440.342 202.109 439.518 199.998 438.669H199.992V438.663C198.02 437.87 196.063 437.051 194.12 436.208C194.063 436.192 194.008 436.169 193.958 436.139C193.952 436.139 193.952 436.134 193.945 436.134C193.515 435.951 193.084 435.762 192.654 435.574L192.641 435.568C181.938 430.873 171.618 425.48 161.76 419.43C158.596 417.494 155.487 415.493 152.431 413.428C149.967 411.766 147.537 410.062 145.143 408.317C133.218 399.643 122.182 389.991 112.172 379.483H112.165V379.478C111.46 378.741 110.774 378.01 110.075 377.267V377.262C109.975 377.159 109.882 377.056 109.788 376.953C109.345 376.479 108.914 376.011 108.484 375.531V375.526C107.897 374.892 107.323 374.256 106.762 373.618C106.637 373.481 106.518 373.35 106.4 373.213H106.393V373.207C105.932 372.693 105.476 372.173 105.027 371.654C104.796 371.397 104.571 371.134 104.347 370.871H104.341V370.866C102.98 369.295 101.647 367.71 100.341 366.109V366.103C99.9788 365.663 99.6231 365.224 99.2737 364.778H99.2675C97.5952 362.711 95.9666 360.619 94.3816 358.502V358.496C93.7826 357.703 93.1898 356.903 92.6033 356.098C92.0167 355.293 91.4364 354.485 90.8623 353.676H90.8561C90.2633 352.843 89.6768 352.005 89.0964 351.164C89.0652 351.118 89.034 351.078 89.0091 351.038C88.435 350.21 87.8693 349.376 87.3119 348.537C86.8626 347.869 86.4196 347.206 85.989 346.538C85.6895 346.087 85.3962 345.641 85.1092 345.185C85.0031 345.03 84.9095 344.876 84.8159 344.728C84.1545 343.694 83.5055 342.66 82.8566 341.621C82.1015 340.399 81.3527 339.166 80.6227 337.932C80.3232 337.424 80.0237 336.91 79.7304 336.396C79.6243 336.23 79.5307 336.065 79.4371 335.893C79.0877 335.288 78.7382 334.683 78.395 334.072C78.0518 333.466 77.7087 332.855 77.3717 332.244C77.0347 331.633 76.6978 331.022 76.3671 330.405C76.1175 329.943 75.8679 329.474 75.6245 329.012C75.5992 328.973 75.5763 328.933 75.5559 328.892C75.4436 328.675 75.325 328.464 75.2189 328.247C75.194 328.213 75.1751 328.177 75.1628 328.138C74.9069 327.658 74.6573 327.184 74.414 326.705C74.0895 326.088 73.7775 325.465 73.4655 324.843C73.2409 324.409 73.0287 323.969 72.8103 323.53C72.4983 322.913 72.1926 322.29 71.8931 321.662C71.5748 321.017 71.2691 320.366 70.9633 319.715C70.8822 319.549 70.8073 319.389 70.7324 319.224C70.5889 318.927 70.4516 318.63 70.3143 318.333C69.9462 317.545 69.5843 316.745 69.2286 315.951C68.823 315.055 68.4278 314.156 68.043 313.256C67.6748 312.416 67.3171 311.575 66.9697 310.732L66.8387 310.423V310.418C61.4169 297.377 57.3146 283.908 54.5835 270.18V270.174C53.0263 262.337 51.9183 254.43 51.264 246.486C51.2265 246.052 51.1953 245.618 51.1641 245.184C50.7523 239.81 50.5505 234.416 50.5588 229C50.5588 226.596 50.6004 224.203 50.6836 221.822C52.3015 172.035 71.6937 124.104 105.894 85.3581C107.398 83.6506 108.929 81.9641 110.487 80.2984C156.375 31.1519 224.602 -6.10352e-05 300.779 -6.10352e-05C389.841 -6.10352e-05 468.039 42.5848 512.374 106.722C514.683 110.046 516.892 113.43 519.001 116.876C540.045 151.103 551.068 189.726 550.999 229Z" fill="#F2F2F2"/>
<path d="M421.945 408.745C421.047 411.018 420.15 413.291 419.256 415.564C419.087 415.998 418.913 416.426 418.744 416.86C416.46 422.651 414.175 428.443 411.887 434.238C411.163 434.569 410.433 434.894 409.703 435.22C409.097 435.488 408.486 435.757 407.881 436.019C407.712 436.094 407.55 436.168 407.381 436.236C406.876 436.453 406.371 436.67 405.865 436.882C405.316 437.121 404.761 437.35 404.212 437.578C403.594 437.835 402.982 438.087 402.365 438.338C402.043 437.572 401.86 436.764 401.822 435.945C401.795 434.659 401.961 433.375 402.315 432.13C402.857 430.074 403.719 428.059 404.286 425.997C404.318 425.9 404.343 425.797 404.368 425.7C405.633 420.778 405.049 415.609 402.708 411.029C401.297 408.299 399.276 405.815 398.396 402.903C397.631 400.168 397.97 397.273 399.351 394.748C399.863 393.769 400.506 392.852 401.266 392.018C401.447 391.807 401.641 391.607 401.84 391.407C403.676 389.562 406.114 388.31 408.792 387.838C413.915 387.004 419.268 389.5 422.133 393.417C423.306 394.991 424.021 396.813 424.21 398.711C424.522 402.143 423.225 405.507 421.945 408.745Z" fill="#E4E4E4"/>
<path d="M407.799 431.942C406.626 429.96 404.661 428.224 404.286 425.997C403.069 418.847 400.137 413.719 395.276 410.812C393.866 409.973 393.641 408.117 392.774 406.78C392.387 406.181 391.994 405.581 391.588 404.993C390.933 404.016 390.251 403.059 389.541 402.121C388.197 400.306 386.714 398.581 385.105 396.958C384.437 396.278 383.732 395.622 383.002 394.999L382.996 394.994C382.54 394.594 382.078 394.211 381.598 393.84C381.411 393.692 381.217 393.543 381.018 393.395L381.005 393.383C380.162 392.714 379.279 392.089 378.359 391.51C376.244 390.202 373.854 389.294 371.402 390.02C370.438 390.322 369.51 390.712 368.631 391.184C368.182 391.419 367.739 391.664 367.296 391.91C366.997 392.075 366.697 392.241 366.398 392.412C366.154 392.544 365.911 392.675 365.668 392.801C363.783 393.794 361.89 394.769 359.989 395.725C359.715 395.867 359.44 396.004 359.159 396.141H359.153C358.96 396.244 358.76 396.341 358.56 396.438C358.18 396.633 357.793 396.827 357.412 397.015C356.27 397.581 355.126 398.14 353.98 398.694C353.394 398.98 352.801 399.254 352.208 399.528C351.933 399.653 351.659 399.779 351.391 399.91H351.384C351.285 399.956 351.191 400.002 351.091 400.048C350.28 400.43 349.481 400.824 348.707 401.253C346.463 402.49 344.513 404.127 342.973 406.067C342.673 406.444 342.386 406.832 342.124 407.232C341.781 407.749 341.468 408.282 341.188 408.831C340.995 409.202 340.814 409.573 340.652 409.95V409.956C339.118 413.565 338.903 417.532 340.04 421.263V421.269C340.115 421.526 340.196 421.777 340.29 422.028C340.44 422.451 340.608 422.873 340.795 423.284C341.002 423.743 341.235 424.191 341.494 424.626V424.632C342.883 426.8 344.615 428.767 346.636 430.469L346.698 430.526C346.948 430.748 347.204 430.977 347.453 431.2C347.59 431.319 347.734 431.439 347.884 431.554C350.043 433.25 353.531 434.535 355.503 436.276C356.557 437.207 357.175 438.264 356.932 439.583C356.283 443.084 356.426 445.351 357.088 446.807C358.885 450.782 364.526 448.76 368.388 449.542C368.8 449.44 369.212 449.331 369.617 449.223C378.352 446.947 386.941 444.228 395.344 441.079C397.697 440.2 400.043 439.286 402.364 438.338C402.982 438.087 403.594 437.835 404.211 437.578C404.76 437.35 405.316 437.122 405.865 436.882C406.37 436.67 406.876 436.453 407.381 436.236C407.55 436.168 407.712 436.094 407.88 436.019C408.486 435.757 409.097 435.488 409.702 435.22C409.085 434.118 408.442 433.027 407.799 431.942Z" fill="#E4E4E4"/>
<path d="M362.147 376.499C363.458 372.874 361.655 370.482 357.014 369.213C356.855 369.081 356.663 368.988 356.455 368.942C356.247 368.896 356.03 368.899 355.823 368.95C355.617 369 355.427 369.098 355.272 369.233C355.117 369.368 355.002 369.536 354.937 369.723L350.885 380.711C346.646 379.719 343.538 380.398 342.863 384.235C344.535 380.327 342.962 377.876 338.256 376.83C338.103 376.691 337.914 376.589 337.707 376.534C337.499 376.479 337.28 376.474 337.069 376.517C336.859 376.561 336.664 376.653 336.503 376.784C336.341 376.915 336.219 377.081 336.146 377.268L333.482 387.164C330.236 391.638 328.643 396.946 328.934 402.309C329.226 407.673 331.387 412.81 335.102 416.967C338.816 421.124 343.888 424.083 349.574 425.41C355.26 426.736 361.26 426.361 366.696 424.338C372.132 422.316 376.717 418.753 379.778 414.172C382.84 409.591 384.217 404.232 383.708 398.882C383.2 393.532 380.831 388.472 376.951 384.444C373.071 380.416 367.883 377.631 362.147 376.499Z" fill="#E4E4E4"/>
<path d="M359.567 407.814C359.019 408.082 358.378 408.141 357.783 407.977C357.188 407.813 356.689 407.439 356.395 406.939C356.353 406.867 356.344 406.783 356.37 406.706C356.396 406.628 356.454 406.563 356.532 406.525C356.61 406.486 356.701 406.478 356.786 406.501C356.871 406.525 356.942 406.578 356.985 406.649C357.195 407.006 357.551 407.273 357.976 407.389C358.401 407.506 358.859 407.464 359.249 407.272C359.64 407.08 359.932 406.754 360.06 406.366C360.188 405.978 360.143 405.558 359.934 405.2C359.892 405.129 359.883 405.045 359.909 404.968C359.935 404.89 359.993 404.825 360.071 404.787C360.149 404.748 360.241 404.74 360.325 404.763C360.41 404.786 360.482 404.84 360.524 404.911C360.817 405.412 360.881 405.999 360.701 406.544C360.522 407.088 360.114 407.545 359.567 407.814Z" fill="white"/>
<path d="M357.115 403.309C358.418 402.669 359.256 401.778 358.987 401.32C358.718 400.861 357.444 401.008 356.141 401.648C354.838 402.288 353.999 403.178 354.268 403.637C354.537 404.096 355.812 403.949 357.115 403.309Z" fill="white"/>
<path d="M343.265 404.086C343.442 403.304 343.803 402.567 344.325 401.927C344.847 401.287 345.515 400.759 346.284 400.382C347.053 400.004 347.903 399.786 348.774 399.742C349.645 399.698 350.516 399.829 351.326 400.127C351.733 398.988 351.762 397.763 351.409 396.609C351.056 395.454 350.336 394.421 349.342 393.641C348.347 392.86 347.122 392.367 345.821 392.224C344.521 392.081 343.203 392.294 342.034 392.836C340.866 393.378 339.899 394.226 339.257 395.271C338.615 396.316 338.325 397.511 338.426 398.707C338.526 399.902 339.011 401.044 339.82 401.987C340.629 402.93 341.726 403.632 342.971 404.005C343.068 404.034 343.167 404.061 343.265 404.086Z" fill="white"/>
<path d="M345.243 401.885C346.502 401.885 347.522 400.951 347.522 399.8C347.522 398.648 346.502 397.715 345.243 397.715C343.985 397.715 342.965 398.648 342.965 399.8C342.965 400.951 343.985 401.885 345.243 401.885Z" fill="#3F3D56"/>
<path d="M359.037 396.581C359.213 395.799 359.575 395.062 360.096 394.422C360.618 393.782 361.287 393.255 362.056 392.877C362.824 392.5 363.674 392.281 364.546 392.237C365.417 392.193 366.288 392.325 367.097 392.623C367.505 391.483 367.533 390.259 367.18 389.104C366.827 387.95 366.108 386.917 365.113 386.136C364.119 385.356 362.894 384.863 361.593 384.72C360.292 384.577 358.974 384.79 357.806 385.332C356.637 385.874 355.671 386.721 355.029 387.766C354.386 388.811 354.097 390.007 354.197 391.202C354.297 392.398 354.783 393.539 355.592 394.482C356.401 395.425 357.497 396.128 358.743 396.5C358.84 396.529 358.938 396.556 359.037 396.581Z" fill="white"/>
<path d="M361.853 394.264C363.111 394.264 364.131 393.331 364.131 392.179C364.131 391.027 363.111 390.094 361.853 390.094C360.594 390.094 359.574 391.027 359.574 392.179C359.574 393.331 360.594 394.264 361.853 394.264Z" fill="#3F3D56"/>
<path d="M373.286 392.035L365.506 399.29L366.291 399.995L374.071 392.74L373.286 392.035Z" fill="white"/>
<path d="M375.759 395.545L366.359 400.961L366.946 401.813L376.345 396.398L375.759 395.545Z" fill="white"/>
<path d="M348.817 407.487L337.91 409.409L338.118 410.397L349.025 408.475L348.817 407.487Z" fill="white"/>
<path d="M349.868 409.06L339.74 413.235L340.192 414.153L350.32 409.978L349.868 409.06Z" fill="white"/>
<path d="M28.6742 254.178C7.33969 236.605 -5.57853 208.661 2.36037 183.417C20.2764 206.809 46.6556 223.647 76.8308 230.952C88.4793 233.731 101.751 235.712 108.838 244.617C113.248 250.158 114.272 257.48 113.228 264.268C112.184 271.056 109.266 277.467 106.375 283.791L106.528 285.496C78.3544 280.479 50.0087 271.75 28.6742 254.178Z" fill="#E6E6E6"/>
<path d="M2.95569 183.497C8.37803 204.431 21.1429 223.915 39.0543 237.898C42.9267 240.921 47.1424 243.679 51.8713 245.463C56.4953 247.168 61.534 247.71 66.464 247.031C71.0747 246.482 75.7214 245.432 80.3975 245.919C85.3263 246.431 89.4441 248.959 92.3207 252.598C95.8404 257.051 97.4018 262.396 98.7302 267.672C100.205 273.529 101.636 279.634 105.861 284.421C106.373 285.001 105.36 285.695 104.849 285.115C97.4973 276.787 98.5029 265.258 93.1786 256.055C90.6942 251.76 86.7806 248.125 81.3904 247.223C76.6768 246.434 71.8841 247.513 67.2209 248.105C62.3246 248.728 57.5874 248.577 52.89 247.059C48.0848 245.505 43.7423 242.892 39.8025 239.973C30.9223 233.292 23.2451 225.375 17.0521 216.512C9.92285 206.432 4.73013 195.311 1.69864 183.629C1.51133 182.906 2.76962 182.779 2.95569 183.497Z" fill="white"/>
<path d="M32.9717 233.634C29.9569 236.071 26.0936 237.448 22.0718 237.519C18.05 237.59 14.1316 236.351 11.0163 234.022C10.3877 233.549 11.1617 232.632 11.7911 233.106C14.6877 235.28 18.3379 236.434 22.0828 236.361C25.8278 236.288 29.4208 234.992 32.2134 232.707C32.8209 232.211 33.5757 233.141 32.9717 233.634Z" fill="white"/>
<path d="M64.1677 247.591C64.7495 240.084 62.2183 232.652 57.079 226.778C56.5693 226.196 57.5824 225.503 58.0915 226.084C63.4272 232.206 66.0441 239.945 65.4199 247.755C65.3598 248.5 64.108 248.331 64.1677 247.591Z" fill="white"/>
<path d="M11.5783 206.179C12.9595 205.458 14.1235 204.435 14.9658 203.201C15.8081 201.967 16.3023 200.561 16.4041 199.109C16.4538 198.364 17.7056 198.534 17.6562 199.273C17.5357 200.877 16.9878 202.43 16.0605 203.795C15.1332 205.16 13.8546 206.297 12.3366 207.106C12.2005 207.193 12.0332 207.229 11.8687 207.208C11.7042 207.186 11.555 207.108 11.4511 206.989C11.3514 206.866 11.3088 206.712 11.3326 206.56C11.3564 206.408 11.4447 206.271 11.5783 206.179Z" fill="white"/>
<path d="M91.4574 147.904C91.4409 148.37 91.4243 148.836 91.4162 149.307C91.2285 155.571 91.5973 161.839 92.5187 168.048C92.5816 168.529 92.6533 169.016 92.7312 169.494C95.1254 184.432 100.529 198.833 108.668 211.966C111.911 217.188 115.585 222.178 119.656 226.891C125.278 233.399 131.94 240.047 134.801 247.651C135.109 248.442 135.363 249.249 135.562 250.068L108.79 285.193C108.685 285.245 108.589 285.303 108.484 285.355L107.485 286.802C107.257 286.573 107.025 286.33 106.797 286.1C106.663 285.968 106.536 285.827 106.403 285.694C106.316 285.603 106.23 285.512 106.145 285.435C106.116 285.404 106.088 285.374 106.067 285.349C105.983 285.272 105.914 285.192 105.839 285.12C104.54 283.766 103.25 282.402 101.967 281.028C101.958 281.022 101.958 281.022 101.956 281.009C92.2134 270.512 83.3431 259.179 76.6344 246.973C76.4327 246.606 76.222 246.234 76.0325 245.85C73.0419 240.333 70.549 234.602 68.5786 228.713C67.5111 225.486 66.6227 222.211 65.917 218.901C64.1115 210.346 63.7876 201.584 64.9572 192.936C67.2916 175.698 75.6238 159.335 90.3255 148.706C90.7018 148.434 91.0724 148.17 91.4574 147.904Z" fill="#E6E6E6"/>
<path d="M91.884 148.294C82.4419 167.996 79.8162 190.587 84.9186 211.621C86.0217 216.168 87.5732 220.693 90.1758 224.723C92.7456 228.633 96.4126 231.841 100.796 234.015C104.838 236.118 109.239 237.84 112.652 240.805C116.25 243.93 117.875 248.217 117.778 252.708C117.659 258.203 115.389 263.331 112.98 268.275C110.304 273.765 107.43 279.428 107.654 285.578C107.682 286.324 106.417 286.319 106.389 285.575C105.999 274.874 114.386 266.223 116.189 255.941C117.031 251.143 116.298 246.084 112.587 242.393C109.343 239.166 104.806 237.387 100.693 235.291C96.3743 233.09 92.6909 230.359 89.9391 226.558C87.1243 222.67 85.3762 218.191 84.1509 213.69C81.4555 203.462 80.534 192.911 81.42 182.422C82.3586 170.445 85.5289 158.704 90.7937 147.706C91.1199 147.026 92.208 147.618 91.884 148.294Z" fill="white"/>
<path d="M82.8661 204.864C78.8556 205.148 74.865 204.119 71.6071 201.96C68.3492 199.801 66.036 196.652 65.0807 193.076C64.8901 192.351 66.1108 192.046 66.3016 192.772C67.1845 196.103 69.3395 199.036 72.3778 201.041C75.4161 203.046 79.1374 203.991 82.8702 203.706C83.6815 203.645 83.6727 204.803 82.8661 204.864Z" fill="white"/>
<path d="M98.5929 233.197C103.996 227.523 106.864 220.195 106.625 212.673C106.601 211.927 107.866 211.932 107.89 212.676C108.122 220.505 105.121 228.126 99.4845 234.018C98.9468 234.579 98.0581 233.755 98.5929 233.197Z" fill="white"/>
<path d="M83.8475 171.154C85.4243 171.34 87.0269 171.165 88.5112 170.643C89.9956 170.122 91.3152 169.272 92.3517 168.168C92.8813 167.601 93.7695 168.426 93.2433 168.99C92.0919 170.204 90.6333 171.142 88.9947 171.721C87.3561 172.3 85.5875 172.503 83.8433 172.312C83.6773 172.307 83.5197 172.244 83.4026 172.136C83.2855 172.028 83.2177 171.883 83.2129 171.731C83.2143 171.578 83.2817 171.432 83.4005 171.324C83.5194 171.216 83.68 171.155 83.8475 171.154Z" fill="white"/>
<path d="M336.032 150.246C339.751 131.421 333.571 110.06 316.698 98.7668C317.783 119.547 310.801 140.009 296.989 156.532C291.636 162.886 284.96 169.444 285.22 177.464C285.382 182.454 288.361 187.087 292.27 190.569C296.179 194.051 300.982 196.551 305.729 199.012L306.472 200.056C320.247 185.667 332.313 169.072 336.032 150.246Z" fill="#E6E6E6"/>
<path d="M316.394 99.056C323.544 113.475 325.549 129.59 322.122 145.111C321.449 148.464 320.203 151.7 318.43 154.698C316.599 157.567 313.962 159.936 310.792 161.557C307.87 163.123 304.683 164.415 302.228 166.604C300.99 167.742 300.028 169.106 299.406 170.607C298.784 172.109 298.516 173.714 298.619 175.317C298.763 179.317 300.469 183.032 302.275 186.611C304.28 190.586 306.432 194.684 306.332 199.165C306.32 199.708 307.241 199.694 307.253 199.152C307.427 191.356 301.229 185.129 299.81 177.657C299.147 174.17 299.629 170.48 302.292 167.76C304.622 165.382 307.907 164.047 310.88 162.485C313.997 160.945 316.655 158.729 318.621 156.032C320.556 153.127 321.936 149.941 322.703 146.611C324.56 139.14 325.121 131.448 324.367 123.818C323.56 115.104 321.13 106.582 317.182 98.6186C316.937 98.1258 316.151 98.5664 316.394 99.056Z" fill="white"/>
<path d="M323.546 140.173C326.469 140.345 329.364 139.561 331.714 137.96C334.065 136.36 335.716 134.047 336.375 131.434C336.506 130.905 335.614 130.694 335.483 131.223C334.874 133.657 333.335 135.812 331.144 137.298C328.952 138.785 326.252 139.505 323.531 139.33C322.939 139.292 322.958 140.135 323.546 140.173Z" fill="white"/>
<path d="M312.388 160.941C308.394 156.857 306.23 151.545 306.326 146.065C306.336 145.522 305.415 145.537 305.405 146.079C305.317 151.782 307.581 157.305 311.747 161.547C312.144 161.951 312.783 161.343 312.388 160.941Z" fill="white"/>
<path d="M322.484 115.634C321.337 115.783 320.169 115.669 319.082 115.302C317.996 114.935 317.026 114.327 316.26 113.533C315.868 113.125 315.23 113.733 315.619 114.139C316.47 115.013 317.542 115.683 318.741 116.091C319.941 116.498 321.231 116.631 322.499 116.477C322.62 116.471 322.734 116.424 322.818 116.345C322.902 116.265 322.95 116.159 322.952 116.048C322.949 115.937 322.899 115.831 322.811 115.753C322.723 115.675 322.606 115.632 322.484 115.634Z" fill="white"/>
<path d="M248.094 114.688C248.33 114.95 248.567 115.211 248.801 115.48C251.962 119.009 254.804 122.768 257.3 126.719C257.498 127.022 257.694 127.331 257.882 127.639C263.783 137.216 267.69 147.713 269.405 158.596C270.083 162.927 270.399 167.299 270.352 171.674C270.287 177.716 269.691 184.262 271.75 189.808C271.958 190.389 272.205 190.957 272.489 191.51L305.021 200.805C305.106 200.792 305.19 200.786 305.276 200.773L306.556 201.199C306.576 200.973 306.591 200.739 306.61 200.513C306.622 200.383 306.627 200.25 306.639 200.119C306.645 200.031 306.65 199.943 306.661 199.864C306.663 199.835 306.664 199.806 306.664 199.783C306.675 199.704 306.675 199.63 306.684 199.558C306.772 198.249 306.85 196.937 306.919 195.622C306.921 195.615 306.921 195.615 306.916 195.606C307.41 185.586 306.993 175.44 304.908 165.675C304.845 165.381 304.785 165.081 304.707 164.783C303.74 160.386 302.382 156.069 300.647 151.874C299.689 149.58 298.604 147.332 297.397 145.138C294.268 139.476 290.184 134.299 285.297 129.798C275.552 120.826 262.781 114.807 249.136 114.688C248.787 114.685 248.445 114.685 248.094 114.688Z" fill="#E6E6E6"/>
<path d="M248.038 115.087C263.233 122.66 275.435 134.422 282.91 148.703C284.578 151.751 285.712 155.021 286.268 158.392C286.694 161.692 286.146 165.037 284.682 168.077C283.38 170.938 281.685 173.726 281.165 176.826C280.924 178.417 281.054 180.036 281.545 181.577C282.036 183.119 282.878 184.548 284.015 185.771C286.761 188.886 290.567 190.912 294.364 192.775C298.579 194.843 302.994 196.931 305.862 200.563C306.21 201.003 306.935 200.484 306.588 200.045C301.599 193.724 292.554 192.167 286.505 186.984C283.682 184.565 281.639 181.353 281.977 177.714C282.272 174.532 284.017 171.655 285.363 168.77C286.839 165.822 287.503 162.589 287.299 159.353C286.932 155.966 285.938 152.662 284.36 149.581C280.928 142.593 276.316 136.142 270.694 130.465C264.317 123.953 256.77 118.487 248.379 114.304C247.86 114.045 247.522 114.83 248.038 115.087Z" fill="white"/>
<path d="M280.799 143.975C283.247 142.502 285.043 140.281 285.866 137.708C286.69 135.135 286.487 132.378 285.294 129.929C285.051 129.434 284.2 129.757 284.443 130.252C285.558 132.531 285.747 135.099 284.975 137.493C284.203 139.888 282.521 141.951 280.233 143.31C279.736 143.606 280.305 144.269 280.799 143.975Z" fill="white"/>
<path d="M285.553 166.707C279.677 165.646 274.455 162.597 270.926 158.169C270.577 157.73 269.851 158.249 270.2 158.688C273.881 163.289 279.323 166.452 285.44 167.543C286.023 167.647 286.132 166.81 285.553 166.707Z" fill="white"/>
<path d="M263.807 124.968C262.99 125.719 261.982 126.272 260.873 126.577C259.765 126.883 258.59 126.932 257.456 126.72C256.875 126.61 256.765 127.447 257.343 127.557C258.598 127.786 259.894 127.73 261.12 127.395C262.345 127.06 263.463 126.455 264.374 125.633C264.467 125.562 264.527 125.461 264.542 125.351C264.557 125.242 264.525 125.131 264.454 125.041C264.378 124.953 264.268 124.897 264.147 124.883C264.026 124.869 263.904 124.9 263.807 124.968Z" fill="white"/>
<path d="M81.9137 215.875C86.4176 215.875 90.7369 217.513 93.9216 220.427C97.1063 223.342 98.8954 227.295 98.8955 231.417C98.8948 235.022 97.5249 238.515 95.0202 241.298C92.5156 244.08 89.0319 245.98 85.1656 246.671V272.089H74.3262V215.875H81.9137Z" fill="#3F3D56"/>
<path d="M497.875 364.776V370.098C495.41 372.982 492.871 375.809 490.256 378.579C489.975 378.882 489.688 379.178 489.395 379.481C488.952 379.955 488.497 380.423 488.041 380.892V364.776H497.875Z" fill="#CACACA"/>
<path d="M469.022 353.674C466.848 353.677 464.764 354.468 463.227 355.875C461.689 357.281 460.825 359.189 460.822 361.178V371.977C460.825 373.967 461.689 375.874 463.227 377.281C464.764 378.687 466.848 379.479 469.022 379.481H489.395C489.688 379.178 489.975 378.881 490.256 378.579C492.87 375.809 495.41 372.982 497.875 370.098C498.037 369.91 498.199 369.721 498.355 369.533C499.766 367.883 501.151 366.204 502.511 364.513C503.572 363.188 504.626 361.852 505.656 360.504C505.662 360.499 505.668 360.499 505.668 360.493C507.391 358.254 509.069 355.981 510.704 353.674H469.022Z" fill="#3F3D56"/>
<path d="M521.48 261.241C520.228 260.845 518.911 260.644 517.586 260.647H514.236C513.015 260.647 511.802 260.815 510.635 261.143C508.175 261.851 506.025 263.258 504.498 265.16C502.971 267.062 502.146 269.36 502.143 271.72V361.806C502.143 362.143 502.161 362.475 502.193 362.8C502.247 363.378 502.353 363.951 502.511 364.513C503.572 363.188 504.626 361.852 505.656 360.504C505.662 360.499 505.668 360.499 505.668 360.493C507.39 358.254 509.069 355.981 510.704 353.674C511.584 352.435 512.457 351.184 513.312 349.928C519.489 340.858 524.961 331.4 529.686 321.626V271.72C529.683 269.408 528.89 267.155 527.419 265.276C525.948 263.397 523.871 261.986 521.48 261.241Z" fill="#3F3D56"/>
<path d="M108.486 364.776V375.529C105.678 372.457 102.964 369.316 100.343 366.107C99.9809 365.667 99.6252 365.221 99.2695 364.776H108.486Z" fill="#CACACA"/>
<path d="M127.506 353.674H90.8594C92.0138 355.302 93.1889 356.91 94.3849 358.5C95.9699 360.619 97.5985 362.711 99.2708 364.776C99.6264 365.221 99.9821 365.667 100.344 366.107C102.971 369.316 105.685 372.457 108.487 375.529C109.011 376.112 109.542 376.689 110.078 377.265C110.765 378.008 111.461 378.746 112.169 379.481H127.506C129.679 379.479 131.763 378.687 133.299 377.28C134.835 375.873 135.698 373.966 135.699 371.977V361.178C135.698 359.189 134.835 357.282 133.299 355.875C131.763 354.468 129.679 353.677 127.506 353.674Z" fill="#3F3D56"/>
<path d="M87.8765 261.897C86.1489 261.077 84.2316 260.649 82.2856 260.647H78.941C77.3584 260.645 75.791 260.93 74.3297 261.486C72.1158 262.323 70.2227 263.742 68.8899 265.564C67.5571 267.385 66.8444 269.528 66.8418 271.72V310.421C73.1422 325.58 81.1937 340.08 90.8592 353.674C92.0136 355.302 93.1887 356.91 94.3847 358.5V271.72C94.3831 269.695 93.7757 267.709 92.6284 265.977C91.4811 264.246 89.8377 262.835 87.8765 261.897Z" fill="#3F3D56"/>
<path d="M224.195 429.155L235.187 426.846L230.691 386.944L214.467 390.351L224.195 429.155Z" fill="#9E616A"/>
<path d="M234.195 394.535C233.97 393.832 233.817 393.111 233.739 392.382C233.648 391.52 233.464 390.669 233.19 389.84C232.878 389.087 232.492 388.36 232.036 387.67C231.818 387.305 231.587 386.939 231.381 386.568C231.173 386.197 230.994 385.814 230.844 385.42C224.411 368.031 215.432 344.4 209.204 330.569C205.541 322.431 183.015 319.724 161.762 319.033C159.173 318.947 156.602 318.89 154.087 318.862C153.22 318.85 152.359 318.839 151.504 318.833C149.32 318.822 147.192 318.822 145.145 318.845C144.877 318.845 144.609 318.845 144.34 318.85C142.849 318.862 141.403 318.881 140.004 318.907C130.382 319.079 123.312 319.479 122.051 319.553L110.826 313.094L108.636 311.832L108.405 313.094L106.639 322.722L103.625 339.152L111.182 341.094L116.086 342.35L145.145 349.808L151.323 351.396L151.36 351.407L161.762 351.39L190.204 351.344L191.576 354.674C191.083 355.374 190.759 356.163 190.625 356.987C190.491 357.811 190.55 358.652 190.799 359.454C191.047 360.256 191.479 361 192.066 361.637C192.653 362.274 193.382 362.789 194.203 363.148L195.27 363.611L208.268 395.089C208.308 397.936 209.28 400.707 211.057 403.044C211.276 403.335 211.513 403.62 211.762 403.9L212.05 404.214L217.048 413.163L220.024 412.535L232.691 409.879L232.754 409.765C232.76 409.748 232.922 409.434 233.159 408.886V408.869C234.151 406.601 236.348 400.405 234.195 394.535Z" fill="#2F2E41"/>
<path d="M265.077 431.808C264.604 429.89 263.721 428.077 262.478 426.472C261.236 424.867 259.659 423.504 257.839 422.459C256.018 421.414 253.99 420.71 251.871 420.386C249.751 420.061 247.583 420.124 245.49 420.57L236.71 416.944L234.252 418.525L224.056 425.07L223.214 425.247L220.48 425.818L224.256 440.877L265.202 432.283L265.077 431.808Z" fill="#2F2E41"/>
<path d="M210.765 408.589L207.052 436.137L206.927 437.039L206.378 441.145C204.238 440.346 202.104 439.518 199.995 438.667C198.023 437.873 196.066 437.055 194.123 436.211V408.594L210.765 408.589Z" fill="#9E616A"/>
<path d="M130.199 219.202C142.63 219.202 152.708 209.979 152.708 198.602C152.708 187.225 142.63 178.002 130.199 178.002C117.767 178.002 107.689 187.225 107.689 198.602C107.689 209.979 117.767 219.202 130.199 219.202Z" fill="#9E616A"/>
<path d="M213.154 419.102C212.53 418.32 211.881 417.503 211.843 416.721C211.7 413.962 211.55 411.233 211.394 408.56C211.282 406.693 211.17 404.848 211.057 403.044C211.045 402.815 211.026 402.587 211.014 402.364C210.82 399.377 211.787 396.225 212.717 393.17C213.023 392.17 213.329 391.16 213.603 390.149C214.29 387.896 214.578 385.558 214.458 383.222C212.861 364.725 205.722 347.33 202.521 344.4C197.654 339.946 175.646 329.655 161.762 323.396C159.297 322.283 157.088 321.3 155.279 320.501C153.675 319.787 152.383 319.222 151.504 318.833C150.83 318.542 150.393 318.354 150.243 318.285L150.168 318.251L145.145 318.765L144.34 318.85L139.91 319.307L111.088 322.265L106.639 322.722L100.343 323.373L94.6581 323.956L94.4459 323.973L94.4085 324.167C94.4085 324.173 94.396 324.213 94.3835 324.287C93.406 329.932 93.406 335.683 94.3835 341.328C95.1198 345.16 96.5113 349.054 98.9823 352.332C99.3193 352.778 99.6687 353.206 100.043 353.617C100.056 353.639 100.073 353.658 100.093 353.674C100.174 353.766 100.255 353.857 100.343 353.948V353.954C103.169 356.963 106.963 359.076 111.181 359.99C111.805 360.145 112.442 360.27 113.097 360.373C120.079 361.504 127.967 362.543 135.698 363.457C138.899 363.834 142.075 364.188 145.145 364.519C151.291 365.181 157.032 365.741 161.762 366.187C168.389 366.803 173.044 367.186 174.08 367.266L185.655 416.686C184.746 418.092 184.384 419.738 184.626 421.357C184.869 422.975 185.702 424.471 186.99 425.601L187.938 426.44L189.037 431.146L192.656 435.578L193.111 436.137H209.079L209.167 436.04C209.223 435.972 214.839 429.37 214.458 421.506C214.421 420.695 213.803 419.924 213.154 419.102Z" fill="#2F2E41"/>
<path d="M212.718 253.471C211.509 253.169 210.242 253.112 209.007 253.306C207.771 253.501 206.597 253.94 205.567 254.594C204.538 255.249 203.677 256.101 203.047 257.093C202.416 258.085 202.03 259.19 201.917 260.333L183.215 265.683L183.995 276.877L210.291 268.983C212.401 269.03 214.456 268.366 216.067 267.119C217.678 265.871 218.734 264.126 219.033 262.214C219.332 260.302 218.855 258.356 217.691 256.744C216.527 255.133 214.758 253.968 212.718 253.471Z" fill="#9E616A"/>
<path d="M200.515 271.996L186.537 276.838L186.18 277.472C185.755 278.226 185.173 278.895 184.466 279.443C183.759 279.99 182.941 280.404 182.059 280.663C181.177 280.921 180.248 281.017 179.325 280.947C178.402 280.876 177.503 280.64 176.68 280.252L145.262 291.135C145.262 291.135 131.232 278.285 121.242 266.817L124.647 247.652C125.435 243.206 127.111 238.93 129.591 235.038C150.077 239.15 161.837 265.359 161.837 265.359L198.759 258.912L200.515 271.996Z" fill="#1E3A8A"/>
<path d="M127 218.101C121.365 219.494 115.152 217.642 110.755 214.13C106.357 210.617 103.606 205.64 102.021 200.498C100.86 196.733 100.31 192.553 102.141 189.018C103.973 185.483 108.904 183.098 112.707 184.884C110.361 182.382 111.533 178.243 114.274 176.103C117.014 173.963 120.778 173.349 124.362 173.014C129.563 172.527 134.936 172.472 139.886 174.014C144.835 175.557 149.333 178.928 150.882 183.499C152.464 184.173 154.246 184.348 155.948 183.996C157.65 183.644 159.177 182.786 160.289 181.555C160.576 182.969 160.346 184.429 159.634 185.711C158.922 186.993 157.769 188.025 156.352 188.646L163.936 186.396C165.24 188.922 162.955 192.049 160.032 192.859C157.11 193.668 153.955 192.783 151.182 191.614C148.409 190.445 145.721 188.968 142.709 188.512C139.696 188.056 136.158 188.942 134.764 191.428C134.034 192.73 133.996 194.256 133.573 195.667C133.149 197.078 132.076 198.541 130.481 198.657C129.474 198.73 128.488 198.239 127.484 198.339C126.867 198.45 126.3 198.723 125.85 199.125C125.401 199.527 125.089 200.04 124.954 200.601C124.704 201.728 124.701 202.889 124.945 204.016L126.871 217.493L127 218.101Z" fill="#2F2E41"/>
<path d="M155.278 320.501L154.087 318.862L145.388 306.921L145.213 306.686L147.903 293.917L148.739 289.931L150.567 281.257L150.037 261.4L149.656 247.352L149.6 245.148L147.672 239.768C146.758 237.253 145.289 234.935 143.358 232.96C141.426 230.985 139.071 229.393 136.44 228.284L123.461 222.847C121.934 222.211 120.193 222.156 118.621 222.694C117.049 223.233 115.776 224.321 115.08 225.719C115.022 225.835 114.968 225.954 114.919 226.074C113.14 226.297 105.422 227.484 98.876 232.133C94.2904 235.326 91.0892 239.903 89.8406 245.051C89.8281 245.091 89.8219 245.131 89.8094 245.171C88.9421 248.717 88.2931 254.313 87.875 261.897C87.5942 266.911 87.4174 272.786 87.3446 279.521C87.2282 290.747 87.9182 301.968 89.4101 313.111C89.5536 314.173 89.7033 315.23 89.8593 316.292C89.9904 317.183 90.9263 318.034 91.8311 318.85C92.661 319.598 93.5159 320.375 93.6345 321.077C93.7406 321.694 93.31 322.34 92.7983 323.013C92.7359 323.099 92.6673 323.185 92.6049 323.27C91.9684 324.098 91.3132 324.961 91.4817 325.869C91.8748 327.913 92.1057 329.992 92.3241 332.002C92.568 334.77 93.0057 337.52 93.6345 340.237C93.8529 341.071 94.1025 341.91 94.3833 342.75C95.0384 344.72 95.8309 346.684 96.6047 348.603C97.2723 350.271 97.965 351.984 98.5515 353.674C98.6638 353.988 98.7699 354.297 98.8697 354.605L98.9197 354.765L99.1006 354.794H99.1131C99.3589 354.392 99.6518 354.017 99.9867 353.674C100.002 353.653 100.021 353.633 100.043 353.617C100.13 353.52 100.23 353.417 100.342 353.309C101.709 351.944 104.679 349.494 111.181 345.365C112.635 344.446 114.264 343.446 116.086 342.35C122.769 338.347 132.103 333.133 145.145 326.4C148.415 324.71 151.923 322.922 155.672 321.037L155.278 320.501Z" fill="#1E3A8A"/>
<path d="M225.272 446.125C223.756 444.732 221.954 443.628 219.97 442.876C217.985 442.125 215.857 441.74 213.709 441.745L206.927 437.039L206.034 436.417L199.994 438.667C202.103 439.518 204.237 440.346 206.378 441.145C213.073 443.647 219.91 445.882 226.888 447.85C226.398 447.239 225.857 446.662 225.272 446.125Z" fill="#2F2E41"/>
<path d="M375.923 428.766L367.428 425.047L379.097 392.55L391.635 398.038L375.923 428.766Z" fill="#FFB6B6"/>
<path d="M432.873 423.528C430.402 424.938 427.9 426.309 425.367 427.64V427.657L425.329 427.662L425.317 427.668L424.356 427.885L422.977 424.55L419.795 416.858L411.121 395.899L424.606 392.856L425.367 395.682L431.07 416.852L432.705 422.905L432.873 423.528Z" fill="#FFB6B6"/>
<path d="M398.482 287.52C399.693 289.321 401.626 290.617 403.868 291.132C406.109 291.647 408.482 291.339 410.479 290.275C410.88 290.053 411.261 289.8 411.617 289.52L438.474 303.625L437.308 289.146L411.983 277.971C410.605 276.704 408.806 275.892 406.869 275.661C404.932 275.43 402.967 275.794 401.28 276.695C399.349 277.756 397.958 279.475 397.413 281.475C396.868 283.474 397.212 285.59 398.372 287.357C398.408 287.412 398.444 287.466 398.482 287.52Z" fill="#FFB6B6"/>
<path d="M426.928 298.314L431.675 300.962L452.996 312.861C454.396 313.662 455.954 314.203 457.582 314.454C459.211 314.704 460.877 314.658 462.485 314.319C464.094 313.98 465.614 313.354 466.959 312.478C468.304 311.601 469.446 310.491 470.322 309.21L470.329 309.2C471.908 306.819 472.466 303.988 471.897 301.252L462.42 257.923C462.07 256.222 461.323 254.611 460.23 253.198C459.136 251.786 457.723 250.607 456.085 249.74C454.448 248.874 452.626 248.342 450.743 248.179C448.86 248.017 446.961 248.229 445.175 248.8C442.175 249.765 439.688 251.74 438.222 254.323C436.756 256.907 436.421 259.904 437.284 262.706L447.193 293.456L432.004 286.975L426.928 298.314Z" fill="#1E3A8A"/>
<path d="M514.355 341.037C514.348 341.019 514.336 340.957 514.317 340.859L514.298 340.797C514.255 340.591 514.205 340.363 514.149 340.111C512.875 334.325 511.24 328.611 509.25 322.996C508.072 319.558 506.51 316.24 504.589 313.094C504.527 312.991 504.458 312.888 504.389 312.786L504.159 312.443L502.218 313.094L502.143 313.117L472.641 323.013L464.111 325.875L463.843 325.966L462.389 331.391L441.99 328.975L425.367 327.005L420.594 326.44C418.524 326.193 416.422 326.325 414.409 326.829C412.396 327.333 410.513 328.199 408.869 329.375C407.154 330.592 405.72 332.11 404.652 333.84C403.584 335.569 402.902 337.476 402.648 339.449C402.585 339.883 402.548 340.323 402.529 340.757L401.088 389.966V390.029L401.756 391.251L415.702 416.858H425.367L431.071 416.852H435.707L426.066 394.529L426.285 394.226C427.192 392.954 427.764 391.506 427.955 389.996C428.147 388.487 427.953 386.958 427.389 385.529L428.475 382.651C430.727 376.706 429.66 373.85 428.313 370.241C427.102 367.306 426.391 364.219 426.203 361.087L425.979 357.015C431.638 357.923 436.911 358.934 441.99 359.95C443.688 360.287 445.368 360.628 447.032 360.973C451.768 361.938 456.342 362.869 460.822 363.645C469.895 365.227 478.587 366.192 487.517 365.593C487.691 365.581 487.866 365.57 488.041 365.553C490.212 365.393 492.396 365.136 494.605 364.776C495.847 364.57 497.095 364.336 498.355 364.062C498.705 363.982 499.061 363.902 499.41 363.822C500.38 363.588 501.315 363.245 502.193 362.8C503.442 362.162 504.604 361.391 505.656 360.504C505.662 360.499 505.669 360.499 505.669 360.493C507.391 358.254 509.069 355.981 510.704 353.674C511.584 352.435 512.458 351.184 513.313 349.928C514.56 346.793 515.035 343.629 514.355 341.037Z" fill="#2F2E41"/>
<path d="M514.56 331.791C514.466 331.425 514.348 331.054 514.223 330.694C513.232 327.969 512.078 325.297 510.766 322.688C509.294 319.718 507.528 316.538 505.425 313.094C504.408 311.426 503.314 309.692 502.143 307.891C501.556 306.989 500.947 306.07 500.314 305.133C500.29 305.09 500.263 305.048 500.233 305.008L500.052 304.733L470.862 308.308L459.992 309.639L459.343 314.596L459.187 315.824C459.181 315.824 459.181 315.824 459.187 315.829L458.75 319.176V319.182L458.17 323.602L458.12 323.596L441.99 321.683L425.367 319.713L416.438 318.656C414.368 318.409 412.266 318.542 410.253 319.046C408.24 319.55 406.357 320.415 404.713 321.591C402.997 322.809 401.564 324.326 400.496 326.056C399.427 327.785 398.746 329.692 398.492 331.665C398.435 332.065 398.398 332.476 398.379 332.882L389.955 351.15C384.915 362.076 381.704 373.635 380.433 385.437L374.256 403.512L375.136 403.586L388.227 404.7L391.684 404.997L399.297 394.826C400.164 393.667 400.988 392.473 401.755 391.251C403.019 389.255 404.142 387.187 405.118 385.06L421.585 349.197C422.858 349.397 424.119 349.587 425.367 349.768C431.139 350.625 436.68 351.323 441.99 351.864C459.256 353.629 474.207 353.766 487.516 352.27C491.254 351.853 494.867 351.304 498.355 350.625C499.634 350.379 500.897 350.115 502.143 349.831C502.436 349.768 502.723 349.705 503.01 349.637C505.589 349.028 507.96 347.837 509.906 346.173C511.851 344.509 513.31 342.425 514.148 340.111C515.149 337.43 515.292 334.544 514.56 331.791Z" fill="#2F2E41"/>
<path d="M452.488 223.933C463.64 223.933 472.68 215.475 472.68 205.042C472.68 194.609 463.64 186.151 452.488 186.151C441.337 186.151 432.297 194.609 432.297 205.042C432.297 215.475 441.337 223.933 452.488 223.933Z" fill="#FFB6B6"/>
<path d="M500.434 305.767C500.402 305.556 500.365 305.344 500.315 305.133C499.835 302.815 498.587 300.542 497.382 298.337C496.234 296.236 495.142 294.249 494.693 292.273C494.25 290.325 494.512 288.372 494.768 286.488C495.042 284.443 495.329 282.33 494.687 280.28C491.427 269.81 486.95 259.69 481.333 250.093C479.916 245.873 477.199 242.117 473.508 239.275C469.817 236.433 465.309 234.625 460.523 234.069C461.082 233.114 461.314 232.028 461.191 230.951C461.113 230.255 460.884 229.58 460.519 228.965C460.154 228.351 459.659 227.809 459.063 227.37C458.491 226.948 457.833 226.634 457.127 226.446C456.421 226.258 455.682 226.199 454.951 226.274L445.566 227.239C444.062 227.412 442.692 228.121 441.756 229.213C440.82 230.305 440.393 231.691 440.568 233.07C440.621 233.494 440.725 233.912 440.88 234.315C432.169 244.468 427.695 253.72 427.283 262.468V262.474C427.233 263.485 427.24 264.497 427.302 265.506C427.499 268.773 428.275 271.988 429.598 275.026C431.161 278.537 433.253 281.829 435.813 284.809C436.337 285.414 436.88 286.008 437.442 286.59C437.966 287.162 438.553 287.761 439.201 288.389L440.843 290.742L442.371 292.941L450.546 310.204L454.708 310.079L455.288 313.876L455.425 314.761L458.121 323.596L458.321 324.258L462.008 322.654L484.01 313.094L500.459 305.944L500.434 305.767Z" fill="#1E3A8A"/>
<path opacity="0.2" d="M429.846 274.935C431.722 279.14 434.359 283.026 437.647 286.429C438.21 287.045 438.804 287.649 439.427 288.255L442.621 292.841C454.395 284.764 463.935 252.962 463.935 252.962L450.65 250.597L429.846 274.935Z" fill="black"/>
<path d="M421.803 225.698C422.966 227.526 423.304 229.698 422.744 231.751C422.184 233.805 420.771 235.577 418.805 236.691C418.402 236.912 417.979 237.101 417.541 237.258L418.482 265.585L405.078 257.863L406.24 232.147C405.67 230.436 405.734 228.6 406.424 226.926C407.114 225.252 408.39 223.834 410.053 222.893C411.975 221.829 414.28 221.507 416.462 221.999C418.643 222.49 420.522 223.755 421.685 225.514C421.725 225.575 421.764 225.636 421.803 225.698Z" fill="#FFB6B6"/>
<path d="M419.66 254.893L404.92 256.811L405.554 284.747C405.59 286.74 406.183 288.691 407.276 290.415C408.369 292.139 409.925 293.579 411.798 294.597C414.085 295.829 416.747 296.346 419.384 296.073C422.02 295.799 424.488 294.748 426.415 293.078L461.215 262.444C463.663 260.319 465.129 257.415 465.31 254.331C465.491 251.246 464.373 248.216 462.187 245.863C460.046 243.542 456.984 242.096 453.677 241.841C450.37 241.587 447.088 242.545 444.553 244.505C444.454 244.582 444.356 244.66 444.259 244.739C443.915 245.021 443.588 245.319 443.279 245.632L420.301 269.825L419.66 254.893Z" fill="#1E3A8A"/>
<path d="M433.248 422.814L432.706 422.905L425.367 424.145L422.978 424.55L419.215 425.184L420.55 430.112C422.154 429.319 423.739 428.502 425.317 427.668L425.33 427.662L425.367 427.657V427.64C427.901 426.315 430.403 424.944 432.874 423.528C433.049 423.431 433.223 423.334 433.398 423.225L433.248 422.814Z" fill="#2F2E41"/>
<path d="M378.636 423.459L369.444 419.428L368.003 418.794L365.7 423.968L349.626 427.206C348.832 427.365 348.113 427.753 347.577 428.313C347.04 428.872 346.713 429.574 346.643 430.316C346.573 431.058 346.765 431.801 347.189 432.436C347.614 433.072 348.249 433.566 349.002 433.847L364.708 439.712L369.694 435.606L368.471 441.117L374.386 443.327L380.869 424.442L378.636 423.459Z" fill="#2F2E41"/>
<path d="M506.52 196.849C503.088 193.186 501.456 188.326 498.712 184.167C495.968 180.007 491.194 176.285 486.15 177.253C482.673 177.92 479.985 180.728 478.625 183.858C477.265 186.989 477.01 190.442 476.771 193.824C476.856 186.873 471.852 180.135 464.959 177.917C458.067 175.699 449.819 178.173 445.488 183.757C443.598 182.154 441.131 181.241 438.554 181.192C435.978 181.142 433.471 181.959 431.509 183.489C427.636 186.657 426.778 192.689 429.627 196.73C432.476 200.772 438.646 202.278 443.174 200.036L444.774 201.384C443.873 204.268 445.621 207.674 448.558 208.76C450.94 209.64 454.302 209.494 455.193 211.781C455.816 213.38 454.652 215.086 453.414 216.314C452.175 217.542 450.705 218.81 450.557 220.51C450.332 223.074 453.227 224.871 455.86 225.412C462.207 226.716 469.249 224.026 472.907 218.9C472.977 218.801 473.054 218.702 473.137 218.603C475.189 216.201 476.685 213.441 477.533 210.492C478.38 207.543 478.562 204.467 478.067 201.452C477.861 200.267 478.068 199.386 478.961 199.105C482.819 197.893 493.627 200.438 496.898 202.738C500.17 205.039 502.789 208.083 505.94 210.532C509.091 212.981 513.106 214.87 517.107 214.203C520.311 213.669 523.037 211.54 524.871 208.972C526.704 206.404 527.759 203.411 528.704 200.436C521.619 204.182 511.922 202.614 506.52 196.849Z" fill="#2F2E41"/>
<path d="M441.988 309.454V418.072C439.729 419.494 437.441 420.878 435.124 422.224V316.655C435.124 313.594 434.001 311.11 432.622 311.104H328.734C327.348 311.11 326.231 313.594 326.225 316.655V456.831C324.84 456.956 323.455 457.076 322.069 457.179C321.495 457.225 320.915 457.265 320.341 457.305C320.01 456.745 319.686 456.179 319.361 455.608V309.454C319.361 308.609 319.399 307.758 319.461 306.918C320.023 299.791 322.812 294.583 326.075 294.572H435.274C435.669 294.574 436.06 294.65 436.422 294.794C439.155 295.857 441.314 300.517 441.857 306.541C441.944 307.501 441.994 308.477 441.988 309.454Z" fill="#E4E4E4"/>
<path d="M275.301 309.454V456.397C275.207 456.534 275.113 456.665 275.02 456.802C272.674 456.585 270.338 456.336 268.012 456.054V316.655C268.012 313.594 266.821 311.11 265.354 311.104H155.089C153.623 311.11 152.431 313.594 152.431 316.655V413.429C149.966 411.767 147.537 410.064 145.143 408.318V309.454C145.143 308.609 145.18 307.758 145.249 306.918C145.841 299.791 148.805 294.583 152.275 294.572H268.168C268.586 294.573 268.999 294.648 269.385 294.794C272.287 295.857 274.583 300.517 275.163 306.541C275.257 307.501 275.301 308.477 275.301 309.454Z" fill="#E4E4E4"/>
<path d="M238.348 260.621L245.574 289.72L250.192 294.349H253.523L239.793 241.442L239.114 250.43V250.436L238.348 260.621Z" fill="#3F3D56"/>
<path d="M262.412 295.836C262.391 295.791 262.364 295.749 262.331 295.711C262.264 295.573 262.169 295.449 262.05 295.345L261.207 294.574L256.777 290.514C256.452 290.223 256.015 290.059 255.56 290.057H255.542L252.415 290.074L249.726 290.091L245.97 290.114L220.386 290.262L203.569 290.36C203.114 290.365 202.679 290.533 202.358 290.829C202.037 291.125 201.856 291.525 201.854 291.941C201.856 292.172 201.911 292.4 202.016 292.61L202.34 293.243L203.02 294.574L203.906 296.316L204.343 297.172C204.483 297.445 204.704 297.676 204.981 297.838C205.259 298 205.581 298.086 205.909 298.086H260.827C261.116 298.081 261.399 298.011 261.651 297.882C261.904 297.753 262.118 297.57 262.274 297.348C262.431 297.125 262.525 296.871 262.549 296.608C262.573 296.344 262.526 296.079 262.412 295.836Z" fill="#3F3D56"/>
<path opacity="0.17" d="M203.908 296.314L204.342 297.174C204.483 297.446 204.705 297.676 204.982 297.837C205.26 297.999 205.581 298.085 205.91 298.087H260.829C261.118 298.082 261.401 298.012 261.654 297.884C261.906 297.755 262.12 297.571 262.276 297.349C262.433 297.127 262.527 296.873 262.551 296.609C262.574 296.346 262.527 296.081 262.412 295.838C262.393 295.793 262.366 295.751 262.332 295.713L203.908 296.314Z" fill="black"/>
<path opacity="0.17" d="M239.115 250.43V250.436L250.872 294.349H253.524L239.795 241.442L239.115 250.43Z" fill="black"/>
<path d="M257.558 127.541L255.836 127.33C255.363 127.273 254.885 127.39 254.507 127.655L253.477 128.381L242.014 141.504C241.636 141.772 241.389 142.166 241.328 142.6L240.685 147.066L224.686 258.477C224.629 258.889 224.743 259.307 225.004 259.647L232.542 278.664L232.767 278.961L233.254 279.595C233.504 279.917 233.871 280.147 234.289 280.246L235.381 280.497C235.63 280.554 235.888 280.562 236.14 280.521C236.391 280.479 236.631 280.39 236.842 280.257C237.053 280.127 237.232 279.957 237.366 279.758C237.499 279.559 237.584 279.336 237.615 279.104L239.568 265.524V265.518L240.816 256.803L241.871 249.454V249.448L259.118 129.391C259.18 128.958 259.052 128.52 258.761 128.173C258.47 127.826 258.041 127.599 257.567 127.542L257.558 127.541Z" fill="#3F3D56"/>
<path opacity="0.17" d="M253.474 128.381L232.541 278.666L232.768 278.961L233.253 279.593C233.504 279.915 233.871 280.146 234.29 280.244L235.383 280.496C235.631 280.552 235.888 280.56 236.139 280.518C236.39 280.477 236.629 280.388 236.84 280.257C237.051 280.125 237.229 279.955 237.363 279.756C237.496 279.557 237.583 279.335 237.617 279.104L259.116 129.393C259.178 128.958 259.049 128.519 258.758 128.171C258.466 127.823 258.035 127.596 257.56 127.538L255.834 127.331C255.599 127.302 255.361 127.316 255.133 127.372C254.905 127.428 254.691 127.525 254.504 127.658L253.474 128.381Z" fill="black"/>
<path d="M252.857 132.679L241.749 147.19L228.545 239.134L235.703 252.131L252.857 132.679Z" fill="#1E3A8A"/>
<path d="M361.068 260.621L353.842 289.72L349.224 294.349H345.893L359.623 241.442L360.302 250.43V250.436L361.068 260.621Z" fill="#3F3D56"/>
<path d="M395.845 290.36L353.451 290.114L349.689 290.091L347.006 290.074L343.879 290.057H343.854C343.401 290.058 342.966 290.222 342.644 290.514L337.365 295.345C337.248 295.45 337.153 295.574 337.084 295.711C337.051 295.749 337.024 295.791 337.003 295.836C336.889 296.079 336.841 296.344 336.865 296.608C336.889 296.871 336.984 297.125 337.14 297.348C337.297 297.57 337.511 297.753 337.763 297.882C338.016 298.011 338.299 298.081 338.588 298.086H393.505C393.835 298.085 394.157 297.999 394.436 297.837C394.714 297.675 394.936 297.445 395.078 297.172L395.508 296.316L396.394 294.574L397.399 292.61C397.506 292.401 397.562 292.172 397.561 291.941C397.559 291.525 397.378 291.125 397.057 290.829C396.736 290.533 396.301 290.365 395.845 290.36Z" fill="#3F3D56"/>
<path opacity="0.17" d="M395.51 296.314L395.076 297.174C394.935 297.446 394.713 297.676 394.436 297.837C394.158 297.999 393.837 298.085 393.508 298.087H338.588C338.3 298.082 338.016 298.012 337.764 297.884C337.512 297.755 337.298 297.571 337.142 297.349C336.985 297.127 336.891 296.873 336.867 296.609C336.844 296.346 336.891 296.081 337.006 295.838C337.025 295.793 337.052 295.751 337.085 295.713L395.51 296.314Z" fill="black"/>
<path opacity="0.17" d="M360.302 250.43V250.436L348.545 294.349H345.893L359.623 241.442L360.302 250.43Z" fill="black"/>
<path d="M374.73 258.477L358.088 142.6C358.027 142.166 357.78 141.772 357.402 141.504L345.945 128.381L344.916 127.655C344.534 127.391 344.055 127.274 343.58 127.33L341.858 127.541C341.383 127.597 340.952 127.824 340.659 128.171C340.367 128.518 340.237 128.957 340.298 129.391L357.545 249.454V249.459L358.6 256.803L359.854 265.524V265.535L361.801 279.104C361.832 279.336 361.918 279.56 362.052 279.759C362.187 279.958 362.367 280.128 362.581 280.257C362.791 280.389 363.029 280.479 363.279 280.521C363.53 280.562 363.788 280.554 364.035 280.497L365.127 280.246C365.545 280.147 365.912 279.917 366.162 279.595L366.649 278.961L366.874 278.664L374.412 259.647C374.676 259.308 374.79 258.89 374.73 258.477Z" fill="#3F3D56"/>
<path opacity="0.17" d="M345.942 128.381L366.876 278.666L366.648 278.961L366.163 279.593C365.913 279.915 365.546 280.146 365.127 280.244L364.033 280.496C363.786 280.552 363.528 280.56 363.277 280.518C363.026 280.477 362.787 280.388 362.577 280.257C362.366 280.125 362.188 279.955 362.054 279.756C361.92 279.557 361.834 279.335 361.8 279.104L340.3 129.393C340.238 128.958 340.367 128.519 340.659 128.171C340.951 127.823 341.381 127.596 341.856 127.538L343.583 127.331C343.817 127.302 344.055 127.316 344.284 127.372C344.512 127.428 344.726 127.525 344.913 127.658L345.942 128.381Z" fill="black"/>
<path d="M346.561 132.679L357.669 147.19L370.873 239.134L363.715 252.131L346.561 132.679Z" fill="#1E3A8A"/>
<path d="M140.084 318.051C140.086 318.338 140.059 318.625 140.003 318.907C139.978 319.045 139.947 319.176 139.91 319.307C139.606 320.369 138.926 321.309 137.976 321.979C137.027 322.65 135.861 323.014 134.662 323.013H111.181V374.267C111.182 375.35 110.794 376.404 110.077 377.265C109.54 376.689 109.01 376.112 108.485 375.529C105.678 372.457 102.963 369.316 100.342 366.107V323.013H89.8594C88.4616 323.013 87.1182 322.518 86.1098 321.632C85.1014 320.746 84.506 319.538 84.448 318.259C84.39 316.981 84.8739 315.732 85.7986 314.773C86.7232 313.813 88.0172 313.218 89.4101 313.111C89.5598 313.1 89.7096 313.094 89.8594 313.094H134.662C136.099 313.093 137.478 313.615 138.494 314.545C139.511 315.474 140.083 316.736 140.084 318.051Z" fill="#3F3D56"/>
<path d="M514.249 318.051C514.249 319.055 513.916 320.036 513.295 320.864C512.673 321.692 511.792 322.328 510.767 322.688C510.281 322.858 509.77 322.962 509.25 322.996C509.113 323.008 508.97 323.013 508.832 323.013H498.356V369.533C498.2 369.721 498.037 369.91 497.875 370.098C495.41 372.982 492.871 375.809 490.256 378.579C489.421 378.148 488.728 377.522 488.246 376.764C487.764 376.006 487.513 375.144 487.517 374.267V323.013H464.03C463.337 323.016 462.65 322.893 462.008 322.654C461.2 322.358 460.481 321.888 459.914 321.283C459.347 320.679 458.948 319.958 458.751 319.182V319.176C458.46 318.048 458.615 316.863 459.188 315.829C459.181 315.824 459.181 315.824 459.188 315.824C459.435 315.369 459.76 314.953 460.149 314.59C460.654 314.117 461.258 313.74 461.924 313.483C462.591 313.226 463.307 313.094 464.03 313.094H508.832C510.269 313.094 511.646 313.616 512.662 314.545C513.678 315.474 514.248 316.735 514.249 318.049L514.249 318.051Z" fill="#3F3D56"/>
<path d="M513.89 222.489C511.66 222.489 509.452 222.891 507.391 223.672C505.331 224.453 503.459 225.598 501.882 227.041C500.305 228.484 499.054 230.197 498.201 232.083C497.347 233.968 496.908 235.989 496.908 238.03C496.909 241.636 498.279 245.129 500.783 247.911C503.288 250.694 506.772 252.593 510.638 253.284V278.703H521.477V222.489H513.89Z" fill="#3F3D56"/>
<path d="M217.402 279.239C216.321 278.658 215.114 278.301 213.866 278.193C212.618 278.086 211.359 278.23 210.178 278.616C208.998 279.001 207.924 279.619 207.033 280.426C206.141 281.232 205.454 282.208 205.019 283.284L185.439 283.983L182.801 292.33L210.636 293.634C212.66 294.182 214.833 294.033 216.744 293.213C218.655 292.394 220.172 290.961 221.005 289.186C221.839 287.412 221.933 285.419 221.269 283.586C220.605 281.752 219.229 280.206 217.402 279.239Z" fill="#9E616A"/>
<path d="M201.317 294.534L181.205 294.304L178.659 294.273L137.739 293.801C137.739 293.801 126.627 284.099 116.951 274.11L118.307 265.132C119.63 256.322 124.406 248.251 131.745 242.423C145.603 250.897 153.64 267.672 153.64 267.672L167.115 273.19C176.598 273.579 185.839 276.055 194.053 280.41L198.484 282.76L201.317 294.534Z" fill="#1E3A8A"/>
<path d="M264.508 455.611H337.053C332.105 456.273 327.111 456.797 322.071 457.181H279.49C274.448 456.799 269.454 456.275 264.508 455.611Z" fill="#CCCCCC"/>
<path d="M279.093 422.186C280.497 410.589 288.171 399.086 300.18 395.171C295.596 407.146 295.788 420.218 300.722 432.076C302.643 436.643 305.299 441.539 303.623 446.186C302.58 449.077 299.958 451.311 297.011 452.725C294.064 454.138 290.781 454.834 287.539 455.517L286.906 456.009C281.588 445.405 277.689 433.783 279.093 422.186Z" fill="#CCCCCC"/>
<path d="M300.305 395.389C293.384 402.679 289.149 411.78 288.202 421.399C287.958 423.466 288.072 425.556 288.539 427.591C289.064 429.56 290.155 431.364 291.699 432.816C293.11 434.197 294.727 435.46 295.746 437.13C296.254 437.992 296.557 438.943 296.635 439.919C296.713 440.896 296.565 441.877 296.2 442.798C295.356 445.113 293.653 447.013 291.916 448.818C289.989 450.822 287.952 452.876 287.159 455.511C287.063 455.83 286.527 455.675 286.623 455.356C288.003 450.771 292.809 448.118 295.06 443.976C296.109 442.043 296.529 439.809 295.489 437.796C294.58 436.035 292.913 434.731 291.472 433.344C289.942 431.948 288.81 430.23 288.173 428.34C287.595 426.334 287.393 424.252 287.578 422.183C287.913 417.52 289.046 412.934 290.937 408.594C293.065 403.629 296.106 399.034 299.927 395.007C300.164 394.758 300.54 395.141 300.305 395.389Z" fill="white"/>
<path d="M288.307 418.285C286.565 417.921 285.021 417.001 283.952 415.691C282.882 414.382 282.356 412.766 282.468 411.134C282.473 411.068 282.506 411.006 282.561 410.961C282.615 410.917 282.686 410.893 282.759 410.896C282.831 410.898 282.9 410.926 282.951 410.974C283.001 411.022 283.03 411.087 283.029 411.153C282.923 412.673 283.413 414.177 284.411 415.395C285.41 416.613 286.851 417.464 288.476 417.795C288.828 417.867 288.657 418.357 288.307 418.285Z" fill="white"/>
<path d="M290.882 432.202C293.993 430.451 296.268 427.69 297.253 424.471C297.351 424.152 297.887 424.307 297.789 424.626C296.757 427.974 294.383 430.842 291.142 432.659C290.833 432.831 290.575 432.374 290.882 432.202Z" fill="white"/>
<path d="M293.594 404.11C294.235 404.379 294.94 404.499 295.645 404.457C296.35 404.416 297.032 404.215 297.631 403.873C297.938 403.696 298.195 404.153 297.891 404.329C297.227 404.704 296.473 404.925 295.694 404.973C294.916 405.02 294.137 404.892 293.425 404.6C293.355 404.578 293.297 404.532 293.263 404.472C293.229 404.412 293.221 404.343 293.241 404.278C293.264 404.213 293.314 404.159 293.38 404.127C293.446 404.096 293.523 404.09 293.594 404.11Z" fill="white"/>
<path d="M337.259 415.4C337.071 415.515 336.883 415.63 336.695 415.75C334.176 417.31 331.8 419.055 329.591 420.967C329.417 421.112 329.244 421.262 329.075 421.412C323.805 426.071 319.526 431.585 316.456 437.674C315.236 440.098 314.22 442.603 313.416 445.168C312.306 448.71 311.41 452.632 309.152 455.546C308.92 455.852 308.668 456.145 308.396 456.423L287.613 456.678C287.565 456.657 287.518 456.64 287.47 456.619L286.641 456.664C286.672 456.529 286.708 456.389 286.739 456.254C286.757 456.176 286.779 456.098 286.797 456.019C286.811 455.967 286.824 455.915 286.833 455.867C286.837 455.849 286.842 455.832 286.846 455.819C286.855 455.771 286.869 455.728 286.878 455.684C287.075 454.905 287.279 454.125 287.489 453.346C287.489 453.341 287.489 453.341 287.493 453.337C289.031 447.383 291.334 441.617 294.356 436.16C294.449 435.998 294.541 435.832 294.643 435.671C296.044 433.254 297.658 430.947 299.47 428.771C300.466 427.582 301.528 426.441 302.65 425.351C305.556 422.539 308.927 420.163 312.639 418.31C320.041 414.617 328.651 413.131 336.649 415.234C336.854 415.288 337.054 415.342 337.259 415.4Z" fill="#CCCCCC"/>
<path d="M337.214 415.642C326.892 417.65 317.524 422.583 310.44 429.741C308.885 431.257 307.601 432.988 306.635 434.87C305.759 436.732 305.443 438.774 305.721 440.784C305.939 442.664 306.399 444.563 306.114 446.458C305.953 447.427 305.569 448.352 304.989 449.175C304.409 449.998 303.645 450.7 302.748 451.234C300.551 452.617 297.941 453.196 295.367 453.68C292.51 454.218 289.533 454.736 287.166 456.403C286.879 456.605 286.553 456.185 286.839 455.984C290.958 453.084 296.541 453.613 301.062 451.546C303.172 450.582 304.977 449.029 305.471 446.848C305.903 444.941 305.43 442.982 305.192 441.081C304.889 439.123 305.115 437.127 305.85 435.268C306.708 433.347 307.917 431.573 309.425 430.023C312.76 426.485 316.682 423.448 321.047 421.024C326.013 418.233 331.463 416.239 337.163 415.13C337.516 415.061 337.564 415.574 337.214 415.642Z" fill="white"/>
<path d="M312.574 427.313C311.423 426.063 310.795 424.478 310.803 422.843C310.811 421.208 311.453 419.628 312.616 418.387C312.852 418.136 313.288 418.46 313.052 418.711C311.967 419.866 311.368 421.337 311.365 422.86C311.361 424.382 311.952 425.856 313.031 427.015C313.265 427.267 312.806 427.564 312.574 427.313Z" fill="white"/>
<path d="M305.473 439.845C309.109 440.16 312.742 439.209 315.646 437.182C315.933 436.981 316.259 437.4 315.972 437.601C312.945 439.705 309.163 440.687 305.38 440.352C305.02 440.32 305.114 439.813 305.473 439.845Z" fill="white"/>
<path d="M326.12 418.908C326.455 419.476 326.939 419.96 327.529 420.315C328.119 420.671 328.796 420.886 329.499 420.943C329.86 420.971 329.765 421.478 329.406 421.45C328.629 421.384 327.882 421.145 327.229 420.754C326.577 420.363 326.038 419.831 325.662 419.206C325.621 419.15 325.605 419.081 325.617 419.015C325.629 418.948 325.669 418.888 325.728 418.847C325.788 418.808 325.864 418.792 325.937 418.804C326.011 418.815 326.076 418.852 326.12 418.908Z" fill="white"/>
<path d="M348.038 431.556C351.688 431.556 354.647 428.848 354.647 425.507C354.647 422.166 351.688 419.457 348.038 419.457C344.387 419.457 341.428 422.166 341.428 425.507C341.428 428.848 344.387 431.556 348.038 431.556Z" fill="#CCCCCC"/>
<path d="M369.618 449.223C369.212 449.331 368.8 449.44 368.389 449.542C364.651 450.502 360.886 451.379 357.094 452.175C356.658 451.369 356.424 450.483 356.409 449.583C356.394 448.683 356.599 447.792 357.008 446.973C357.418 446.155 358.022 445.431 358.776 444.853C359.53 444.276 360.416 443.859 361.368 443.635C362.32 443.41 363.315 443.383 364.281 443.555C365.246 443.728 366.157 444.095 366.947 444.63C367.738 445.166 368.388 445.856 368.85 446.65C369.312 447.445 369.574 448.324 369.618 449.223Z" fill="#CCCCCC"/>
<path d="M407.383 436.236C406.878 436.453 406.372 436.67 405.867 436.882C405.318 437.122 404.762 437.35 404.213 437.578C403.596 437.835 402.984 438.087 402.366 438.338C400.045 439.286 397.699 440.2 395.346 441.079C395.315 441.033 395.284 440.982 395.253 440.931C394.429 439.517 394.251 437.862 394.758 436.329C395.266 434.796 396.417 433.509 397.959 432.752C399.502 431.994 401.309 431.827 402.986 432.288C404.663 432.748 406.071 433.799 406.903 435.208C407.094 435.538 407.255 435.882 407.383 436.236Z" fill="#CCCCCC"/>
<path d="M371.352 416.708C375.003 416.708 377.962 413.999 377.962 410.658C377.962 407.317 375.003 404.609 371.352 404.609C367.702 404.609 364.742 407.317 364.742 410.658C364.742 413.999 367.702 416.708 371.352 416.708Z" fill="#CCCCCC"/>
<path d="M310.719 79.209C271.838 88.5688 228.758 94.2624 184.954 95.8215C178.534 96.1415 172.099 96.1015 165.685 95.7015C151.589 94.6165 139.515 90.5619 126.068 88.3461C119.604 87.2839 112.403 86.5073 105.895 85.3594C107.398 83.6519 108.929 81.9653 110.487 80.2997C124.521 81.3848 138.773 84.9368 152.975 86.5872C177.117 89.3969 204.167 86.2617 222.468 78.5294C231.348 74.7774 238.149 70.0947 246.997 66.3256C248.201 65.7602 249.504 65.3947 250.847 65.2463C253.649 65.0121 256.108 66.0458 258.111 66.9709C272.955 73.8295 294.508 79.4031 314.513 76.3365C316.005 77.4044 313.172 78.6207 310.719 79.209Z" fill="white"/>
<path d="M399.244 103.345C399.427 103.315 399.61 103.291 399.793 103.262C399.024 102.826 398.301 102.327 397.631 101.771L399.244 103.345Z" fill="white"/>
<path d="M519 116.877C510.645 117.488 502.246 117.943 493.803 118.242C487.384 118.559 480.949 118.519 474.534 118.122C460.439 117.031 448.364 112.982 434.917 110.766C422.594 108.739 407.618 107.763 399.793 103.263C420.016 100.059 440.97 106.58 461.824 109.008C478.692 110.906 495.791 110.133 512.373 106.723C514.682 110.047 516.891 113.431 519 116.877Z" fill="white"/>
<path d="M330.917 202.54C311.343 141.054 299.823 77.6569 299.823 13.6139V8.9724H293.319V13.6138C293.319 77.6569 281.798 141.053 262.224 202.54C261.278 205.517 260.799 208.601 260.801 211.701C260.801 212.874 261.053 214.035 261.543 215.118C262.034 216.201 262.752 217.186 263.658 218.015C264.564 218.844 265.639 219.501 266.823 219.95C268.007 220.399 269.275 220.63 270.556 220.63H283.563C283.563 222.193 283.9 223.741 284.554 225.185C285.207 226.629 286.165 227.942 287.373 229.047C288.581 230.153 290.015 231.029 291.593 231.628C293.171 232.226 294.863 232.534 296.571 232.534C298.279 232.534 299.97 232.226 301.548 231.628C303.127 231.029 304.56 230.153 305.768 229.047C306.976 227.942 307.934 226.629 308.588 225.185C309.242 223.741 309.578 222.193 309.578 220.63H319.7V246.287C318.272 246.325 316.914 246.862 315.905 247.787C314.896 248.712 314.313 249.956 314.274 251.263C314.236 252.57 314.745 253.84 315.698 254.814C316.651 255.788 317.975 256.391 319.398 256.499C320.822 256.608 322.237 256.214 323.352 255.398C324.468 254.582 325.2 253.406 325.399 252.111C325.597 250.816 325.246 249.502 324.418 248.436C323.591 247.371 322.349 246.636 320.948 246.382V220.63H322.585C325.173 220.63 327.654 219.689 329.483 218.015C331.313 216.34 332.341 214.069 332.341 211.702C332.343 208.601 331.863 205.517 330.917 202.54Z" fill="white"/>
</g>
<defs>
<clipPath id="clip0_440_3956">
<rect width="551" height="458" fill="white"/>
</clipPath>
</defs>
</svg>
