<svg width="615" height="436" viewBox="0 0 615 436" fill="none" xmlns="http://www.w3.org/2000/svg">
<g clip-path="url(#clip0_440_3893)">
<path d="M122.535 436C190.209 436 245.069 431.754 245.069 426.517C245.069 421.28 190.209 417.034 122.535 417.034C54.8606 417.034 0 421.28 0 426.517C0 431.754 54.8606 436 122.535 436Z" fill="#E6E6E6"/>
<path d="M93.6641 96.7408C114.989 87.4987 141.549 93.3544 167.488 97.4184C167.729 92.4968 170.655 86.507 167.59 83.0734C163.867 78.9018 164.21 74.5188 166.45 70.1105C172.18 58.8377 163.971 46.8429 155.683 36.8693C153.814 34.6264 151.453 32.8641 148.791 31.7255C146.129 30.587 143.241 30.1043 140.362 30.3168L125.008 31.4343C121.272 31.7062 117.706 33.1343 114.788 35.5275C111.87 37.9207 109.74 41.1648 108.681 44.8258C105.014 49.9064 103.052 54.9729 104.288 60.013C98.7963 63.8369 97.8737 68.4526 100.341 73.656C102.434 76.9323 102.411 80.1215 100.246 83.2224C97.4024 87.1758 95.2244 91.5839 93.8013 96.2661L93.6641 96.7408Z" fill="#2F2E41"/>
<path d="M600.428 376.915H165.804C161.939 376.915 158.232 375.35 155.499 372.566C152.766 369.781 151.23 366.004 151.23 362.065C308.782 343.408 463.372 343.408 615.001 362.065C615.001 366.004 613.466 369.781 610.733 372.566C608 375.35 604.293 376.915 600.428 376.915Z" fill="#2F2E41"/>
<path d="M615.001 362.939L151.23 362.065L204.98 269.911L205.237 269.475V66.3772C205.237 63.9121 205.713 61.471 206.639 59.1934C207.565 56.9159 208.922 54.8464 210.632 53.1033C212.343 51.3602 214.374 49.9775 216.609 49.0342C218.844 48.0909 221.24 47.6055 223.659 47.6057H540C542.42 47.6055 544.815 48.0909 547.051 49.0342C549.286 49.9775 551.317 51.3602 553.027 53.1033C554.738 54.8464 556.095 56.9159 557.021 59.1934C557.946 61.471 558.423 63.9121 558.423 66.3772V270.872L615.001 362.939Z" fill="#3F3D56"/>
<path d="M223.239 60.7083C221.648 60.7101 220.123 61.3549 218.998 62.5012C217.873 63.6475 217.24 65.2016 217.238 66.8227V252.005C217.24 253.626 217.873 255.18 218.998 256.326C220.123 257.472 221.648 258.117 223.239 258.119H542.992C544.583 258.117 546.108 257.472 547.233 256.326C548.358 255.18 548.991 253.626 548.993 252.005V66.8227C548.991 65.2017 548.358 63.6475 547.233 62.5012C546.108 61.355 544.583 60.7101 542.992 60.7083H223.239Z" fill="white"/>
<path d="M224.577 282.577C224.086 282.578 223.604 282.722 223.19 282.992C222.777 283.262 222.447 283.648 222.241 284.102L205.679 320.789C205.499 321.188 205.42 321.627 205.45 322.066C205.479 322.504 205.617 322.928 205.85 323.298C206.082 323.668 206.402 323.973 206.781 324.184C207.159 324.394 207.584 324.505 208.015 324.505H556.302C556.74 324.505 557.171 324.391 557.554 324.173C557.937 323.956 558.259 323.642 558.49 323.262C558.72 322.882 558.851 322.448 558.871 322.002C558.89 321.556 558.798 321.112 558.602 320.712L540.599 284.026C540.387 283.589 540.059 283.223 539.653 282.967C539.246 282.711 538.778 282.576 538.3 282.577H224.577Z" fill="#2F2E41"/>
<path d="M381.828 57.6509C383.959 57.6509 385.686 55.8911 385.686 53.7202C385.686 51.5493 383.959 49.7894 381.828 49.7894C379.698 49.7894 377.971 51.5493 377.971 53.7202C377.971 55.8911 379.698 57.6509 381.828 57.6509Z" fill="white"/>
<path d="M347.595 331.493C347.03 331.494 346.48 331.684 346.032 332.034C345.583 332.385 345.26 332.876 345.112 333.432L340.958 349.155C340.855 349.543 340.841 349.951 340.918 350.345C340.995 350.74 341.159 351.111 341.399 351.43C341.64 351.75 341.949 352.008 342.303 352.186C342.657 352.364 343.046 352.457 343.441 352.457H422.448C422.858 352.457 423.262 352.357 423.626 352.166C423.99 351.974 424.305 351.697 424.542 351.356C424.78 351.016 424.935 350.623 424.993 350.209C425.051 349.796 425.011 349.374 424.877 348.979L419.536 333.256C419.361 332.741 419.033 332.295 418.597 331.979C418.162 331.663 417.64 331.493 417.106 331.493H347.595Z" fill="#2F2E41"/>
<path d="M558.421 266.417V269.911H204.979L205.245 269.475V266.417H558.421Z" fill="#2F2E41"/>
<path d="M548.562 122.29C581.703 122.29 608.569 94.9144 608.569 61.145C608.569 27.3755 581.703 0 548.562 0C515.421 0 488.555 27.3755 488.555 61.145C488.555 94.9144 515.421 122.29 548.562 122.29Z" fill="#1E3A8A"/>
<path d="M573.423 87.7871H523.702C522.793 87.7861 521.922 87.4177 521.279 86.7627C520.636 86.1076 520.274 85.2194 520.273 84.293V53.7206C520.274 52.7942 520.636 51.9061 521.279 51.251C521.922 50.596 522.793 50.2275 523.702 50.2266H573.423C574.332 50.2275 575.203 50.596 575.846 51.251C576.489 51.9061 576.851 52.7942 576.852 53.7206V84.293C576.851 85.2194 576.489 86.1076 575.846 86.7627C575.204 87.4177 574.332 87.7861 573.423 87.7871ZM523.702 53.7206V84.293H573.425L573.423 53.7206L523.702 53.7206Z" fill="white"/>
<path d="M563.994 53.7194H533.133V39.7434C533.133 29.6206 539.622 22.2734 548.563 22.2734C557.504 22.2734 563.994 29.6206 563.994 39.7434L563.994 53.7194ZM536.562 50.2254H560.565V39.7434C560.565 31.5147 555.63 25.7675 548.563 25.7675C541.497 25.7675 536.562 31.5147 536.562 39.7434L536.562 50.2254Z" fill="white"/>
<path d="M548.562 71.6267C550.456 71.6267 551.991 70.0623 551.991 68.1327C551.991 66.203 550.456 64.6387 548.562 64.6387C546.668 64.6387 545.133 66.203 545.133 68.1327C545.133 70.0623 546.668 71.6267 548.562 71.6267Z" fill="white"/>
<path d="M506.673 195.307H259.557C258.343 195.306 257.18 194.814 256.322 193.94C255.464 193.066 254.982 191.881 254.98 190.644V128.183C254.982 126.947 255.464 125.762 256.322 124.887C257.18 124.013 258.343 123.521 259.557 123.52H506.673C507.887 123.521 509.05 124.013 509.908 124.887C510.766 125.762 511.248 126.947 511.25 128.183V190.644C511.248 191.881 510.766 193.066 509.908 193.94C509.05 194.814 507.887 195.306 506.673 195.307ZM259.557 125.385C258.829 125.386 258.131 125.681 257.616 126.206C257.101 126.73 256.812 127.441 256.811 128.183V190.644C256.812 191.386 257.101 192.097 257.616 192.622C258.131 193.146 258.829 193.441 259.557 193.442H506.673C507.401 193.441 508.099 193.146 508.614 192.622C509.129 192.097 509.418 191.386 509.419 190.644V128.183C509.418 127.441 509.129 126.73 508.614 126.206C508.099 125.681 507.401 125.386 506.673 125.385L259.557 125.385Z" fill="#E6E6E6"/>
<path d="M297.954 176.012C308.249 176.012 316.595 167.507 316.595 157.017C316.595 146.527 308.249 138.022 297.954 138.022C287.658 138.022 279.312 146.527 279.312 157.017C279.312 167.507 287.658 176.012 297.954 176.012Z" fill="#E6E6E6"/>
<path d="M341.006 144.354C340.598 144.353 340.193 144.435 339.816 144.594C339.438 144.752 339.095 144.985 338.806 145.279C338.517 145.574 338.288 145.923 338.131 146.307C337.975 146.692 337.895 147.104 337.895 147.52C337.895 147.936 337.975 148.348 338.131 148.732C338.288 149.117 338.517 149.466 338.806 149.76C339.095 150.054 339.438 150.287 339.816 150.446C340.193 150.605 340.598 150.686 341.006 150.686H487.472C488.296 150.686 489.086 150.352 489.669 149.758C490.252 149.165 490.579 148.359 490.579 147.52C490.579 146.68 490.252 145.875 489.669 145.281C489.086 144.688 488.296 144.354 487.472 144.354H341.006Z" fill="#E6E6E6"/>
<path d="M341.005 163.349C340.181 163.349 339.391 163.682 338.808 164.276C338.226 164.869 337.898 165.675 337.898 166.514C337.898 167.354 338.226 168.159 338.808 168.753C339.391 169.346 340.181 169.68 341.005 169.68H404.03C404.854 169.68 405.644 169.346 406.227 168.753C406.809 168.159 407.137 167.354 407.137 166.514C407.137 165.675 406.809 164.869 406.227 164.276C405.644 163.682 404.854 163.349 404.03 163.349H341.005Z" fill="#E6E6E6"/>
<path d="M204.371 164.629L158.69 189.376L158.111 168.754C173.021 166.217 187.207 161.802 200.323 154.613L205.101 142.585C205.622 141.274 206.468 140.124 207.556 139.248C208.645 138.371 209.939 137.798 211.31 137.584C212.682 137.371 214.084 137.525 215.38 138.03C216.676 138.536 217.82 139.376 218.701 140.469C219.99 142.067 220.634 144.105 220.503 146.17C220.372 148.234 219.476 150.17 217.997 151.587L204.371 164.629Z" fill="#FFB8B8"/>
<path d="M92.7536 307.508C92.4204 306.263 92.3496 304.959 92.546 303.684C92.7424 302.409 93.2015 301.19 93.8931 300.109L103.928 284.417C106.302 280.705 109.943 278.024 114.147 276.894C118.351 275.764 122.817 276.265 126.678 278.301C122.461 285.616 123.049 292.033 128.135 297.609C120.24 301.537 112.942 306.606 106.469 312.659C105.288 313.48 103.931 314.001 102.511 314.18C101.092 314.358 99.6512 314.188 98.3093 313.684C96.9674 313.18 95.7631 312.356 94.7967 311.282C93.8303 310.208 93.1298 308.914 92.7536 307.508Z" fill="#2F2E41"/>
<path d="M206.451 286.99C204.933 289.569 202.789 291.707 200.226 293.198C197.664 294.69 194.768 295.485 191.816 295.508L125.151 296.023L122.26 278.936L151.75 270.098L126.886 250.654L154.063 218.247L203.426 265.128C206.311 267.868 208.186 271.534 208.736 275.513C209.287 279.493 208.48 283.544 206.451 286.99Z" fill="#2F2E41"/>
<path d="M114.742 403.848H99.1298C85.1119 305.939 70.843 207.757 113.008 171.11L162.737 179.359L156.376 222.372L128.62 254.778L114.742 403.848Z" fill="#2F2E41"/>
<path d="M128.466 426.027C127.244 426.367 125.965 426.439 124.714 426.239C123.462 426.039 122.266 425.571 121.205 424.867L104.253 422.545C100.61 420.127 97.9788 416.416 96.8695 412.132C95.7602 407.849 96.252 403.298 98.2494 399.364C105.428 403.66 111.726 403.061 117.198 397.878C121.065 405.834 127.436 405.349 133.521 412.051C134.326 413.255 134.838 414.638 135.013 416.084C135.188 417.531 135.021 418.999 134.527 420.366C134.032 421.733 133.224 422.961 132.17 423.945C131.116 424.93 129.846 425.644 128.466 426.027Z" fill="#2F2E41"/>
<path d="M151.75 105.708L122.838 98.6377C127.64 88.6223 128.035 77.4781 125.729 65.6419L145.389 65.0527C146.005 79.7713 147.869 93.5221 151.75 105.708Z" fill="#FFB8B8"/>
<path d="M159.697 197.1C138.65 211.714 123.778 197.6 112.43 175.824C114.007 162.499 111.454 146.553 106.725 129.227C104.621 121.584 105.407 113.416 108.925 106.335C112.444 99.2541 118.44 93.7744 125.73 90.978L150.594 101.584C171.707 119.12 175.863 138.114 167.942 158.148L159.697 197.1Z" fill="#1E3A8A"/>
<path d="M99.1293 120.438L75.9995 132.812L117.055 157.559L122.768 171.917C123.149 172.875 123.335 173.903 123.313 174.937C123.292 175.97 123.065 176.989 122.645 177.93C122.225 178.872 121.621 179.716 120.87 180.412C120.119 181.108 119.237 181.64 118.278 181.977C117.187 182.361 116.024 182.481 114.88 182.33C113.736 182.179 112.642 181.76 111.683 181.106C110.725 180.452 109.928 179.581 109.355 178.56C108.782 177.54 108.448 176.399 108.381 175.225L107.803 165.218L55.622 147.672C53.8639 147.081 52.2609 146.09 50.9343 144.774C49.6078 143.458 48.5925 141.852 47.9654 140.077C47.0513 137.49 47.0048 134.666 47.8331 132.049C48.6614 129.432 50.3178 127.169 52.5431 125.613L94.5034 96.2809L99.1293 120.438Z" fill="#FFB8B8"/>
<path d="M122.26 122.795C112.614 118.488 103.842 123.167 92.7699 126.92L91.0352 95.6917C102.029 89.7209 112.511 88.111 122.26 92.7457L122.26 122.795Z" fill="#1E3A8A"/>
<path d="M133.799 80.5212C143.994 80.5212 152.259 72.1 152.259 61.7118C152.259 51.3237 143.994 42.9025 133.799 42.9025C123.604 42.9025 115.34 51.3237 115.34 61.7118C115.34 72.1 123.604 80.5212 133.799 80.5212Z" fill="#FFB8B8"/>
<path d="M155.883 59.3386C137.606 61.1625 123.68 58.1168 114.779 49.4447V42.4608H154.332L155.883 59.3386Z" fill="#2F2E41"/>
</g>
<defs>
<clipPath id="clip0_440_3893">
<rect width="615" height="436" fill="white"/>
</clipPath>
</defs>
</svg>
