<svg width="839" height="549" viewBox="0 0 839 549" fill="none" xmlns="http://www.w3.org/2000/svg">
<g clip-path="url(#clip0_440_4160)">
<path d="M425.437 154.046C417.965 141.876 409.111 128.882 395.245 124.908C379.187 120.306 362.692 129.448 348.7 138.469C306.856 165.45 266.559 194.689 227.994 226.053L228.036 226.525C258.06 224.486 288.085 222.447 318.109 220.408C339.801 218.935 362.239 217.259 381.409 207.153C388.683 203.318 395.774 198.195 404.017 197.838C414.259 197.395 423.188 204.439 430.206 211.798C471.717 255.33 483.729 321.901 530.3 360.147C500.934 288.825 465.87 219.908 425.437 154.046Z" fill="#F2F2F2"/>
<path d="M680.601 523.278C676.01 517.57 674.135 516.233 669.606 510.472C632.737 463.511 598.083 414.964 565.644 364.831C543.61 330.783 522.669 296.08 502.821 260.724C493.371 243.916 484.181 226.975 475.249 209.902C468.319 196.665 461.543 183.348 454.921 169.952C453.028 166.126 451.188 162.282 449.357 158.429C445.043 149.37 440.809 140.266 436.263 131.33C431.083 121.144 424.778 110.466 415.265 103.623C410.937 100.381 405.76 98.4193 400.341 97.9674C392.598 97.4748 385.452 100.624 378.736 104.063C329.595 129.298 283.59 160.936 241.978 196.937C200.26 233.019 162.971 273.783 130.871 318.398C129.889 319.779 127.566 318.46 128.558 317.07C132.461 311.634 136.441 306.257 140.499 300.939C190.955 234.852 252.822 178.022 323.272 133.045C335.124 125.481 347.199 118.271 359.498 111.416C365.696 107.959 371.921 104.547 378.254 101.345C384.461 98.2049 391.052 95.3814 398.144 95.2759C422.277 94.9065 434.772 121.821 443.355 139.932C446.052 145.632 448.782 151.314 451.545 156.978C461.986 178.484 472.829 199.793 484.073 220.906C491.013 233.941 498.105 246.9 505.348 259.783C527.891 299.901 551.851 339.206 577.228 377.699C610.846 428.688 644.196 473.732 682.494 521.413C683.548 522.733 681.664 524.615 680.601 523.278Z" fill="#E4E4E4"/>
<path d="M239.592 183.647C238.189 182.108 236.796 180.569 235.385 179.029C224.256 166.909 212.315 154.929 197.033 147.98C189.747 144.562 181.792 142.747 173.722 142.659C165.38 142.685 157.226 144.84 149.518 147.857C145.874 149.291 142.31 150.918 138.801 152.651C134.79 154.639 130.851 156.758 126.931 158.896C119.571 162.907 112.307 167.093 105.138 171.456C90.8744 180.137 77.0574 189.481 63.6871 199.488C56.7561 204.678 49.9681 210.037 43.3232 215.567C37.1427 220.704 31.0872 225.978 25.1568 231.39C23.8886 232.543 21.995 230.678 23.2632 229.526C24.8262 228.092 26.4071 226.667 27.988 225.26C32.4537 221.284 36.9909 217.385 41.5997 213.561C50.0039 206.578 58.6257 199.863 67.4651 193.419C81.2107 183.392 95.4295 174.045 110.121 165.378C117.463 161.051 124.906 156.905 132.45 152.941C134.728 151.745 137.032 150.575 139.363 149.467C144.652 146.839 150.148 144.636 155.797 142.879C163.799 140.329 172.265 139.51 180.617 140.477C188.682 141.633 196.452 144.28 203.518 148.279C218.522 156.538 230.16 169.31 241.485 181.774C242.629 183.04 240.744 184.914 239.592 183.647Z" fill="#E4E4E4"/>
<path d="M547.034 309.248L582.989 296.298L600.84 289.867C606.655 287.773 612.455 285.389 618.465 283.889C623.688 282.42 629.234 282.49 634.417 284.09C639.04 285.775 643.271 288.358 646.86 291.685C650.526 295.01 653.937 298.598 657.065 302.418C660.952 307.018 664.781 311.667 668.627 316.299C684.502 335.419 700.273 354.621 715.941 373.907C731.608 393.192 747.17 412.56 762.628 432.009C778.123 451.506 793.512 471.084 808.794 490.744C810.666 493.152 812.536 495.562 814.405 497.972C815.438 499.304 817.766 497.991 816.719 496.641C801.324 476.783 785.822 457.007 770.212 437.312C754.564 417.57 738.808 397.912 722.944 378.337C707.08 358.763 691.109 339.274 675.031 319.87C671.025 315.035 667.013 310.207 662.994 305.383C659.604 301.314 656.253 297.201 652.534 293.414C645.709 286.463 637.182 280.319 626.975 280.153C620.974 280.055 615.166 281.93 609.59 283.917C603.579 286.058 597.583 288.24 591.579 290.402L555.373 303.444L546.321 306.704C544.715 307.283 545.409 309.834 547.034 309.248Z" fill="#E4E4E4"/>
<path d="M192.303 163.232C174.031 153.983 150.632 155.795 133.842 167.349C165.868 172.79 197.544 180.071 228.707 189.154C215.766 181.685 205.643 169.984 192.303 163.232Z" fill="#F2F2F2"/>
<path d="M133.662 167.317L130.145 170.133C131.334 169.147 132.571 168.223 133.842 167.349C133.782 167.339 133.722 167.327 133.662 167.317Z" fill="#F2F2F2"/>
<path d="M645.505 309.378C641.965 305.135 638.139 300.692 632.845 298.969L627.902 299.161C665.527 364.634 716.341 421.845 777.226 467.28C733.319 414.646 689.412 362.012 645.505 309.378Z" fill="#F2F2F2"/>
<path d="M338.157 274.377C340.444 282.561 345.597 289.684 352.704 294.486C355.451 296.329 358.702 298.096 359.642 301.236C360.137 303.237 359.832 305.35 358.791 307.136C357.752 308.9 356.488 310.526 355.029 311.974L354.896 312.465C348.078 308.486 341.591 303.452 337.825 296.584C334.058 289.717 333.532 280.716 338.157 274.377Z" fill="#F2F2F2"/>
<path d="M565.163 469.15C567.45 477.333 572.603 484.457 579.71 489.259C582.457 491.101 585.708 492.869 586.648 496.008C587.143 498.01 586.838 500.122 585.797 501.909C584.758 503.673 583.494 505.299 582.035 506.746L581.902 507.237C575.083 503.258 568.597 498.225 564.83 491.357C561.064 484.489 560.538 475.488 565.163 469.15Z" fill="#F2F2F2"/>
<path d="M112.126 455.717C114.413 463.901 119.566 471.024 126.673 475.826C129.42 477.669 132.671 479.436 133.611 482.576C134.105 484.577 133.801 486.69 132.76 488.477C131.721 490.24 130.456 491.866 128.998 493.314L128.865 493.805C122.046 489.826 115.56 484.792 111.793 477.924C108.027 471.057 107.501 462.056 112.126 455.717Z" fill="#F2F2F2"/>
<path d="M633.457 97.8914C660.899 97.8914 683.145 75.9834 683.145 48.9584C683.145 21.9335 660.899 0.0253906 633.457 0.0253906C606.015 0.0253906 583.77 21.9335 583.77 48.9584C583.77 75.9834 606.015 97.8914 633.457 97.8914Z" fill="#FF6584"/>
<path d="M723.124 11.4146C699.043 8.20903 671.551 21.0272 665.31 44.1551C663.737 40.043 660.877 36.5297 657.144 34.1229C653.411 31.7161 648.997 30.5404 644.541 30.7656C640.085 30.9907 635.817 32.6052 632.353 35.3757C628.89 38.1462 626.411 41.9292 625.273 46.1783L628.03 48.1229C679.635 59.1129 733.054 58.8751 784.555 47.4259C767.805 30.0893 747.205 14.62 723.124 11.4146Z" fill="#F0F0F0"/>
<path d="M619.851 76.6587C595.77 73.4532 568.278 86.2713 562.036 109.399C560.463 105.287 557.604 101.774 553.87 99.3671C550.137 96.9602 545.724 95.7845 541.268 96.0097C536.812 96.2349 532.543 97.8493 529.08 100.62C525.617 103.39 523.137 107.173 522 111.422L524.757 113.367C576.362 124.357 629.78 124.119 681.282 112.67C664.531 95.3335 643.931 79.8642 619.851 76.6587Z" fill="#F0F0F0"/>
<path d="M830.029 88.9954C829.929 88.9956 829.83 88.9805 829.735 88.9505C572.132 8.72126 345.09 19.2126 199.987 42.1416C180.24 45.2608 160.44 48.8635 141.137 52.8504C136.209 53.867 131.097 54.9567 125.942 56.0914C119.785 57.4416 113.711 58.8321 107.886 60.2226C105.371 60.8091 102.904 61.4003 100.487 61.9963C96.8254 62.8864 93.11 63.814 89.1273 64.8334C84.677 65.9634 80.1553 67.1487 75.685 68.3565C75.6686 68.3621 75.6519 68.3668 75.635 68.3705L75.6355 68.3715C70.5862 69.7291 65.5636 71.1262 60.7065 72.5214C58.0777 73.2691 55.5393 74.0065 53.1079 74.7346C52.8363 74.8086 52.5956 74.8798 52.3515 74.9529L51.8292 75.1093C51.5266 75.2002 51.2279 75.2892 50.9291 75.3736L50.9101 75.3792L50.9105 75.3801L50.1199 75.6219C49.177 75.9031 48.257 76.1776 47.3522 76.4512C23.4388 83.7109 10.2928 88.8756 10.1629 88.9262C10.0442 88.973 9.91722 88.9964 9.78928 88.995C9.66135 88.9935 9.53495 88.9673 9.41732 88.9177C9.29968 88.8682 9.1931 88.7963 9.10367 88.7062C9.01424 88.6161 8.94371 88.5095 8.89611 88.3925C8.8485 88.2756 8.82477 88.1505 8.82624 88.0245C8.8277 87.8986 8.85436 87.7741 8.90467 87.6582C8.95498 87.5424 9.02797 87.4374 9.11947 87.3494C9.21097 87.2613 9.31919 87.1918 9.43795 87.145C9.56877 87.0944 22.779 81.9035 46.7794 74.6166C47.6876 74.342 48.61 74.0675 49.5557 73.7854L50.2902 73.5606C50.3154 73.5512 50.3406 73.5437 50.3663 73.5362C50.6636 73.4528 50.9605 73.3638 51.2621 73.2739L51.7854 73.1174C52.0461 73.0396 52.303 72.9628 52.566 72.8916C54.9808 72.1682 57.5278 71.4289 60.1632 70.6784C65.0222 69.2823 70.0496 67.8853 75.1027 66.5257C75.1184 66.5201 75.1346 66.5163 75.1503 66.5116C79.6363 65.3001 84.1746 64.1092 88.6393 62.9755C92.6281 61.9551 96.3506 61.0256 100.018 60.1336C102.446 59.5386 104.917 58.9461 107.432 58.3561C113.263 56.9638 119.35 55.5714 125.517 54.2184C130.68 53.0828 135.801 51.9903 140.737 50.9727C160.07 46.9793 179.901 43.3709 199.678 40.247C344.989 17.2853 572.356 6.777 830.322 87.1215C830.544 87.1904 830.733 87.3353 830.856 87.5298C830.979 87.7244 831.027 87.9558 830.992 88.1822C830.956 88.4086 830.84 88.6151 830.663 88.7642C830.487 88.9134 830.262 88.9954 830.029 88.9954Z" fill="#CCCCCC"/>
<path d="M257.135 402.85C256.798 401.878 256.23 401 255.479 400.288C255.202 400.035 254.902 399.807 254.583 399.607C252.04 397.937 248.24 397.563 245.824 399.607C245.581 399.815 245.356 400.042 245.152 400.288C244.431 401.161 243.69 402.015 242.93 402.85C241.683 404.251 240.407 405.603 239.072 406.918C238.692 407.282 238.312 407.657 237.923 408.021C237.699 408.242 237.475 408.453 237.251 408.664C236.393 409.47 235.516 410.247 234.63 411.015C234.162 411.427 233.694 411.83 233.217 412.224C232.506 412.809 231.795 413.394 231.074 413.96C231.005 414.008 230.937 414.056 230.869 414.114C230.85 414.124 230.84 414.143 230.82 414.152C230.811 414.152 230.801 414.152 230.791 414.171C230.765 414.182 230.741 414.198 230.723 414.219C230.509 414.363 230.362 414.459 230.255 414.546C230.294 414.527 230.333 414.498 230.372 414.479C230.197 414.613 230.012 414.747 229.836 414.882C228.131 416.119 226.387 417.309 224.604 418.422C220.193 421.202 215.56 423.625 210.75 425.666C210.429 425.791 210.098 425.925 209.766 426.05C197.174 431.131 183.513 433.113 169.967 431.826C168.584 431.72 167.2 431.576 165.817 431.394C164.219 431.164 162.631 430.885 161.053 430.569C155.044 429.388 149.165 427.64 143.497 425.349C136.406 422.152 129.662 418.256 123.368 413.721C122.394 413.039 121.41 412.358 120.426 411.696C121.546 408.99 122.647 406.285 123.719 403.56C124.255 402.245 124.771 400.931 125.278 399.607C129.262 389.408 133.004 379.112 136.589 368.779C140.213 358.311 143.633 347.782 146.848 337.193C147.179 336.119 147.501 335.044 147.813 333.969C149.498 328.376 151.115 322.769 152.664 317.15C152.811 316.603 152.966 316.066 153.103 315.519C153.551 313.907 153.989 312.295 154.418 310.683C155.392 307.047 153.19 302.7 149.313 301.827C147.446 301.356 145.466 301.616 143.79 302.554C142.115 303.492 140.874 305.034 140.33 306.855C139.911 308.409 139.492 309.954 139.064 311.508C137.008 319.021 134.845 326.508 132.575 333.969C132.244 335.044 131.912 336.119 131.581 337.193C126.573 353.447 121.075 369.537 115.087 385.464C114.366 387.393 113.635 389.315 112.895 391.231C112.534 392.171 112.174 393.111 111.804 394.051C111.092 395.903 110.362 397.755 109.631 399.607C109.212 400.691 108.783 401.775 108.355 402.85C108.072 403.531 107.799 404.212 107.526 404.884C104.749 403.902 101.871 403.22 98.9432 402.85L98.4755 402.792C96.2059 402.523 93.9105 402.543 91.6459 402.85C88.2565 403.239 84.9953 404.357 82.0929 406.125C79.1905 407.892 76.7178 410.266 74.8495 413.078C70.2022 420.283 70.2607 430.588 76.7785 436.709C83.4912 443.013 93.6529 442.965 101.554 439.022C105.741 436.791 109.272 433.532 111.804 429.561C112.773 428.122 113.664 426.633 114.473 425.1C114.678 425.234 114.882 425.368 115.087 425.512C115.866 426.05 116.646 426.597 117.415 427.134C121.9 430.334 126.626 433.191 131.552 435.683C142.144 440.869 153.546 444.265 165.281 445.728C165.544 445.757 165.798 445.796 166.061 445.824C167.356 445.988 168.662 446.112 169.967 446.218C188.695 447.608 207.446 443.833 224.117 435.318C225.53 434.599 226.93 433.844 228.316 433.054C230.47 431.826 232.574 430.521 234.63 429.139C235.75 428.391 236.841 427.633 237.923 426.836C242.649 423.409 247.054 419.571 251.085 415.371C252.615 413.788 254.079 412.153 255.479 410.468C256.803 409.089 257.566 407.279 257.622 405.383C257.615 404.517 257.45 403.659 257.135 402.85ZM95.806 425.704C96.0106 425.56 96.2152 425.407 96.4101 425.253C96.3516 425.397 96.069 425.56 95.806 425.704ZM98.9334 422.605C98.7093 422.855 98.5047 423.104 98.2807 423.354C97.5989 424.105 96.8666 424.81 96.0885 425.464C95.9814 425.56 95.8645 425.656 95.7476 425.743C95.7463 425.743 95.745 425.743 95.7438 425.743C95.7426 425.744 95.7415 425.745 95.7406 425.745C95.7397 425.746 95.739 425.747 95.7385 425.749C95.738 425.75 95.7378 425.751 95.7378 425.752C95.5971 425.814 95.4604 425.885 95.3286 425.963C94.9096 426.213 94.481 426.443 94.0426 426.654C93.1842 426.965 92.3011 427.206 91.4023 427.374C90.7117 427.423 90.0186 427.43 89.3271 427.393H89.3076C88.8304 427.289 88.359 427.161 87.895 427.009C87.6611 426.894 87.437 426.76 87.213 426.625C87.1253 426.549 87.0473 426.472 86.9986 426.424C86.9034 426.338 86.8155 426.245 86.7356 426.146C86.7357 426.144 86.7354 426.143 86.7349 426.142C86.7344 426.141 86.7338 426.14 86.7328 426.139C86.7319 426.138 86.7308 426.137 86.7296 426.137C86.7284 426.136 86.7272 426.136 86.7259 426.136C86.6187 425.944 86.5018 425.752 86.3946 425.56C86.3891 425.555 86.3856 425.549 86.3849 425.541C86.3069 425.301 86.2388 425.052 86.1803 424.802C86.1592 424.364 86.1624 423.926 86.19 423.488C86.3208 422.875 86.4966 422.272 86.7161 421.684C86.9134 421.267 87.138 420.863 87.3884 420.475C87.4079 420.437 87.5053 420.283 87.6125 420.111C87.6222 420.101 87.6222 420.101 87.6222 420.091C87.7683 419.928 87.9145 419.756 88.0704 419.602C88.3334 419.314 88.616 419.065 88.8985 418.806C89.448 418.452 90.0172 418.128 90.6035 417.837C91.5336 417.511 92.488 417.258 93.4581 417.079C94.8886 416.967 96.3264 416.98 97.7546 417.117C99.1074 417.348 100.442 417.672 101.749 418.086C100.957 419.6 100.055 421.056 99.0504 422.442C99.0114 422.5 98.9724 422.557 98.9334 422.605ZM88.0996 419.449C88.0137 419.584 87.9124 419.71 87.7975 419.823C87.8748 419.681 87.9771 419.555 88.0996 419.449Z" fill="#3F3D56"/>
<path d="M227.85 304.859C227.763 307.872 227.675 310.884 227.587 313.897C227.402 320.585 227.21 327.275 227.012 333.969C226.808 341.501 226.593 349.03 226.369 356.555C226.262 360.441 226.152 364.327 226.038 368.213C225.736 378.681 225.437 389.145 225.142 399.607C225.112 400.691 225.073 401.766 225.044 402.85C224.898 408.041 224.752 413.231 224.606 418.422C224.44 424.054 224.278 429.686 224.119 435.318C224.002 439.54 223.882 443.765 223.758 447.993C222.881 478.629 222.005 509.265 221.128 539.901C221.091 541.798 220.309 543.607 218.947 544.949C217.584 546.29 215.747 547.06 213.821 547.097C211.888 547.081 210.038 546.318 208.671 544.972C207.304 543.626 206.529 541.804 206.514 539.901C207.001 522.669 207.494 505.436 207.995 488.204C208.433 472.622 208.878 457.041 209.329 441.459C209.475 436.326 209.622 431.189 209.768 426.05C209.992 418.316 210.213 410.583 210.43 402.85C210.459 401.766 210.498 400.691 210.528 399.607C210.547 398.657 210.576 397.717 210.606 396.767C211.034 381.751 211.463 366.732 211.892 351.71C212.067 345.8 212.236 339.886 212.398 333.969C212.593 327.224 212.788 320.482 212.983 313.744C213.07 310.779 213.148 307.824 213.236 304.859C213.273 302.962 214.055 301.153 215.417 299.811C216.78 298.469 218.617 297.699 220.543 297.663C222.476 297.678 224.326 298.441 225.693 299.788C227.06 301.134 227.835 302.955 227.85 304.859Z" fill="#3F3D56"/>
<path d="M628.691 306.856C621.029 335.429 611.871 363.592 601.255 391.233C598.325 398.857 595.328 406.466 592.124 413.984L592.861 412.265C591.431 415.845 589.605 419.26 587.415 422.446C587.266 422.652 587.115 422.855 586.96 423.057C587.717 422.104 587.861 421.915 587.392 422.492C587.144 422.78 586.9 423.07 586.644 423.351C585.962 424.103 585.23 424.809 584.453 425.465C584.257 425.63 584.058 425.791 583.857 425.949L584.77 425.249C584.664 425.496 583.92 425.823 583.688 425.962C582.938 426.408 582.154 426.799 581.345 427.131L583.091 426.406C581.765 426.932 580.382 427.306 578.969 427.52L580.911 427.263C579.523 427.451 578.116 427.466 576.724 427.307L578.666 427.564C577.527 427.409 576.413 427.114 575.349 426.684L577.094 427.409C576.527 427.166 575.98 426.878 575.459 426.549C575.194 426.38 574.382 425.774 575.444 426.573C576.548 427.404 575.586 426.644 575.359 426.424C575.17 426.24 574.999 426.04 574.814 425.853C573.954 424.985 575.784 427.346 575.2 426.331C574.888 425.822 574.602 425.298 574.345 424.761L575.081 426.48C574.746 425.661 574.508 424.808 574.372 423.936L574.633 425.849C574.493 424.764 574.492 423.667 574.63 422.582L574.369 424.495C574.548 423.284 574.873 422.098 575.338 420.964L574.601 422.683C574.926 421.92 575.309 421.182 575.749 420.477C575.952 420.113 576.189 419.769 576.459 419.45C576.507 419.465 575.223 420.901 575.904 420.176C576.082 419.986 576.249 419.786 576.429 419.598C576.718 419.297 577.027 419.022 577.331 418.737C578.349 417.783 575.907 419.664 577.081 418.909C577.932 418.357 578.828 417.876 579.76 417.47L578.014 418.195C579.574 417.564 581.21 417.132 582.881 416.91L580.938 417.167C583.031 416.93 585.146 416.954 587.233 417.24L585.29 416.983C587.933 417.378 590.515 418.093 592.979 419.113L591.234 418.388C596.484 420.608 601.135 423.904 605.777 427.136C610.261 430.334 614.986 433.191 619.91 435.682C630.503 440.869 641.906 444.266 653.642 445.731C670.473 447.761 687.552 445.597 703.313 439.436C719.073 433.275 733.01 423.314 743.845 410.469C745.167 409.088 745.929 407.277 745.985 405.38C745.971 403.474 745.204 401.649 743.845 400.292C741.164 397.868 736.1 397.184 733.511 400.292C731.058 403.242 728.42 406.038 725.613 408.665C724.303 409.889 722.958 411.076 721.578 412.225C720.789 412.881 719.99 413.524 719.18 414.154C718.797 414.453 717.603 415.246 719.436 413.965C719.016 414.259 718.613 414.579 718.198 414.881C712.063 419.336 705.413 423.06 698.389 425.977L700.135 425.252C692.598 428.365 684.682 430.501 676.586 431.606L678.528 431.349C670.2 432.428 661.763 432.415 653.437 431.312L655.38 431.569C647.056 430.443 638.916 428.26 631.162 425.073L632.908 425.799C625.426 422.538 618.325 418.488 611.731 413.718C608.299 411.215 604.679 408.972 600.904 407.007C596.505 404.795 591.742 403.369 586.837 402.797C577.641 401.731 568.271 405.258 563.215 413.082C558.562 420.283 558.622 430.587 565.138 436.71C571.848 443.016 582.011 442.962 589.919 439.018C597.535 435.219 602.11 427.326 605.327 419.884C612.567 403.136 618.977 386.002 624.949 368.78C630.857 351.741 636.215 334.531 641.023 317.147C641.618 314.995 642.205 312.839 642.783 310.682C643.758 307.047 641.555 302.699 637.68 301.83C635.812 301.356 633.831 301.616 632.154 302.554C630.477 303.491 629.235 305.034 628.691 306.856Z" fill="#3F3D56"/>
<path d="M701.599 304.859L698.969 396.769L696.352 488.201L694.873 539.901C694.889 541.805 695.665 543.625 697.031 544.971C698.398 546.318 700.247 547.081 702.18 547.097C704.106 547.06 705.943 546.29 707.306 544.949C708.668 543.607 709.45 541.798 709.487 539.901L712.117 447.99L714.734 356.558L716.213 304.859C716.197 302.955 715.421 301.134 714.055 299.788C712.688 298.442 710.839 297.679 708.906 297.663C706.98 297.699 705.143 298.469 703.78 299.811C702.418 301.152 701.636 302.962 701.599 304.859Z" fill="#3F3D56"/>
<path opacity="0.2" d="M448.68 514.24H450.949V412.496H503.88V410.267H450.949V367.336H491.825C491.226 366.585 490.609 365.844 489.975 365.113H450.949V336.758C450.198 336.443 449.442 336.139 448.68 335.853V365.113H404.203V328.782C403.44 328.817 402.69 328.868 401.934 328.931V365.113H366.451V338.007C365.688 338.339 364.938 338.689 364.193 339.055V365.113H334.365V367.336H364.193V410.267H334.365V412.496H364.193V514.24H366.451V412.496C371.111 412.495 375.725 413.398 380.031 415.154C384.336 416.91 388.248 419.483 391.543 422.729C394.838 425.974 397.452 429.826 399.235 434.066C401.017 438.306 401.935 442.851 401.934 447.44V514.24H404.203V412.496H448.68V514.24ZM366.451 410.267V367.336H401.934V410.267H366.451ZM404.203 410.267V367.336H405.093C410.817 367.336 416.485 368.447 421.774 370.605C427.062 372.762 431.867 375.925 435.915 379.911C439.962 383.898 443.173 388.63 445.363 393.839C447.553 399.047 448.68 404.63 448.68 410.267H404.203Z" fill="black"/>
<path d="M434.822 483.733C431.966 496.282 425.124 507.608 415.288 516.067C414.567 516.681 413.846 517.276 413.096 517.862C411.274 518.025 409.465 518.191 407.67 518.36C406.179 518.495 404.708 518.639 403.246 518.773L402.983 518.802L402.798 517.228L402.058 510.857C399.185 506.239 397.405 501.044 396.848 495.656C396.292 490.268 396.973 484.825 398.843 479.732C401.415 472.901 406.072 466.866 410.651 460.879C416.974 452.608 423.121 444.433 423.346 434.349C426.457 438.27 429.044 442.569 431.042 447.139C429.156 448.013 427.462 449.242 426.054 450.756C425.655 451.188 425.255 451.792 425.528 452.311C425.762 452.752 426.346 452.857 426.853 452.915C428.071 453.04 429.298 453.164 430.516 453.289C431.49 453.395 432.465 453.491 433.439 453.596C434.618 457.406 435.417 461.32 435.826 465.282C436.482 471.446 436.144 477.674 434.822 483.733Z" fill="#3F3D56"/>
<path d="M467.169 458.585C461.421 462.702 458.06 468.622 455.449 475.146C452.773 475.989 450.366 477.504 448.463 479.54C448.064 479.972 447.664 480.576 447.937 481.095C448.171 481.536 448.756 481.642 449.262 481.699C450.48 481.824 451.708 481.949 452.926 482.073C450.315 489.787 447.918 497.77 443.3 504.285C440.229 508.586 436.225 512.162 431.579 514.753C430.313 515.464 429.005 516.101 427.663 516.662C422.713 517.036 417.858 517.436 413.097 517.862C411.276 518.025 409.467 518.191 407.671 518.36C406.18 518.495 404.709 518.639 403.248 518.773C403.238 518.245 403.238 517.718 403.248 517.19C403.556 503.132 408.807 489.616 418.105 478.945C418.544 478.446 418.992 477.957 419.45 477.468C424.16 472.513 429.7 468.391 435.827 465.283C445.482 460.339 456.303 458.027 467.169 458.585Z" fill="#1E3A8A"/>
<path d="M409.357 513.438L408.236 516.701L407.671 518.36C406.181 518.495 404.71 518.639 403.248 518.773L402.985 518.802C401.368 518.965 399.76 519.128 398.153 519.291C397.734 518.811 397.315 518.322 396.906 517.823C386.736 505.696 381.855 490.097 383.328 474.436C384.801 458.775 392.509 444.325 404.768 434.244C403.482 440.874 404.982 447.225 407.447 453.529C407.184 453.635 406.931 453.74 406.687 453.855C404.801 454.73 403.107 455.958 401.699 457.472C401.3 457.904 400.9 458.509 401.173 459.027C401.407 459.468 401.991 459.574 402.498 459.631C403.716 459.756 404.943 459.881 406.161 460.005C407.135 460.111 408.11 460.207 409.084 460.312C409.542 460.36 410 460.408 410.458 460.456C410.526 460.6 410.584 460.735 410.653 460.879C413.429 466.808 416.42 472.766 418.106 478.945C418.528 480.496 418.86 482.069 419.1 483.656C419.85 489.022 419.364 494.486 417.677 499.642C415.99 504.797 413.147 509.513 409.357 513.438Z" fill="#1E3A8A"/>
<path d="M507.423 374.277C499.036 358.166 486.042 344.61 470.76 334.648C455.428 324.699 437.835 318.641 419.549 317.013C417.152 316.798 414.75 316.672 412.341 316.636C409.494 316.594 366.681 328.756 352.338 338.686C338.004 348.496 326.212 361.487 317.914 376.611C309.631 391.818 305.557 408.904 306.101 426.152C306.811 443.504 311.722 460.438 320.425 475.542C329.01 490.597 341.198 503.358 355.932 512.717C370.875 522.107 385.886 547.005 403.529 547.883C421.305 548.769 441.578 525.283 457.791 518.152C474.004 510.962 488.02 499.713 498.443 485.525C508.571 471.622 515.124 455.507 517.538 438.561C520.045 421.211 518.877 403.317 512.86 386.734C511.316 382.473 509.5 378.313 507.423 374.277C505.69 370.914 500.608 369.676 497.426 371.696C495.787 372.69 494.6 374.267 494.112 376.101C493.624 377.935 493.872 379.883 494.805 381.541C495.823 383.516 496.77 385.524 497.645 387.564L496.908 385.845C500.221 393.689 502.473 401.927 503.608 410.349L503.347 408.435C504.554 417.572 504.532 426.825 503.282 435.956L503.543 434.043C502.28 443.172 499.806 452.1 496.183 460.595L496.92 458.876C495.056 463.211 492.884 467.41 490.42 471.444C489.171 473.481 487.846 475.471 486.444 477.413C485.829 478.265 485.195 479.103 484.555 479.938C483.721 481.027 485.692 478.514 484.83 479.583C484.683 479.765 484.538 479.948 484.39 480.129C483.948 480.674 483.499 481.214 483.044 481.749C480.006 485.318 476.691 488.649 473.129 491.711C472.242 492.474 471.34 493.22 470.423 493.948C469.966 494.311 469.515 494.689 469.039 495.027C469.057 495.014 470.577 493.876 469.677 494.537C469.394 494.745 469.114 494.955 468.83 495.162C466.94 496.541 465 497.85 463.009 499.088C458.427 501.932 453.62 504.406 448.633 506.489L450.379 505.764C441.778 509.329 432.738 511.765 423.492 513.009L425.435 512.752C416.193 513.982 406.827 513.998 397.581 512.801L399.524 513.058C391.121 511.946 382.901 509.758 375.074 506.548L376.82 507.273C372.286 505.388 367.915 503.145 363.749 500.566C361.687 499.287 359.679 497.928 357.724 496.491C357.446 496.286 357.169 496.078 356.891 495.871C355.999 495.208 357.532 496.36 357.544 496.368C357.026 496.002 356.527 495.61 356.049 495.193C355.105 494.436 354.176 493.661 353.261 492.869C349.602 489.696 346.185 486.262 343.038 482.594C342.25 481.677 341.479 480.746 340.725 479.801C340.398 479.392 339.803 478.563 341.119 480.309C340.946 480.079 340.766 479.854 340.591 479.626C340.171 479.077 339.757 478.524 339.348 477.968C337.917 476.018 336.557 474.02 335.268 471.975C332.355 467.345 329.812 462.498 327.664 457.479L328.4 459.198C324.884 450.959 322.48 442.303 321.249 433.449L321.51 435.362C320.399 427.2 320.383 418.93 321.463 410.765L321.202 412.678C322.308 404.77 324.469 397.041 327.626 389.69L326.89 391.409C328.877 386.806 331.22 382.362 333.9 378.114C335.241 375.988 336.663 373.914 338.165 371.892C338.506 371.433 338.851 370.976 339.2 370.522C339.516 370.112 340.384 369.089 338.903 370.895C339.048 370.718 339.188 370.536 339.331 370.357C340.155 369.329 340.999 368.317 341.863 367.32C345.135 363.549 348.678 360.015 352.467 356.746C353.424 355.92 354.397 355.111 355.384 354.32C355.833 353.96 356.285 353.604 356.739 353.252C356.921 353.111 357.106 352.973 357.287 352.831C355.34 354.356 356.746 353.246 357.188 352.92C359.223 351.418 361.313 349.991 363.457 348.64C368.224 345.638 373.239 343.035 378.448 340.86L376.702 341.586C384.263 338.46 417.759 331.08 423.851 331.886L421.909 331.629C430.863 332.86 439.615 335.241 447.941 338.712L446.196 337.987C450.415 339.751 454.515 341.779 458.472 344.059C460.448 345.2 462.386 346.404 464.285 347.669C465.184 348.268 466.073 348.881 466.953 349.507C467.393 349.82 467.83 350.136 468.265 350.455C468.506 350.633 468.746 350.813 468.987 350.991C469.999 351.738 467.592 349.908 468.654 350.735C472.206 353.483 475.58 356.449 478.755 359.613C480.314 361.177 481.82 362.791 483.272 364.454C484.017 365.307 484.747 366.173 485.461 367.052C485.816 367.488 487.025 369.068 485.543 367.133C485.905 367.606 486.271 368.075 486.629 368.552C489.708 372.656 492.442 377 494.805 381.541C496.552 384.897 501.612 386.148 504.802 384.123C506.442 383.129 507.629 381.551 508.117 379.718C508.606 377.884 508.357 375.935 507.423 374.277Z" fill="#3F3D56"/>
<path d="M422.283 491.712C421.528 491.746 420.782 491.551 420.144 491.153C419.506 490.755 419.007 490.174 418.716 489.488C418.425 488.802 418.355 488.044 418.515 487.318C418.676 486.591 419.059 485.931 419.614 485.426C419.707 485.062 419.773 484.801 419.866 484.438C419.833 484.359 419.799 484.28 419.766 484.201C416.375 476.239 394.742 498.433 393.806 505.915C393.394 509.223 393.568 512.575 394.32 515.824C387.312 500.77 383.674 484.409 383.65 467.848C383.649 463.693 383.883 459.54 384.352 455.41C384.74 452.025 385.278 448.663 385.966 445.326C389.722 427.217 397.787 410.244 409.497 395.801C416.193 396.169 422.063 395.165 422.629 382.383C422.73 380.109 424.443 378.14 424.82 375.9C424.181 375.983 423.531 376.035 422.891 376.076C422.692 376.086 422.483 376.097 422.284 376.107L422.208 376.11C421.506 376.141 420.809 375.972 420.202 375.622C419.595 375.272 419.104 374.757 418.787 374.138C418.47 373.519 418.342 372.824 418.417 372.135C418.493 371.447 418.769 370.794 419.212 370.256C419.488 369.922 419.764 369.587 420.041 369.253C420.46 368.737 420.89 368.231 421.309 367.715C421.357 367.666 421.403 367.614 421.445 367.56C421.927 366.972 422.409 366.394 422.892 365.805C422.011 364.46 420.828 363.334 419.433 362.513C414.601 359.726 407.935 361.656 404.445 365.96C400.944 370.265 400.284 376.303 401.499 381.681C402.695 386.257 404.673 390.599 407.348 394.521C407.086 394.851 406.813 395.171 406.551 395.502C401.761 401.567 397.587 408.081 394.087 414.948C395.077 407.332 382.969 379.824 378.286 373.998C372.662 366.999 361.129 370.053 360.138 378.925C360.128 379.011 360.119 379.097 360.11 379.183C360.805 379.569 361.486 379.979 362.152 380.413C362.989 380.964 363.637 381.751 364.012 382.67C364.387 383.59 364.472 384.6 364.254 385.568C364.036 386.535 363.527 387.416 362.792 388.093C362.058 388.771 361.133 389.214 360.138 389.365L360.036 389.381C350.726 402.472 380.571 436.543 388.042 428.893C384.526 438.706 382.32 448.928 381.481 459.302C381.005 465.421 381.033 471.569 381.564 477.685L381.533 477.468C379.873 464.148 351.397 444.345 343.082 445.994C338.292 446.945 333.574 446.728 334.301 451.487C334.313 451.563 334.325 451.639 334.336 451.715C335.627 452.233 336.884 452.829 338.099 453.501C338.795 453.887 339.475 454.297 340.142 454.731C340.978 455.282 341.627 456.068 342.002 456.988C342.377 457.908 342.461 458.918 342.243 459.885C342.026 460.853 341.516 461.733 340.782 462.411C340.048 463.089 339.122 463.532 338.128 463.683L338.026 463.699C337.952 463.709 337.889 463.719 337.816 463.73C333.578 478.089 365.005 501.264 384.111 493.89H384.122C386.015 501.993 388.758 509.88 392.308 517.424H421.55C421.655 517.104 421.749 516.774 421.843 516.454C419.137 516.622 416.419 516.462 413.752 515.979C415.921 513.357 418.091 510.715 420.261 508.093C420.309 508.044 420.355 507.993 420.397 507.938C421.497 506.597 422.608 505.265 423.709 503.923L423.71 503.922C423.768 499.808 423.289 495.705 422.283 491.712L422.283 491.712ZM388.796 426.839L388.812 426.819L388.796 426.86V426.839ZM382.319 484.342L382.067 483.785C382.078 483.383 382.078 482.98 382.067 482.567C382.067 482.454 382.047 482.34 382.047 482.227C382.141 482.939 382.225 483.651 382.329 484.363L382.319 484.342Z" fill="#3F3D56"/>
<path d="M93.7111 431.787C99.6299 431.787 104.428 427.062 104.428 421.233C104.428 415.404 99.6299 410.679 93.7111 410.679C87.7923 410.679 82.9941 415.404 82.9941 421.233C82.9941 427.062 87.7923 431.787 93.7111 431.787Z" fill="#3F3D56"/>
<path d="M222.317 546.924C228.235 546.924 233.034 542.199 233.034 536.37C233.034 530.541 228.235 525.816 222.317 525.816C216.398 525.816 211.6 530.541 211.6 536.37C211.6 542.199 216.398 546.924 222.317 546.924Z" fill="#3F3D56"/>
<path d="M710.424 546.924C716.343 546.924 721.141 542.199 721.141 536.37C721.141 530.541 716.343 525.816 710.424 525.816C704.505 525.816 699.707 530.541 699.707 536.37C699.707 542.199 704.505 546.924 710.424 546.924Z" fill="#3F3D56"/>
<path d="M736.731 412.598C742.649 412.598 747.448 407.873 747.448 402.044C747.448 396.215 742.649 391.49 736.731 391.49C730.812 391.49 726.014 396.215 726.014 402.044C726.014 407.873 730.812 412.598 736.731 412.598Z" fill="#3F3D56"/>
<path d="M705.553 314.732C711.472 314.732 716.27 310.007 716.27 304.178C716.27 298.349 711.472 293.624 705.553 293.624C699.634 293.624 694.836 298.349 694.836 304.178C694.836 310.007 699.634 314.732 705.553 314.732Z" fill="#3F3D56"/>
<path d="M258.364 402.044C258.357 404.74 257.299 407.33 255.407 409.279C253.515 411.227 250.935 412.385 248.201 412.513C245.466 412.64 242.787 411.727 240.717 409.963C238.647 408.199 237.344 405.719 237.079 403.036C236.814 400.352 237.607 397.671 239.294 395.548C240.98 393.424 243.431 392.02 246.139 391.626C248.847 391.233 251.605 391.879 253.843 393.433C256.08 394.986 257.626 397.327 258.159 399.971C258.297 400.654 258.365 401.348 258.364 402.044Z" fill="#3F3D56"/>
<path d="M472.703 345.435C478.622 345.435 483.42 340.71 483.42 334.881C483.42 329.052 478.622 324.327 472.703 324.327C466.784 324.327 461.986 329.052 461.986 334.881C461.986 340.71 466.784 345.435 472.703 345.435Z" fill="#3F3D56"/>
<path d="M366.508 334.881C366.502 337.577 365.443 340.167 363.552 342.116C361.66 344.064 359.08 345.222 356.345 345.35C353.611 345.477 350.931 344.564 348.861 342.8C346.791 341.036 345.489 338.556 345.224 335.873C344.959 333.189 345.752 330.509 347.438 328.385C349.124 326.261 351.575 324.857 354.283 324.463C356.992 324.07 359.75 324.717 361.987 326.27C364.225 327.823 365.77 330.164 366.304 332.808C366.441 333.491 366.51 334.185 366.508 334.881Z" fill="#3F3D56"/>
<path d="M228.161 304.178C228.154 306.874 227.096 309.464 225.204 311.413C223.312 313.361 220.732 314.519 217.998 314.647C215.263 314.774 212.584 313.861 210.514 312.097C208.443 310.333 207.141 307.853 206.876 305.17C206.611 302.486 207.404 299.805 209.09 297.682C210.777 295.558 213.228 294.154 215.936 293.76C218.644 293.367 221.402 294.013 223.64 295.567C225.877 297.12 227.423 299.461 227.956 302.105C228.094 302.788 228.162 303.482 228.161 304.178Z" fill="#3F3D56"/>
<path d="M584.744 435.625C590.663 435.625 595.461 430.9 595.461 425.071C595.461 419.242 590.663 414.517 584.744 414.517C578.825 414.517 574.027 419.242 574.027 425.071C574.027 430.9 578.825 435.625 584.744 435.625Z" fill="#3F3D56"/>
<path d="M416.196 339.678C424.805 339.678 431.784 332.805 431.784 324.327C431.784 315.848 424.805 308.975 416.196 308.975C407.587 308.975 400.607 315.848 400.607 324.327C400.607 332.805 407.587 339.678 416.196 339.678Z" fill="#3F3D56"/>
<path d="M837.754 547.73L2.0741 548.025C1.92176 548.025 1.77091 547.996 1.63017 547.938C1.48942 547.881 1.36155 547.797 1.25383 547.691C1.14611 547.585 1.06065 547.459 1.00235 547.32C0.944055 547.182 0.914062 547.033 0.914062 546.883C0.914062 546.733 0.944055 546.584 1.00235 546.446C1.06065 546.307 1.14611 546.181 1.25383 546.075C1.36155 545.969 1.48942 545.885 1.63017 545.827C1.77091 545.77 1.92176 545.74 2.0741 545.74L837.754 545.446C838.061 545.446 838.355 545.567 838.572 545.781C838.789 545.996 838.911 546.286 838.911 546.588C838.911 546.89 838.789 547.181 838.572 547.395C838.355 547.609 838.061 547.73 837.754 547.73Z" fill="#CACACA"/>
</g>
<defs>
<clipPath id="clip0_440_4160">
<rect width="838" height="548" fill="white" transform="translate(0.914062 0.0253906)"/>
</clipPath>
</defs>
</svg>
