<svg width="839" height="549" viewBox="0 0 839 549" fill="none" xmlns="http://www.w3.org/2000/svg">
<g clip-path="url(#clip0_440_4082)">
<path d="M425.437 154.046C417.965 141.876 409.111 128.882 395.245 124.908C379.187 120.306 362.692 129.448 348.7 138.469C306.856 165.45 266.559 194.689 227.994 226.053L228.036 226.525C258.06 224.486 288.085 222.447 318.109 220.408C339.801 218.935 362.239 217.259 381.409 207.153C388.683 203.318 395.774 198.195 404.017 197.838C414.259 197.395 423.188 204.439 430.206 211.798C471.717 255.33 483.729 321.901 530.3 360.147C500.934 288.825 465.87 219.908 425.437 154.046Z" fill="#F2F2F2"/>
<path d="M680.601 523.278C676.01 517.57 674.135 516.233 669.606 510.472C632.737 463.511 598.083 414.964 565.644 364.831C543.61 330.783 522.669 296.08 502.821 260.724C493.371 243.916 484.181 226.975 475.249 209.902C468.319 196.665 461.543 183.348 454.921 169.952C453.028 166.126 451.188 162.282 449.357 158.429C445.043 149.37 440.809 140.266 436.263 131.33C431.083 121.144 424.778 110.466 415.265 103.623C410.937 100.381 405.76 98.4193 400.341 97.9674C392.598 97.4748 385.452 100.624 378.736 104.063C329.595 129.298 283.59 160.936 241.978 196.937C200.26 233.019 162.971 273.783 130.871 318.398C129.889 319.779 127.566 318.46 128.558 317.07C132.461 311.634 136.441 306.257 140.499 300.939C190.955 234.852 252.822 178.022 323.272 133.045C335.124 125.481 347.199 118.271 359.498 111.416C365.696 107.959 371.921 104.547 378.254 101.345C384.461 98.2049 391.052 95.3814 398.144 95.2759C422.277 94.9065 434.772 121.821 443.355 139.932C446.052 145.632 448.782 151.314 451.545 156.978C461.986 178.484 472.829 199.793 484.073 220.906C491.013 233.941 498.105 246.9 505.348 259.783C527.891 299.901 551.851 339.206 577.228 377.699C610.846 428.688 644.196 473.732 682.494 521.413C683.548 522.733 681.664 524.615 680.601 523.278Z" fill="#E4E4E4"/>
<path d="M239.592 183.647C238.189 182.108 236.796 180.568 235.385 179.029C224.256 166.909 212.315 154.929 197.033 147.98C189.747 144.562 181.792 142.746 173.722 142.659C165.38 142.685 157.226 144.84 149.518 147.857C145.874 149.291 142.31 150.918 138.801 152.651C134.79 154.638 130.851 156.758 126.931 158.896C119.571 162.907 112.307 167.093 105.138 171.456C90.8744 180.137 77.0574 189.481 63.6871 199.488C56.7561 204.678 49.9681 210.037 43.3232 215.567C37.1427 220.704 31.0872 225.978 25.1568 231.39C23.8886 232.543 21.995 230.678 23.2632 229.526C24.8262 228.092 26.4071 226.667 27.988 225.26C32.4537 221.284 36.9909 217.385 41.5997 213.561C50.0039 206.578 58.6257 199.863 67.4651 193.419C81.2107 183.392 95.4295 174.045 110.121 165.378C117.463 161.051 124.906 156.905 132.45 152.941C134.728 151.745 137.032 150.575 139.363 149.467C144.652 146.839 150.148 144.636 155.797 142.879C163.799 140.329 172.265 139.51 180.617 140.477C188.682 141.633 196.452 144.28 203.518 148.279C218.522 156.538 230.16 169.31 241.485 181.773C242.629 183.04 240.744 184.914 239.592 183.647Z" fill="#E4E4E4"/>
<path d="M547.034 309.248L582.989 296.297L600.84 289.867C606.655 287.773 612.455 285.389 618.465 283.889C623.688 282.42 629.234 282.49 634.417 284.09C639.04 285.775 643.271 288.358 646.86 291.685C650.526 295.01 653.937 298.598 657.065 302.418C660.952 307.018 664.781 311.667 668.627 316.299C684.502 335.419 700.273 354.621 715.941 373.907C731.608 393.192 747.17 412.56 762.628 432.009C778.123 451.506 793.512 471.084 808.794 490.744C810.666 493.152 812.536 495.562 814.405 497.972C815.438 499.304 817.766 497.991 816.719 496.64C801.324 476.783 785.822 457.007 770.212 437.312C754.564 417.57 738.808 397.912 722.944 378.337C707.08 358.763 691.109 339.274 675.031 319.87C671.025 315.035 667.013 310.206 662.994 305.383C659.604 301.314 656.253 297.201 652.534 293.414C645.709 286.463 637.182 280.319 626.975 280.153C620.974 280.055 615.166 281.93 609.59 283.917C603.579 286.058 597.583 288.24 591.579 290.402L555.373 303.444L546.321 306.704C544.715 307.283 545.409 309.834 547.034 309.248Z" fill="#E4E4E4"/>
<path d="M192.303 163.232C174.031 153.984 150.632 155.795 133.842 167.349C165.868 172.79 197.544 180.071 228.707 189.154C215.766 181.685 205.643 169.984 192.303 163.232Z" fill="#F2F2F2"/>
<path d="M133.662 167.317L130.145 170.133C131.334 169.147 132.571 168.223 133.842 167.349C133.782 167.339 133.722 167.327 133.662 167.317Z" fill="#F2F2F2"/>
<path d="M645.505 309.378C641.965 305.135 638.139 300.692 632.845 298.969L627.902 299.161C665.527 364.634 716.341 421.845 777.226 467.28C733.319 414.646 689.412 362.012 645.505 309.378Z" fill="#F2F2F2"/>
<path d="M338.157 274.377C340.444 282.561 345.597 289.684 352.704 294.486C355.451 296.328 358.702 298.096 359.642 301.236C360.137 303.237 359.832 305.35 358.791 307.136C357.752 308.9 356.488 310.526 355.029 311.973L354.896 312.465C348.078 308.485 341.591 303.452 337.825 296.584C334.058 289.717 333.532 280.716 338.157 274.377Z" fill="#F2F2F2"/>
<path d="M565.163 469.15C567.45 477.333 572.603 484.457 579.71 489.259C582.457 491.101 585.708 492.868 586.648 496.008C587.143 498.01 586.838 500.122 585.797 501.909C584.758 503.673 583.494 505.299 582.035 506.746L581.902 507.237C575.083 503.258 568.597 498.225 564.83 491.357C561.064 484.489 560.538 475.488 565.163 469.15Z" fill="#F2F2F2"/>
<path d="M112.126 455.717C114.413 463.901 119.566 471.024 126.673 475.826C129.42 477.669 132.671 479.436 133.611 482.576C134.105 484.577 133.801 486.69 132.76 488.476C131.721 490.24 130.456 491.866 128.998 493.314L128.865 493.805C122.046 489.826 115.56 484.792 111.793 477.924C108.027 471.057 107.501 462.056 112.126 455.717Z" fill="#F2F2F2"/>
<path d="M633.457 97.8914C660.899 97.8914 683.145 75.9834 683.145 48.9584C683.145 21.9335 660.899 0.0253906 633.457 0.0253906C606.015 0.0253906 583.77 21.9335 583.77 48.9584C583.77 75.9834 606.015 97.8914 633.457 97.8914Z" fill="#FF6584"/>
<path d="M723.124 11.4146C699.043 8.20903 671.551 21.0272 665.31 44.1551C663.737 40.043 660.877 36.5297 657.144 34.1229C653.411 31.7161 648.997 30.5404 644.541 30.7656C640.085 30.9907 635.817 32.6052 632.353 35.3757C628.89 38.1462 626.411 41.9292 625.273 46.1783L628.03 48.1229C679.635 59.1129 733.054 58.8751 784.555 47.4259C767.805 30.0893 747.205 14.62 723.124 11.4146Z" fill="#F0F0F0"/>
<path d="M619.851 76.6587C595.77 73.4532 568.278 86.2713 562.036 109.399C560.463 105.287 557.604 101.774 553.87 99.3671C550.137 96.9602 545.724 95.7845 541.268 96.0097C536.812 96.2349 532.543 97.8493 529.08 100.62C525.617 103.39 523.137 107.173 522 111.422L524.757 113.367C576.362 124.357 629.78 124.119 681.282 112.67C664.531 95.3335 643.931 79.8642 619.851 76.6587Z" fill="#F0F0F0"/>
<path d="M830.029 88.9954C829.929 88.9956 829.83 88.9805 829.735 88.9505C572.132 8.72126 345.09 19.2126 199.987 42.1416C180.24 45.2608 160.44 48.8635 141.137 52.8504C136.209 53.867 131.097 54.9567 125.942 56.0914C119.785 57.4416 113.711 58.8321 107.886 60.2226C105.371 60.8091 102.904 61.4003 100.487 61.9963C96.8254 62.8864 93.11 63.814 89.1273 64.8334C84.677 65.9634 80.1553 67.1487 75.685 68.3565C75.6686 68.3621 75.6519 68.3668 75.635 68.3705L75.6355 68.3715C70.5862 69.7291 65.5636 71.1262 60.7065 72.5214C58.0777 73.2691 55.5393 74.0065 53.1079 74.7346C52.8363 74.8086 52.5956 74.8798 52.3515 74.9529L51.8292 75.1093C51.5266 75.2002 51.2279 75.2892 50.9291 75.3736L50.9101 75.3792L50.9105 75.3801L50.1199 75.6219C49.177 75.9031 48.257 76.1776 47.3522 76.4512C23.4388 83.7109 10.2928 88.8756 10.1629 88.9262C10.0442 88.973 9.91722 88.9964 9.78928 88.995C9.66135 88.9935 9.53495 88.9673 9.41732 88.9177C9.29968 88.8682 9.1931 88.7963 9.10367 88.7062C9.01424 88.6161 8.94371 88.5095 8.89611 88.3925C8.8485 88.2756 8.82477 88.1505 8.82624 88.0245C8.8277 87.8986 8.85436 87.7741 8.90467 87.6582C8.95498 87.5424 9.02797 87.4374 9.11947 87.3494C9.21097 87.2613 9.31919 87.1918 9.43795 87.145C9.56877 87.0944 22.779 81.9035 46.7794 74.6166C47.6876 74.342 48.61 74.0675 49.5557 73.7854L50.2902 73.5606C50.3154 73.5512 50.3406 73.5437 50.3663 73.5362C50.6636 73.4528 50.9605 73.3638 51.2621 73.2739L51.7854 73.1174C52.0461 73.0396 52.303 72.9628 52.566 72.8916C54.9808 72.1682 57.5278 71.4289 60.1632 70.6784C65.0222 69.2823 70.0496 67.8853 75.1027 66.5257C75.1184 66.5201 75.1346 66.5163 75.1503 66.5116C79.6363 65.3001 84.1746 64.1092 88.6393 62.9755C92.6281 61.9551 96.3506 61.0256 100.018 60.1336C102.446 59.5386 104.917 58.9461 107.432 58.3561C113.263 56.9638 119.35 55.5714 125.517 54.2184C130.68 53.0828 135.801 51.9903 140.737 50.9727C160.07 46.9793 179.901 43.3709 199.678 40.247C344.989 17.2853 572.356 6.777 830.322 87.1215C830.544 87.1904 830.733 87.3353 830.856 87.5298C830.979 87.7244 831.027 87.9558 830.992 88.1822C830.956 88.4086 830.84 88.6151 830.663 88.7642C830.487 88.9134 830.262 88.9954 830.029 88.9954Z" fill="#CCCCCC"/>
<path opacity="0.2" d="M271.455 539.457H273.724V437.713H326.655V435.485H273.724V392.554H314.6C314.001 391.803 313.385 391.062 312.75 390.331H273.724V361.975C272.974 361.66 272.217 361.357 271.455 361.07V390.331H226.978V354C226.216 354.034 225.465 354.086 224.709 354.149V390.331H189.226V363.224C188.464 363.557 187.713 363.906 186.969 364.273V390.331H157.141V392.554H186.969V435.485H157.141V437.713H186.969V539.457H189.226V437.713C193.886 437.712 198.5 438.616 202.806 440.371C207.111 442.127 211.023 444.701 214.318 447.946C217.613 451.191 220.227 455.044 222.01 459.284C223.793 463.524 224.71 468.068 224.709 472.657V539.457H226.978V437.713H271.455V539.457ZM189.226 435.485V392.554H224.709V435.485H189.226ZM226.978 435.485V392.554H227.868C233.592 392.554 239.261 393.665 244.549 395.822C249.838 397.98 254.643 401.142 258.69 405.129C262.738 409.115 265.948 413.848 268.138 419.056C270.329 424.265 271.456 429.847 271.455 435.485H226.978Z" fill="black"/>
<path d="M257.596 508.95C254.739 521.499 247.897 532.825 238.062 541.285C237.341 541.899 236.62 542.493 235.87 543.079C234.048 543.242 232.239 543.408 230.443 543.578C228.952 543.712 227.481 543.856 226.02 543.99L225.757 544.019L225.572 542.446L224.831 536.075C221.959 531.456 220.178 526.261 219.622 520.873C219.065 515.485 219.747 510.043 221.616 504.949C224.188 498.118 228.845 492.083 233.424 486.096C239.747 477.825 245.895 469.65 246.119 459.566C249.23 463.487 251.817 467.786 253.816 472.356C251.93 473.231 250.235 474.459 248.827 475.973C248.428 476.405 248.029 477.01 248.301 477.528C248.535 477.969 249.12 478.075 249.626 478.132C250.844 478.257 252.072 478.382 253.29 478.506C254.264 478.612 255.238 478.708 256.212 478.813C257.391 482.623 258.19 486.537 258.599 490.5C259.256 496.664 258.917 502.891 257.596 508.95Z" fill="#3F3D56"/>
<path d="M289.941 483.802C284.193 487.919 280.831 493.839 278.22 500.363C275.544 501.206 273.137 502.721 271.235 504.757C270.835 505.189 270.436 505.794 270.709 506.312C270.943 506.753 271.527 506.859 272.034 506.916C273.252 507.041 274.479 507.166 275.697 507.29C273.086 515.004 270.689 522.987 266.071 529.502C263 533.803 258.997 537.379 254.351 539.97C253.084 540.681 251.776 541.318 250.434 541.879C245.485 542.253 240.63 542.653 235.869 543.079C234.047 543.242 232.238 543.408 230.442 543.578C228.952 543.712 227.48 543.856 226.019 543.99C226.009 543.462 226.009 542.935 226.019 542.407C226.327 528.349 231.578 514.833 240.877 504.162C241.315 503.663 241.763 503.174 242.221 502.685C246.932 497.73 252.471 493.608 258.599 490.5C268.253 485.556 279.074 483.244 289.941 483.802Z" fill="#1E3A8A"/>
<path d="M232.13 538.656L231.01 541.918L230.445 543.578C228.954 543.712 227.483 543.856 226.022 543.99L225.759 544.019C224.141 544.182 222.534 544.345 220.926 544.508C220.507 544.029 220.088 543.539 219.679 543.04C209.51 530.913 204.628 515.314 206.102 499.653C207.575 483.992 215.283 469.542 227.541 459.461C226.255 466.091 227.756 472.443 230.221 478.746C229.958 478.852 229.704 478.957 229.461 479.073C227.575 479.947 225.88 481.176 224.473 482.69C224.073 483.121 223.674 483.726 223.946 484.244C224.18 484.685 224.765 484.791 225.271 484.848C226.489 484.973 227.717 485.098 228.935 485.223C229.909 485.328 230.883 485.424 231.857 485.53C232.315 485.578 232.773 485.626 233.231 485.674C233.299 485.818 233.358 485.952 233.426 486.096C236.203 492.025 239.194 497.984 240.879 504.163C241.302 505.713 241.634 507.286 241.873 508.874C242.623 514.24 242.137 519.703 240.45 524.859C238.764 530.015 235.92 534.73 232.13 538.656Z" fill="#1E3A8A"/>
<path d="M245.056 516.928C244.302 516.962 243.555 516.767 242.917 516.369C242.279 515.971 241.781 515.39 241.489 514.704C241.198 514.018 241.128 513.26 241.289 512.534C241.449 511.807 241.833 511.147 242.387 510.642C242.48 510.278 242.547 510.017 242.639 509.654C242.606 509.575 242.573 509.496 242.539 509.417C239.149 501.455 217.515 523.649 216.58 531.131C216.168 534.439 216.342 537.791 217.093 541.04C210.086 525.986 206.447 509.625 206.424 493.064C206.422 488.909 206.656 484.756 207.126 480.626C207.514 477.241 208.052 473.879 208.74 470.542C212.496 452.433 220.56 435.46 232.27 421.017C238.967 421.385 244.836 420.381 245.403 407.599C245.504 405.325 247.216 403.356 247.593 401.116C246.954 401.199 246.304 401.251 245.665 401.292C245.466 401.302 245.256 401.313 245.057 401.323L244.982 401.326C244.279 401.357 243.582 401.188 242.975 400.838C242.368 400.488 241.877 399.973 241.56 399.354C241.244 398.735 241.115 398.04 241.191 397.351C241.266 396.663 241.542 396.01 241.985 395.472C242.261 395.138 242.538 394.803 242.814 394.469C243.233 393.953 243.663 393.447 244.082 392.931C244.131 392.882 244.176 392.83 244.218 392.776C244.701 392.188 245.183 391.61 245.665 391.021C244.785 389.676 243.601 388.55 242.206 387.729C237.374 384.942 230.708 386.872 227.218 391.176C223.717 395.481 223.057 401.519 224.273 406.897C225.469 411.473 227.446 415.815 230.121 419.737C229.859 420.067 229.587 420.387 229.325 420.718C224.535 426.783 220.36 433.297 216.86 440.164C217.851 432.548 205.742 405.04 201.06 399.214C195.435 392.215 183.902 395.269 182.911 404.141C182.901 404.227 182.892 404.313 182.883 404.399C183.578 404.785 184.259 405.195 184.925 405.629C185.762 406.18 186.411 406.967 186.786 407.886C187.161 408.806 187.245 409.816 187.027 410.784C186.81 411.751 186.3 412.632 185.566 413.309C184.831 413.987 183.906 414.43 182.911 414.581L182.81 414.597C173.5 427.688 203.345 461.759 210.815 454.109C207.299 463.922 205.093 474.144 204.254 484.518C203.779 490.637 203.807 496.785 204.338 502.901L204.306 502.684C202.647 489.364 174.171 469.561 165.856 471.21C161.065 472.161 156.347 471.944 157.075 476.703C157.086 476.779 157.098 476.855 157.11 476.931C158.401 477.449 159.657 478.045 160.873 478.717C161.568 479.103 162.249 479.513 162.915 479.947C163.752 480.498 164.4 481.284 164.775 482.204C165.15 483.124 165.235 484.134 165.017 485.101C164.799 486.069 164.29 486.949 163.555 487.627C162.821 488.305 161.896 488.748 160.901 488.899L160.799 488.915C160.726 488.925 160.663 488.935 160.59 488.946C156.352 503.305 187.779 526.48 206.885 519.106H206.895C208.789 527.209 211.532 535.096 215.081 542.64H244.323C244.428 542.32 244.522 541.99 244.617 541.67C241.91 541.838 239.193 541.678 236.525 541.195C238.695 538.573 240.864 535.931 243.034 533.309C243.082 533.26 243.128 533.209 243.17 533.154C244.271 531.813 245.382 530.481 246.482 529.139L246.483 529.138C246.542 525.024 246.062 520.921 245.057 516.928L245.056 516.928ZM211.57 452.055L211.585 452.035L211.57 452.076V452.055ZM205.092 509.558L204.841 509.001C204.851 508.599 204.851 508.196 204.841 507.783C204.841 507.67 204.82 507.556 204.82 507.443C204.914 508.155 204.998 508.867 205.103 509.579L205.092 509.558Z" fill="#3F3D56"/>
<path d="M837.754 547.73L2.0741 548.025C1.92176 548.025 1.77091 547.996 1.63017 547.938C1.48942 547.881 1.36155 547.797 1.25383 547.691C1.14611 547.585 1.06065 547.459 1.00235 547.32C0.944055 547.181 0.914062 547.033 0.914062 546.883C0.914062 546.733 0.944055 546.584 1.00235 546.446C1.06065 546.307 1.14611 546.181 1.25383 546.075C1.36155 545.969 1.48942 545.885 1.63017 545.827C1.77091 545.77 1.92176 545.74 2.0741 545.74L837.754 545.446C838.061 545.446 838.355 545.567 838.572 545.781C838.789 545.995 838.911 546.286 838.911 546.588C838.911 546.89 838.789 547.18 838.572 547.395C838.355 547.609 838.061 547.73 837.754 547.73Z" fill="#CACACA"/>
<path d="M599.068 305.377C631.034 305.377 656.948 280.259 656.948 249.274C656.948 218.288 631.034 193.17 599.068 193.17C567.101 193.17 541.188 218.288 541.188 249.274C541.188 280.259 567.101 305.377 599.068 305.377Z" fill="#1E3A8A"/>
<path d="M662.194 365.744H538.996C538.391 365.743 537.811 365.51 537.384 365.095C536.956 364.681 536.715 364.119 536.715 363.532V333.911C536.716 333.325 536.956 332.763 537.384 332.348C537.812 331.934 538.391 331.7 538.996 331.7H662.194C662.798 331.7 663.378 331.934 663.806 332.348C664.234 332.763 664.474 333.325 664.475 333.911V363.533C664.474 364.119 664.234 364.681 663.806 365.096C663.378 365.51 662.798 365.743 662.194 365.744V365.744ZM538.996 332.584C538.633 332.584 538.285 332.724 538.028 332.973C537.772 333.222 537.627 333.559 537.627 333.911V363.533C537.627 363.885 537.772 364.222 538.028 364.471C538.285 364.72 538.633 364.86 538.996 364.86H662.194C662.557 364.86 662.905 364.72 663.161 364.471C663.418 364.222 663.562 363.885 663.563 363.533V333.911C663.562 333.559 663.418 333.222 663.161 332.973C662.905 332.724 662.557 332.584 662.194 332.584H538.996Z" fill="#E6E6E6"/>
<path d="M577.097 342.367C576.674 342.367 576.267 342.53 575.968 342.821C575.668 343.111 575.5 343.505 575.5 343.915C575.5 344.326 575.668 344.72 575.968 345.01C576.267 345.3 576.674 345.463 577.097 345.463H652.384C652.807 345.479 653.22 345.331 653.531 345.052C653.841 344.773 654.025 344.386 654.041 343.975C654.058 343.565 653.905 343.165 653.617 342.864C653.329 342.563 652.93 342.385 652.506 342.369C652.483 342.368 652.459 342.368 652.436 342.368L577.097 342.367Z" fill="#E6E6E6"/>
<path d="M577.097 351.654C576.674 351.654 576.267 351.817 575.968 352.107C575.668 352.398 575.5 352.791 575.5 353.202C575.5 353.612 575.668 354.006 575.968 354.297C576.267 354.587 576.674 354.75 577.097 354.75H652.384C652.807 354.766 653.22 354.618 653.531 354.339C653.841 354.06 654.025 353.672 654.041 353.262C654.058 352.852 653.905 352.452 653.617 352.151C653.329 351.849 652.93 351.671 652.506 351.655C652.483 351.655 652.459 351.654 652.436 351.654L577.097 351.654Z" fill="#E6E6E6"/>
<path d="M662.194 415.116H538.996C538.391 415.116 537.811 414.882 537.384 414.468C536.956 414.053 536.715 413.491 536.715 412.905V383.284C536.716 382.697 536.956 382.135 537.384 381.721C537.812 381.306 538.391 381.073 538.996 381.072H662.194C662.798 381.073 663.378 381.306 663.806 381.721C664.234 382.135 664.474 382.697 664.475 383.284V412.906C664.474 413.492 664.233 414.054 663.806 414.468C663.378 414.882 662.798 415.115 662.194 415.116ZM538.996 381.957C538.633 381.957 538.285 382.097 538.028 382.346C537.772 382.594 537.627 382.932 537.627 383.284V412.906C537.627 413.257 537.772 413.595 538.028 413.844C538.285 414.092 538.633 414.232 538.996 414.233H662.194C662.557 414.232 662.905 414.092 663.161 413.844C663.418 413.595 663.562 413.257 663.563 412.906V383.284C663.562 382.932 663.418 382.594 663.161 382.346C662.905 382.097 662.557 381.957 662.194 381.957H538.996Z" fill="#E6E6E6"/>
<path d="M577.097 391.9C576.674 391.9 576.267 392.064 575.968 392.354C575.668 392.644 575.5 393.038 575.5 393.448C575.5 393.859 575.668 394.253 575.968 394.543C576.267 394.833 576.674 394.997 577.097 394.997H652.384C652.801 394.994 653.201 394.834 653.498 394.549C653.795 394.264 653.965 393.878 653.972 393.473C653.979 393.069 653.822 392.678 653.535 392.384C653.248 392.09 652.853 391.917 652.436 391.901H577.097V391.9Z" fill="#E6E6E6"/>
<path d="M577.097 401.189C576.674 401.189 576.267 401.352 575.968 401.643C575.668 401.933 575.5 402.327 575.5 402.737C575.5 403.148 575.668 403.542 575.968 403.832C576.267 404.122 576.674 404.285 577.097 404.285H652.384C652.801 404.283 653.201 404.122 653.498 403.838C653.795 403.553 653.965 403.167 653.972 402.762C653.979 402.358 653.822 401.967 653.535 401.673C653.248 401.379 652.853 401.205 652.436 401.19H577.097V401.189Z" fill="#E6E6E6"/>
<path d="M662.194 464.651H538.996C538.391 464.65 537.811 464.417 537.384 464.002C536.956 463.588 536.715 463.026 536.715 462.439V432.818C536.716 432.232 536.956 431.67 537.384 431.255C537.812 430.841 538.391 430.608 538.996 430.607H662.194C662.798 430.608 663.378 430.841 663.806 431.255C664.234 431.67 664.474 432.232 664.475 432.818V462.44C664.474 463.026 664.234 463.588 663.806 464.003C663.378 464.417 662.798 464.651 662.194 464.651V464.651ZM538.996 431.491C538.633 431.491 538.285 431.631 538.028 431.88C537.772 432.129 537.627 432.466 537.627 432.818V462.44C537.627 462.792 537.772 463.129 538.028 463.378C538.285 463.627 538.633 463.767 538.996 463.767H662.194C662.557 463.767 662.905 463.627 663.161 463.378C663.418 463.129 663.562 462.792 663.563 462.44V432.818C663.562 432.466 663.418 432.129 663.161 431.88C662.905 431.631 662.557 431.491 662.194 431.491H538.996Z" fill="#E6E6E6"/>
<path d="M577.097 441.436C576.674 441.436 576.267 441.599 575.968 441.89C575.668 442.18 575.5 442.574 575.5 442.984C575.5 443.395 575.668 443.789 575.968 444.079C576.267 444.369 576.674 444.533 577.097 444.533H652.384C652.594 444.54 652.803 444.508 652.999 444.437C653.196 444.367 653.377 444.259 653.531 444.121C653.684 443.983 653.809 443.817 653.896 443.632C653.984 443.447 654.033 443.248 654.041 443.045C654.049 442.841 654.016 442.639 653.943 442.448C653.87 442.257 653.76 442.082 653.617 441.933C653.474 441.784 653.303 441.663 653.112 441.579C652.922 441.494 652.716 441.446 652.506 441.438C652.483 441.437 652.459 441.437 652.436 441.437L577.097 441.436Z" fill="#E6E6E6"/>
<path d="M577.097 450.725C576.674 450.725 576.267 450.888 575.968 451.178C575.668 451.468 575.5 451.862 575.5 452.273C575.5 452.683 575.668 453.077 575.968 453.367C576.267 453.658 576.674 453.821 577.097 453.821H652.384C652.594 453.829 652.803 453.796 652.999 453.726C653.196 453.655 653.377 453.548 653.531 453.41C653.684 453.271 653.809 453.105 653.896 452.921C653.984 452.736 654.033 452.536 654.041 452.333C654.049 452.13 654.016 451.927 653.943 451.736C653.87 451.546 653.76 451.371 653.617 451.222C653.474 451.072 653.303 450.952 653.112 450.867C652.922 450.782 652.716 450.734 652.506 450.726C652.483 450.726 652.459 450.725 652.436 450.725H577.097L577.097 450.725Z" fill="#E6E6E6"/>
<path d="M757.091 523.316C755.199 523.96 753.169 524.122 751.194 523.785C749.22 523.447 747.369 522.623 745.818 521.391C741.87 518.179 740.632 512.888 739.625 507.988L736.646 493.495L742.883 497.657C747.368 500.651 751.954 503.74 755.06 508.076C758.167 512.412 759.522 518.332 757.026 523.023" fill="#E6E6E6"/>
<path d="M756.127 541.871C756.912 536.327 757.72 530.712 757.169 525.11C756.68 520.134 755.114 515.274 751.925 511.289C750.232 509.178 748.173 507.369 745.839 505.944C745.231 505.571 744.67 506.506 745.276 506.877C749.314 509.351 752.438 513.004 754.196 517.309C756.138 522.097 756.45 527.316 756.114 532.401C755.911 535.477 755.483 538.533 755.051 541.584C755.017 541.722 755.038 541.867 755.11 541.991C755.183 542.114 755.3 542.206 755.44 542.249C755.583 542.286 755.735 542.267 755.863 542.196C755.991 542.126 756.086 542.009 756.126 541.871H756.127Z" fill="#F2F2F2"/>
<path d="M750.477 532.976C749.666 534.171 748.551 535.143 747.239 535.799C745.928 536.455 744.465 536.773 742.99 536.722C739.2 536.547 736.04 533.983 733.196 531.551L724.783 524.349L730.351 524.091C734.355 523.906 738.463 523.732 742.279 524.929C746.095 526.126 749.61 529.007 750.307 532.831" fill="#E6E6E6"/>
<path d="M758.345 545.058C754.569 538.576 750.183 531.372 742.35 529.07C740.173 528.432 737.889 528.203 735.623 528.397C734.908 528.455 735.087 529.524 735.803 529.464C739.601 529.158 743.393 530.131 746.539 532.217C749.566 534.215 751.923 536.991 753.918 539.936C755.14 541.737 756.235 543.62 757.329 545.498C757.677 546.098 758.699 545.665 758.345 545.058Z" fill="#F2F2F2"/>
<path d="M554.367 357.827C559.659 357.827 563.949 353.669 563.949 348.54C563.949 343.41 559.659 339.252 554.367 339.252C549.075 339.252 544.785 343.41 544.785 348.54C544.785 353.669 549.075 357.827 554.367 357.827Z" fill="#1E3A8A"/>
<path d="M549.78 346.805C549.669 346.805 549.58 347.498 549.58 348.353C549.58 349.207 549.669 349.901 549.78 349.901H559.202C559.312 349.915 559.403 349.233 559.405 348.379C559.466 347.847 559.399 347.308 559.208 346.805H549.78V346.805Z" fill="#E6E6E6"/>
<path d="M554.367 407.382C559.659 407.382 563.949 403.224 563.949 398.094C563.949 392.965 559.659 388.807 554.367 388.807C549.075 388.807 544.785 392.965 544.785 398.094C544.785 403.224 549.075 407.382 554.367 407.382Z" fill="#1E3A8A"/>
<path d="M549.78 396.359C549.669 396.359 549.58 397.053 549.58 397.907C549.58 398.762 549.669 399.456 549.78 399.456H559.202C559.312 399.47 559.403 398.788 559.405 397.933C559.466 397.401 559.399 396.863 559.208 396.36L549.78 396.359Z" fill="#E6E6E6"/>
<path d="M554.367 456.916C559.659 456.916 563.949 452.758 563.949 447.629C563.949 442.499 559.659 438.341 554.367 438.341C549.075 438.341 544.785 442.499 544.785 447.629C544.785 452.758 549.075 456.916 554.367 456.916Z" fill="#1E3A8A"/>
<path d="M549.78 445.894C549.669 445.894 549.58 446.587 549.58 447.442C549.58 448.296 549.669 448.99 549.78 448.99H559.202C559.312 449.004 559.403 448.322 559.405 447.468C559.466 446.936 559.399 446.397 559.208 445.894L549.78 445.894Z" fill="#E6E6E6"/>
<path d="M586.566 233.868L583.176 237.154L611.573 264.68L614.963 261.393L586.566 233.868Z" fill="white"/>
<path d="M614.963 237.154L611.572 233.868L583.175 261.393L586.566 264.679L614.963 237.154Z" fill="white"/>
<path d="M386.101 398.011C386.932 397.726 387.688 397.268 388.316 396.669C388.945 396.07 389.43 395.345 389.738 394.545C390.046 393.745 390.169 392.889 390.098 392.037C390.028 391.186 389.766 390.36 389.331 389.617L403.456 374.01L392.429 372.535L380.707 387.583C379.468 388.374 378.572 389.579 378.189 390.968C377.805 392.357 377.96 393.834 378.625 395.119C379.29 396.405 380.419 397.409 381.796 397.942C383.174 398.475 384.706 398.5 386.101 398.011Z" fill="#9F616A"/>
<path d="M403.135 536.334L393.284 536.334L388.598 499.502L403.137 499.503L403.135 536.334Z" fill="#9F616A"/>
<path d="M405.648 545.59L373.883 545.589V545.2C373.883 542.021 375.186 538.973 377.504 536.726C379.823 534.479 382.968 533.216 386.246 533.216H386.247L405.648 533.217L405.648 545.59Z" fill="#2F2E41"/>
<path d="M454.704 528.343L445.296 531.174L429.553 497.347L443.438 493.168L454.704 528.343Z" fill="#9F616A"/>
<path d="M459.935 536.461L429.599 545.59L429.48 545.218C428.508 542.183 428.819 538.898 430.346 536.085C431.873 533.272 434.49 531.162 437.621 530.22L437.622 530.219L456.15 524.644L459.935 536.461Z" fill="#2F2E41"/>
<path d="M395.592 366.526L381.002 382.723L392.424 383.719L395.592 366.526Z" fill="#E6E6E6"/>
<path d="M389.891 387.403C389.891 387.403 384.823 389.859 384.19 400.912C383.556 411.964 386.09 440.826 386.09 440.826C386.09 440.826 383.557 453.72 386.09 465.387C388.624 477.053 383.557 519.419 386.724 519.419C389.891 519.419 406.361 521.261 406.995 519.419C407.628 517.577 408.262 489.946 408.262 489.946C408.262 489.946 413.33 475.823 408.262 467.229C408.262 467.229 425.956 497.178 437.401 520.035C439.906 525.037 458.939 519.421 455.772 513.894C452.605 508.368 445.003 483.193 445.003 483.193C445.003 483.193 439.302 464.772 429.167 456.79L434.235 417.492C434.235 417.492 445.004 391.089 438.67 387.405C432.336 383.721 389.891 387.403 389.891 387.403Z" fill="#2F2E41"/>
<path d="M408.894 287.316C417.99 287.316 425.364 280.168 425.364 271.351C425.364 262.534 417.99 255.387 408.894 255.387C399.798 255.387 392.424 262.534 392.424 271.351C392.424 280.168 399.798 287.316 408.894 287.316Z" fill="#A0616A"/>
<path d="M427.266 288.544L406.79 300.21C406.79 300.21 398.95 304.49 396.022 311.877C392.9 319.749 394.714 330.833 396.022 333.368C398.555 338.28 394.959 350.56 394.959 350.56L391.792 378.805C391.792 378.805 380.389 389.244 389.258 390.472C398.127 391.7 413.963 389.858 423.465 390.472C432.968 391.086 443.736 392.314 440.569 386.172C437.402 380.031 433.601 375.734 437.402 363.456C440.376 353.846 440.247 317.916 440.051 302.742C440.024 300.658 439.447 298.616 438.376 296.809C437.304 295.002 435.774 293.491 433.93 292.419L427.266 288.544Z" fill="#E5E5E5"/>
<path opacity="0.1" d="M418.082 307.886L419.982 345.342L401.565 381.493L398.441 380.341L417.446 346.57L418.082 307.886Z" fill="black"/>
<path opacity="0.1" d="M438.985 353.324V349.024L417.449 383.411L438.985 353.324Z" fill="black"/>
<path d="M397.205 256.562L394.484 255.507C394.484 255.507 400.179 249.432 408.098 249.96L405.87 247.582C405.87 247.582 411.316 245.469 416.267 251.016C418.87 253.932 421.88 257.36 423.759 261.221H426.675L425.459 263.818L429.718 266.416L425.346 265.951C425.76 268.193 425.618 270.499 424.932 272.678L425.052 274.732C425.052 274.732 419.982 267.127 419.982 266.072V268.714C419.982 268.714 417.259 266.336 417.259 264.751L415.774 266.601L415.031 263.696L405.872 266.601L407.356 264.222L401.662 265.014L403.89 262.109C403.89 262.109 397.454 265.543 397.207 268.449C396.959 271.355 393.742 275.053 393.742 275.053L392.256 272.411C392.256 272.411 390.029 260.524 397.205 256.562Z" fill="#2F2E41"/>
<path d="M407.862 399.749C408.627 399.325 409.287 398.744 409.796 398.047C410.304 397.35 410.649 396.552 410.805 395.712C410.962 394.871 410.926 394.008 410.701 393.182C410.476 392.356 410.067 391.588 409.503 390.932L420.545 373.142L409.424 373.589L400.643 390.414C399.569 391.406 398.908 392.745 398.785 394.178C398.661 395.611 399.085 397.038 399.975 398.189C400.864 399.34 402.159 400.134 403.612 400.421C405.066 400.709 406.578 400.47 407.862 399.749Z" fill="#9F616A"/>
<path d="M432.967 296.527L437.718 295.607C437.718 295.607 451.971 305.738 447.536 326.001C443.102 346.263 423.465 376.965 423.465 376.965C423.465 376.965 419.029 382.491 417.763 383.719C416.497 384.946 413.963 383.719 415.23 385.561C416.497 387.403 413.329 388.631 413.329 388.631C413.329 388.631 399.392 388.631 400.66 383.719C401.927 378.807 423.465 343.805 423.465 343.805L420.298 311.261C420.298 311.261 417.763 295.299 432.967 296.527Z" fill="#E5E5E5"/>
<path d="M599.007 304.563C627.178 304.563 650.015 281.156 650.015 252.282C650.015 223.407 627.178 200 599.007 200C570.837 200 548 223.407 548 252.282C548 281.156 570.837 304.563 599.007 304.563Z" fill="#1E3A8A"/>
<path d="M620.137 275.062H577.874C577.101 275.062 576.36 274.747 575.814 274.186C575.267 273.626 574.96 272.867 574.959 272.075V245.934C574.96 245.142 575.267 244.383 575.814 243.822C576.36 243.262 577.101 242.947 577.874 242.947H620.137C620.91 242.947 621.651 243.262 622.197 243.822C622.743 244.383 623.051 245.142 623.052 245.934V272.075C623.051 272.867 622.743 273.626 622.197 274.186C621.651 274.747 620.91 275.062 620.137 275.062ZM577.874 245.934V272.075H620.139L620.137 245.934L577.874 245.934Z" fill="white"/>
<path d="M612.123 245.933H585.891V233.983C585.891 225.328 591.407 219.046 599.007 219.046C606.607 219.046 612.123 225.328 612.123 233.983L612.123 245.933ZM588.805 242.946H609.208V233.983C609.208 226.947 605.013 222.033 599.007 222.033C593 222.033 588.805 226.947 588.805 233.983L588.805 242.946Z" fill="white"/>
<path d="M599.007 261.244C600.616 261.244 601.921 259.907 601.921 258.257C601.921 256.607 600.616 255.269 599.007 255.269C597.397 255.269 596.092 256.607 596.092 258.257C596.092 259.907 597.397 261.244 599.007 261.244Z" fill="white"/>
</g>
<defs>
<clipPath id="clip0_440_4082">
<rect width="838" height="548" fill="white" transform="translate(0.914062 0.0253906)"/>
</clipPath>
</defs>
</svg>
