<svg width="494" height="481" viewBox="0 0 494 481" fill="none" xmlns="http://www.w3.org/2000/svg">
<g clip-path="url(#clip0_440_3843)">
<path d="M314.737 107.789H288.481V331.635C288.481 335.147 287.79 338.625 286.445 341.87C285.101 345.115 283.132 348.063 280.648 350.546C278.165 353.03 275.216 354.999 271.972 356.344C268.727 357.688 265.249 358.379 261.737 358.379H61V358.635C61 362.147 61.6917 365.625 63.0357 368.87C64.3797 372.115 66.3497 375.063 68.8331 377.546C71.3165 380.03 74.2648 381.999 77.5096 383.344C80.7543 384.688 84.232 385.379 87.7441 385.379H314.737C318.249 385.379 321.727 384.688 324.972 383.344C328.216 381.999 331.165 380.03 333.648 377.546C336.131 375.063 338.101 372.115 339.445 368.87C340.789 365.625 341.481 362.147 341.481 358.635V134.533C341.481 127.44 338.664 120.637 333.648 115.622C328.633 110.606 321.83 107.789 314.737 107.789Z" fill="#F2F2F2"/>
<path d="M439.202 463.515C439.667 463.537 440.127 463.415 440.52 463.166C440.914 462.917 441.221 462.553 441.4 462.124C441.58 461.694 441.623 461.22 441.524 460.766C441.425 460.311 441.189 459.898 440.847 459.582L440.691 458.964C440.712 458.914 440.733 458.865 440.753 458.815C441.221 457.709 442.006 456.766 443.009 456.105C444.011 455.443 445.187 455.093 446.388 455.097C447.589 455.102 448.762 455.461 449.759 456.13C450.757 456.799 451.535 457.748 451.995 458.857C453.833 463.285 456.174 467.721 456.75 472.403C457.004 474.473 456.897 476.571 456.434 478.604C460.752 469.184 462.995 458.945 463.009 448.583C463.01 445.982 462.866 443.384 462.576 440.8C462.337 438.681 462.006 436.578 461.582 434.49C459.267 423.158 454.298 412.538 447.082 403.5C443.589 401.594 440.764 398.664 438.989 395.103C438.345 393.824 437.891 392.457 437.639 391.047C438.033 391.099 439.124 385.099 438.827 384.73C439.376 383.897 440.359 383.483 440.958 382.67C443.941 378.627 448.05 379.333 450.195 384.827C454.777 387.14 454.821 390.975 452.01 394.664C450.221 397.011 449.975 400.186 448.406 402.699C448.567 402.906 448.735 403.106 448.896 403.313C451.848 407.108 454.421 411.184 456.577 415.481C456.053 410.667 456.679 405.797 458.404 401.272C460.152 397.054 463.429 393.502 466.314 389.857C467.078 388.877 468.114 388.146 469.293 387.756C470.471 387.365 471.739 387.333 472.936 387.663C474.133 387.993 475.205 388.67 476.017 389.61C476.829 390.549 477.345 391.708 477.498 392.94C477.504 392.994 477.51 393.047 477.516 393.101C477.087 393.343 476.668 393.6 476.257 393.871C475.741 394.216 475.342 394.708 475.111 395.283C474.879 395.859 474.828 396.491 474.962 397.096C475.096 397.702 475.41 398.253 475.862 398.677C476.315 399.101 476.885 399.378 477.498 399.473L477.561 399.482C477.408 401.027 477.138 402.558 476.753 404.062C480.455 418.378 472.463 423.592 461.052 423.826C460.8 423.955 460.555 424.084 460.303 424.207C462.47 430.348 463.829 436.744 464.346 443.235C464.639 447.064 464.622 450.911 464.294 454.738L464.314 454.602C465.141 450.347 467.41 446.508 470.74 443.732C475.686 439.67 482.673 438.173 488.009 434.908C488.576 434.544 489.235 434.349 489.909 434.348C490.583 434.346 491.243 434.537 491.812 434.899C492.38 435.26 492.834 435.776 493.119 436.387C493.404 436.998 493.508 437.677 493.42 438.345L493.398 438.488C492.603 438.812 491.828 439.185 491.079 439.605C490.651 439.847 490.231 440.103 489.821 440.375C489.305 440.719 488.905 441.212 488.674 441.787C488.443 442.363 488.391 442.995 488.525 443.6C488.659 444.206 488.973 444.757 489.426 445.181C489.879 445.605 490.449 445.882 491.062 445.977L491.125 445.986C491.17 445.993 491.208 445.999 491.254 446.006C489.895 449.251 487.987 452.237 485.615 454.835C483.3 467.332 473.359 468.518 462.725 464.878H462.718C461.552 469.949 459.861 474.884 457.674 479.605H439.654C439.589 479.404 439.531 479.198 439.473 478.997C441.141 479.102 442.815 479.003 444.459 478.701C443.122 477.06 441.785 475.406 440.448 473.766C440.418 473.735 440.39 473.703 440.364 473.669C439.686 472.829 439.001 471.996 438.323 471.157L438.323 471.156C438.287 468.582 438.583 466.014 439.202 463.515Z" fill="#F2F2F2"/>
<path d="M240.724 77.3395C241.382 78.3363 242.248 79.1782 243.264 79.8072C244.279 80.4361 245.419 80.837 246.604 80.9821C247.79 81.1272 248.993 81.013 250.13 80.6476C251.267 80.2821 252.311 79.6739 253.19 78.8653L290.655 95.768L297.878 86.5547L253.233 66.8044C251.762 65.4263 249.836 64.6357 247.821 64.5825C245.806 64.5292 243.841 65.2171 242.299 66.5157C240.757 67.8143 239.745 69.6334 239.455 71.6283C239.165 73.6232 239.616 75.6552 240.724 77.3395Z" fill="#A0616A"/>
<path d="M401.508 87.8794L405.223 108.936C405.397 109.918 405.363 110.926 405.123 111.894C404.884 112.863 404.445 113.77 403.835 114.559C403.224 115.348 402.455 116 401.577 116.474C400.7 116.948 399.733 117.234 398.738 117.312L335.6 122.277L261.383 89.0613L270.247 72.2341L334.674 92.6363L401.508 87.8794Z" fill="#1E3A8A"/>
<path d="M253.737 72.7888H26.7441C11.9737 72.7888 0 84.7626 0 99.5329V323.635C0 338.406 11.9737 350.379 26.7441 350.379H253.737C268.508 350.379 280.481 338.406 280.481 323.635V99.5329C280.481 84.7626 268.508 72.7888 253.737 72.7888Z" fill="#F2F2F2"/>
<path d="M26.7441 78.2886C23.9543 78.2886 21.1918 78.8381 18.6143 79.9057C16.0369 80.9733 13.695 82.5381 11.7223 84.5108C9.74956 86.4835 8.18471 88.8255 7.1171 91.4029C6.04948 93.9804 5.5 96.7429 5.5 99.5327V323.635C5.5 329.27 7.73821 334.673 11.7223 338.657C15.7063 342.641 21.1098 344.879 26.7441 344.879H171.617C185.191 344.879 198.632 342.206 211.172 337.011C223.713 331.817 235.108 324.203 244.706 314.605C254.304 305.006 261.918 293.612 267.113 281.071C272.307 268.53 274.981 255.089 274.981 241.515V99.5327C274.981 96.7429 274.431 93.9804 273.364 91.4029C272.296 88.8255 270.731 86.4835 268.759 84.5108C266.786 82.5381 264.444 80.9733 261.867 79.9057C259.289 78.8381 256.527 78.2886 253.737 78.2886H26.7441Z" fill="white"/>
<path d="M203.695 146.3H76.2889C75.1198 146.3 73.9986 145.836 73.1719 145.009C72.3453 144.182 71.8809 143.061 71.8809 141.892C71.8809 140.723 72.3453 139.602 73.1719 138.775C73.9986 137.948 75.1198 137.484 76.2889 137.484H203.695C204.864 137.484 205.986 137.948 206.812 138.775C207.639 139.602 208.103 140.723 208.103 141.892C208.103 143.061 207.639 144.182 206.812 145.009C205.986 145.836 204.864 146.3 203.695 146.3Z" fill="#F2F2F2"/>
<path d="M203.695 240.3H76.2889C75.1198 240.3 73.9986 239.836 73.1719 239.009C72.3453 238.182 71.8809 237.061 71.8809 235.892C71.8809 234.723 72.3453 233.602 73.1719 232.775C73.9986 231.948 75.1198 231.484 76.2889 231.484H203.695C204.864 231.484 205.986 231.948 206.812 232.775C207.639 233.602 208.103 234.723 208.103 235.892C208.103 237.061 207.639 238.182 206.812 239.009C205.986 239.836 204.864 240.3 203.695 240.3Z" fill="#F2F2F2"/>
<path d="M255.433 193.331H24.5526C23.3835 193.331 22.2623 192.866 21.4356 192.04C20.6089 191.213 20.1445 190.092 20.1445 188.923C20.1445 187.754 20.6089 186.632 21.4356 185.806C22.2623 184.979 23.3835 184.515 24.5526 184.515H255.433C256.602 184.515 257.723 184.979 258.55 185.806C259.377 186.632 259.841 187.754 259.841 188.923C259.841 190.092 259.377 191.213 258.55 192.04C257.723 192.866 256.602 193.331 255.433 193.331Z" fill="#F2F2F2"/>
<path d="M393.531 180.687L370.531 229.687L459.008 220.726L440.539 173.687L393.531 180.687Z" fill="#A0616A"/>
<path d="M414.1 462.32L405.711 462.249L401.998 429.138L414.378 429.243L414.1 462.32Z" fill="#A0616A"/>
<path d="M387.231 475.659C387.223 476.653 387.61 477.61 388.307 478.32C389.005 479.029 389.955 479.433 390.949 479.442L407.628 479.581L410.547 473.663L411.62 479.612L417.913 479.669L416.324 458.452L414.134 458.306L405.204 457.691L402.323 457.498L402.272 463.501L388.874 472.588C388.372 472.929 387.96 473.386 387.674 473.921C387.388 474.456 387.236 475.052 387.231 475.659Z" fill="#2F2E41"/>
<path d="M321.266 462.358L313.268 459.825L319.447 427.085L331.251 430.822L321.266 462.358Z" fill="#A0616A"/>
<path d="M291.662 467.214C291.363 468.162 291.452 469.19 291.91 470.073C292.368 470.956 293.157 471.621 294.105 471.922L310.007 476.956L314.537 472.156L313.814 478.158L319.813 480.061L324.527 459.314L322.477 458.531L314.122 455.319L311.424 454.288L309.612 460.011L294.135 464.761C293.556 464.939 293.028 465.256 292.597 465.683C292.166 466.11 291.845 466.635 291.662 467.214Z" fill="#2F2E41"/>
<path d="M454.978 206.946L374.531 221.687C374.531 221.687 361.628 231.339 365.08 234.796C368.531 238.252 369.067 237.717 366.799 239.985C364.531 242.252 359.628 245.284 359.58 247.268C359.531 249.252 323.531 338.252 323.531 338.252C323.531 338.252 327.531 336.252 324.531 339.252C321.531 342.252 321.531 344.731 321.531 344.731L307.531 439.252L330.268 440.591L352.531 354.418L402.191 273.914C402.191 273.914 407.118 345.703 407.325 350.478C407.531 355.252 410.531 349.252 407.531 355.252C404.531 361.252 402.531 357.252 404.531 361.252C406.531 365.252 397.327 446.687 397.327 446.687H418.08L462.589 277.896C462.589 277.896 478.425 229.64 454.978 206.946Z" fill="#2F2E41"/>
<path d="M431.279 71.9345L399.054 68.5862L390.705 79.4254L380.979 84.6057C376.863 86.7979 373.465 90.1292 371.193 94.2014C368.92 98.2735 367.869 102.914 368.164 107.568L379.53 173.687C379.53 173.687 369.929 195.306 376.53 200.687C383.131 206.068 371.427 219.394 385.53 212.687C399.634 205.98 460.53 213.687 460.53 213.687L447.53 176.687L457.242 140.33L458.311 109.844C458.51 104.148 456.82 98.5449 453.503 93.9094C450.185 89.274 445.428 85.8663 439.971 84.2174L438.613 83.807L431.279 71.9345Z" fill="#1E3A8A"/>
<path d="M475.644 47.2303C475.855 56.3133 472.46 65.1083 467.584 72.8333C466.135 68.3235 463.53 64.219 460.814 60.3064C462.183 68.7706 460.725 77.4502 456.664 85.0019C456.521 85.1043 456.372 85.1994 456.22 85.2868C452.245 87.6778 447.205 88.6463 442.906 86.9194C451.79 77.3427 452.92 61.4755 445.472 50.7337C443.363 47.6857 440.636 44.99 439.33 41.5213C437.267 35.9868 439.25 29.8931 440.5 24.1228C441.67 18.7524 441.874 12.3615 438.271 8.4257C438.656 7.87567 439.181 7.43785 439.79 7.1571C440.4 6.87635 441.073 6.76276 441.742 6.82797C443.963 7.14176 445.58 9.07262 446.61 11.0613C447.64 13.0499 448.319 15.254 449.754 16.9716C452.412 20.1866 456.938 20.9467 460.753 22.6411C469.99 26.7557 475.422 37.1234 475.644 47.2303Z" fill="#2F2E41"/>
<path d="M237.65 479.658C237.65 479.815 237.68 479.97 237.74 480.114C237.8 480.259 237.887 480.39 237.998 480.501C238.109 480.611 238.24 480.699 238.384 480.759C238.529 480.818 238.684 480.849 238.84 480.848H492.13C492.446 480.848 492.749 480.723 492.972 480.5C493.195 480.277 493.32 479.974 493.32 479.658C493.32 479.343 493.195 479.04 492.972 478.817C492.749 478.594 492.446 478.468 492.13 478.468H238.84C238.684 478.468 238.529 478.498 238.384 478.558C238.24 478.618 238.109 478.705 237.998 478.816C237.887 478.926 237.8 479.058 237.74 479.202C237.68 479.347 237.65 479.502 237.65 479.658Z" fill="#CCCCCC"/>
<path d="M477.639 257.748C482.609 257.748 486.639 253.718 486.639 248.748C486.639 243.777 482.609 239.748 477.639 239.748C472.668 239.748 468.639 243.777 468.639 248.748C468.639 253.718 472.668 257.748 477.639 257.748Z" fill="#1E3A8A"/>
<path d="M397.886 42.037C398.414 40.1894 394.776 51.4833 396.531 51.6872C404.528 52.6046 415.505 57.3804 421.075 59.6084C421.326 59.5793 421.576 59.5501 421.82 59.5137C422.417 59.4482 423 59.3536 423.576 59.2444C436.544 56.7906 441.531 36.8692 441.531 36.6872C441.531 35.7917 439.382 11.1942 435.996 10.8302C435.107 10.7337 434.213 10.6851 433.318 10.6846H424.916C423.177 10.3099 421.415 10.0545 419.641 9.9201H419.627C402.711 8.63133 389.374 18.9413 390.62 31.4867C390.628 31.5012 390.643 31.5158 390.65 31.5304C391.011 32.0692 391.329 32.5789 391.609 33.0667C391.882 33.5254 392.111 33.9623 392.31 34.3773C393.851 37.581 389.888 41.6123 392.516 42.3647C396.011 43.3655 383.324 76.2582 397.158 76.2582C390.429 78.1714 396.43 47.1338 397.886 42.037Z" fill="#2F2E41"/>
<path d="M412.987 61.3369C423.974 61.3369 432.881 52.4303 432.881 41.4434C432.881 30.4564 423.974 21.5498 412.987 21.5498C402 21.5498 393.094 30.4564 393.094 41.4434C393.094 52.4303 402 61.3369 412.987 61.3369Z" fill="#A0616A"/>
<path d="M390.621 32.5715C390.953 32.7463 391.278 32.9064 391.61 33.0666C391.956 33.2341 392.303 33.4016 392.65 33.5544C399.311 36.5761 404.733 36.911 408.023 32.5715C408.111 30.2881 408.624 28.0412 409.536 25.9457C409.375 28.2874 409.992 30.6167 411.291 32.5715H417.916C424.739 37.1003 428.243 37.5736 423.507 52.4416C422.187 56.5846 416.937 80.6923 419.002 84.2674C419.6 84.2018 425.957 57.7964 426.532 57.6872C439.501 55.2335 447.741 33.8675 446.686 32.6589C446.691 29.2218 445.901 25.8301 444.377 22.7493C442.449 18.8461 439.444 15.5766 435.716 13.3276C433.495 12.2503 431.178 11.3801 428.797 10.7282C428.738 10.7136 428.686 10.699 428.627 10.6845C427.897 10.4879 427.152 10.3059 426.407 10.153C424.867 9.82796 423.311 9.59215 421.744 9.44672C421.634 9.43943 421.523 9.43213 421.42 9.43213C420.794 9.43359 420.181 9.60201 419.642 9.92C419.635 9.92 419.635 9.92725 419.627 9.92725C419.242 10.1522 418.906 10.4517 418.639 10.8082C418.168 11.4082 417.913 12.1497 417.916 12.9125H410.539C410.266 12.9125 409.993 12.9198 409.72 12.9343C404.796 13.1026 400.113 15.102 396.586 18.5414C393.059 21.9808 390.943 26.6126 390.651 31.5303C390.628 31.8798 390.621 32.222 390.621 32.5715Z" fill="#2F2E41"/>
<path d="M434.116 26.212C441.354 26.212 447.222 20.3442 447.222 13.106C447.222 5.86775 441.354 0 434.116 0C426.878 0 421.01 5.86775 421.01 13.106C421.01 20.3442 426.878 26.212 434.116 26.212Z" fill="#2F2E41"/>
<path d="M477.74 252.459C478.38 251.45 478.793 250.315 478.951 249.131C479.108 247.947 479.007 246.743 478.653 245.602C478.3 244.461 477.703 243.411 476.903 242.524C476.104 241.636 475.121 240.933 474.024 240.463L474.089 199.361L462.724 196.548L463.004 245.366C462.35 247.272 462.418 249.353 463.195 251.213C463.973 253.073 465.405 254.583 467.222 255.458C469.038 256.332 471.112 256.51 473.051 255.957C474.989 255.404 476.658 254.16 477.74 252.459Z" fill="#A0616A"/>
<path d="M421.463 101.477L439.147 89.4586C439.972 88.8979 440.905 88.516 441.887 88.3372C442.868 88.1585 443.876 88.1869 444.846 88.4207C445.815 88.6545 446.726 89.0885 447.518 89.6948C448.31 90.3012 448.966 91.0664 449.445 91.9415L479.849 147.5L479.965 228.811L460.983 227.621L453.191 160.491L421.463 101.477Z" fill="#1E3A8A"/>
<path d="M285.646 285.877H96.6465C92.5356 285.877 88.5931 287.51 85.6863 290.417C82.7795 293.324 81.1465 297.267 81.1465 301.377C81.1465 305.488 82.7795 309.431 85.6863 312.338C88.5931 315.244 92.5356 316.877 96.6465 316.877H285.646C289.757 316.877 293.7 315.244 296.607 312.338C299.513 309.431 301.146 305.488 301.146 301.377C301.146 297.267 299.513 293.324 296.607 290.417C293.7 287.51 289.757 285.877 285.646 285.877Z" fill="white"/>
<path d="M285.646 317.877H96.6465C92.2704 317.877 88.0736 316.139 84.9792 313.045C81.8849 309.95 80.1465 305.754 80.1465 301.377C80.1465 297.001 81.8849 292.805 84.9792 289.71C88.0736 286.616 92.2704 284.877 96.6465 284.877H285.646C290.023 284.877 294.219 286.616 297.314 289.71C300.408 292.805 302.146 297.001 302.146 301.377C302.146 305.754 300.408 309.95 297.314 313.045C294.219 316.139 290.023 317.877 285.646 317.877ZM96.6465 286.877C92.8008 286.877 89.1127 288.405 86.3934 291.124C83.6742 293.844 82.1465 297.532 82.1465 301.377C82.1465 305.223 83.6742 308.911 86.3934 311.63C89.1127 314.35 92.8008 315.877 96.6465 315.877H285.646C289.492 315.877 293.18 314.35 295.9 311.63C298.619 308.911 300.146 305.223 300.146 301.377C300.146 297.532 298.619 293.844 295.9 291.124C293.18 288.405 289.492 286.877 285.646 286.877H96.6465Z" fill="#1B4F9A"/>
<path d="M296.791 353.52H213.385C212.216 353.52 211.094 353.056 210.268 352.229C209.441 351.403 208.977 350.281 208.977 349.112C208.977 347.943 209.441 346.822 210.268 345.995C211.094 345.169 212.216 344.704 213.385 344.704H296.791C297.96 344.704 299.081 345.169 299.908 345.995C300.735 346.822 301.199 347.943 301.199 349.112C301.199 350.281 300.735 351.403 299.908 352.229C299.081 353.056 297.96 353.52 296.791 353.52Z" fill="#1E3A8A"/>
</g>
<defs>
<clipPath id="clip0_440_3843">
<rect width="493.461" height="480.848" fill="white"/>
</clipPath>
</defs>
</svg>
