<svg width="662" height="513" viewBox="0 0 662 513" fill="none" xmlns="http://www.w3.org/2000/svg">
<g clip-path="url(#clip0_440_6005)">
<path d="M539.147 247.592C539.147 254.801 538.817 261.937 538.157 268.999C537.637 274.512 536.928 279.975 536.03 285.389C535.075 291.121 533.905 296.784 532.52 302.379V302.385C531.614 306.067 530.62 309.718 529.536 313.34C526.392 323.868 522.483 334.19 517.834 344.237C516.823 346.423 515.779 348.594 514.703 350.75C510.629 358.914 506.069 366.865 501.041 374.568C486.942 396.198 469.343 415.732 448.847 432.5C446.628 434.312 444.38 436.094 442.1 437.846C393.708 474.975 332.629 495.274 269.573 495.185C120.69 495.185 0 384.336 0 247.593C0 110.849 120.69 -0.000120584 269.573 -0.000120584C330.458 -0.088294 389.567 18.8401 437.193 53.6772C439.426 55.302 441.63 56.9634 443.806 58.6613C454.426 66.9335 464.337 75.944 473.452 85.6128H473.459C515.913 130.56 539.243 188.089 539.147 247.592Z" fill="#F2F2F2"/>
<path d="M79.5784 290.361C53.8984 276.323 34.5161 250.088 37.0324 222.739C60.5102 243.377 91.1795 255.723 123.614 257.592C136.125 258.271 150.118 257.83 159.328 265.637C165.059 270.495 167.726 277.809 168.164 284.96C168.601 292.112 167.041 299.225 165.49 306.245L166.024 307.964C136.14 308.067 105.258 304.399 79.5784 290.361Z" fill="#E6E6E6"/>
<path d="M37.6578 222.709C47.9471 243.369 65.0625 260.526 86.5729 271.743C91.1972 274.121 96.1134 276.163 101.338 277.11C106.438 277.997 111.704 277.614 116.588 276C121.175 274.579 125.688 272.638 130.571 272.266C135.718 271.874 140.483 273.698 144.227 276.892C148.808 280.801 151.586 285.988 154.112 291.148C156.915 296.876 159.729 302.867 165.104 306.987C165.755 307.486 164.874 308.385 164.224 307.886C154.871 300.719 153.345 288.716 145.869 280.275C142.38 276.336 137.578 273.339 131.874 273.418C126.886 273.487 122.23 275.485 117.599 276.961C112.736 278.51 107.865 279.238 102.732 278.556C97.4803 277.859 92.4668 275.989 87.7966 273.731C77.2481 268.537 67.6542 261.852 59.3665 253.922C49.8531 244.918 42.0867 234.487 36.4032 223.078C36.0517 222.372 37.3087 222.008 37.6578 222.709Z" fill="white"/>
<path d="M79.416 268.506C76.877 271.565 73.2367 273.696 69.1451 274.517C65.0536 275.339 60.7774 274.798 57.08 272.991C56.3332 272.623 56.9207 271.54 57.6685 271.909C61.1081 273.597 65.0915 274.101 68.8998 273.328C72.7081 272.556 76.0904 270.559 78.4363 267.697C78.9469 267.076 79.9236 267.888 79.416 268.506Z" fill="white"/>
<path d="M114.366 277.002C113.297 269.2 109.066 262.055 102.517 256.991C101.867 256.489 102.748 255.59 103.397 256.091C110.202 261.372 114.589 268.816 115.681 276.937C115.785 277.711 114.469 277.772 114.366 277.002Z" fill="white"/>
<path d="M51.4857 244.351C52.7367 243.355 53.6988 242.089 54.2856 240.668C54.8725 239.246 55.0658 237.713 54.848 236.206C54.7339 235.433 56.0498 235.374 56.1633 236.141C56.3954 237.808 56.1797 239.501 55.5351 241.073C54.8905 242.645 53.8366 244.048 52.4654 245.159C52.3457 245.274 52.183 245.342 52.0102 245.351C51.8375 245.359 51.6677 245.307 51.5354 245.205C51.4063 245.097 51.3286 244.947 51.3193 244.787C51.31 244.627 51.3698 244.47 51.4857 244.351Z" fill="white"/>
<path d="M120.157 169.753C120.243 170.233 120.33 170.714 120.426 171.199C121.622 177.653 123.386 184.008 125.703 190.2C125.873 190.682 126.054 191.167 126.24 191.643C131.994 206.507 140.702 220.261 151.922 232.205C156.392 236.954 161.248 241.384 166.449 245.456C173.633 251.08 181.909 256.652 186.515 263.913C187.004 264.666 187.443 265.446 187.828 266.248L168.267 307.232C168.171 307.305 168.086 307.382 167.99 307.455L167.291 309.124C167.006 308.932 166.716 308.726 166.432 308.533C166.267 308.422 166.105 308.302 165.94 308.19C165.831 308.113 165.722 308.036 165.619 307.972C165.583 307.947 165.547 307.921 165.521 307.899C165.418 307.835 165.329 307.766 165.237 307.706C163.611 306.561 161.99 305.404 160.376 304.234C160.366 304.229 160.366 304.229 160.36 304.216C148.086 295.272 136.517 285.308 126.962 274.048C126.675 273.709 126.377 273.367 126.099 273.009C121.823 267.912 118.008 262.502 114.691 256.833C112.886 253.724 111.253 250.533 109.799 247.272C106.061 238.84 103.789 229.92 103.068 220.84C101.634 202.738 106.519 184.417 119.179 170.785C119.503 170.437 119.823 170.097 120.157 169.753Z" fill="#E6E6E6"/>
<path d="M120.679 170.073C115.351 192.258 117.77 215.422 127.592 236.273C129.726 240.728 132.312 245.077 135.863 248.722C139.353 252.251 143.809 254.857 148.767 256.269C153.361 257.671 158.236 258.617 162.379 261.02C166.746 263.553 169.355 267.645 170.25 272.265C171.346 277.919 170.164 283.597 168.798 289.113C167.281 295.237 165.601 301.577 167.192 307.838C167.385 308.597 166.092 308.828 165.899 308.07C163.13 297.176 169.78 286.748 169.344 275.874C169.14 270.8 167.271 265.752 162.665 262.66C158.636 259.957 153.609 258.978 148.944 257.595C144.046 256.143 139.68 254.031 136.028 250.648C132.292 247.187 129.515 242.922 127.266 238.536C122.248 228.556 118.97 217.914 117.552 206.998C115.858 194.549 116.495 181.925 119.435 169.673C119.618 168.915 120.86 169.319 120.679 170.073Z" fill="white"/>
<path d="M123.998 229.73C119.966 230.768 115.662 230.456 111.857 228.85C108.052 227.243 104.992 224.447 103.224 220.96C102.869 220.253 104.048 219.713 104.404 220.421C106.043 223.671 108.894 226.276 112.441 227.765C115.988 229.254 119.997 229.53 123.746 228.542C124.561 228.329 124.809 229.517 123.998 229.73Z" fill="white"/>
<path d="M146.336 255.84C150.597 249.02 151.903 240.975 149.993 233.31C149.803 232.55 151.096 232.32 151.285 233.078C153.257 241.058 151.879 249.427 147.428 256.516C147.003 257.191 145.913 256.512 146.336 255.84Z" fill="white"/>
<path d="M117.534 194.999C119.185 194.896 120.783 194.417 122.183 193.607C123.584 192.796 124.743 191.679 125.557 190.355C125.973 189.675 127.062 190.356 126.65 191.031C125.743 192.49 124.461 193.722 122.916 194.621C121.371 195.52 119.609 196.057 117.786 196.186C117.615 196.212 117.44 196.176 117.297 196.088C117.153 195.999 117.052 195.863 117.014 195.708C116.981 195.551 117.017 195.388 117.115 195.255C117.212 195.123 117.363 195.03 117.534 194.999Z" fill="white"/>
<path d="M186.735 57.3848L219.73 412.134L153.74 416.691V61.8982C161.604 57.1193 172.891 56.3716 186.735 57.3848Z" fill="#CCCCCC"/>
<path d="M349.602 57.3848L316.607 412.134L382.597 416.691V61.8982C374.733 57.1193 363.446 56.3716 349.602 57.3848Z" fill="#CCCCCC"/>
<path d="M372.716 431.353H162.919C159.555 431.349 156.33 430.12 153.951 427.935C151.572 425.751 150.234 422.788 150.23 419.698V67.1045C150.234 64.0148 151.572 61.0525 153.951 58.8677C156.33 56.6829 159.555 55.454 162.919 55.4505H372.716C376.081 55.454 379.306 56.6829 381.685 58.8677C384.063 61.0525 385.401 64.0148 385.405 67.1045V419.698C385.401 422.788 384.063 425.751 381.685 427.935C379.306 430.12 376.081 431.349 372.716 431.353ZM162.919 59.3191C160.672 59.3214 158.517 60.1424 156.928 61.6019C155.339 63.0615 154.445 65.0404 154.443 67.1045V419.698C154.445 421.763 155.339 423.742 156.928 425.201C158.517 426.661 160.672 427.482 162.919 427.484H372.716C374.964 427.482 377.118 426.661 378.708 425.201C380.297 423.742 381.191 421.763 381.193 419.698V67.1045C381.191 65.0404 380.297 63.0615 378.708 61.6019C377.118 60.1424 374.964 59.3214 372.716 59.3191L162.919 59.3191Z" fill="#CCCCCC"/>
<path d="M383.301 114.125H152.338V117.993H383.301V114.125Z" fill="#CCCCCC"/>
<path d="M383.301 178.602H152.338V182.471H383.301V178.602Z" fill="#CCCCCC"/>
<path d="M227.286 57.3848H223.074V233.408H227.286V57.3848Z" fill="#CCCCCC"/>
<path d="M312.562 57.3848H308.35V233.408H312.562V57.3848Z" fill="#CCCCCC"/>
<path d="M409.626 441.992H133.033C128.005 441.992 123.184 440.157 119.63 436.893C116.075 433.628 114.078 429.2 114.078 424.583C114.078 419.966 116.075 415.538 119.63 412.273C123.184 409.008 128.005 407.174 133.033 407.174H409.626C414.653 407.174 419.474 409.008 423.029 412.273C426.583 415.538 428.58 419.966 428.58 424.583C428.58 429.2 426.583 433.628 423.029 436.893C419.474 440.157 414.653 441.992 409.626 441.992Z" fill="#CCCCCC"/>
<path d="M383.299 224.381H153.74V237.276H383.299V224.381Z" fill="#CCCCCC"/>
<path d="M227.94 265.421L227.649 265.292C212 258.349 191.507 258.355 161.201 265.315L160.877 265.389L160.78 265.095C157.574 255.441 153.942 244.505 160.765 239.125C160.861 223.338 175.938 210.518 194.459 210.518C212.975 210.518 228.051 223.331 228.152 239.114C238.301 246.242 233.464 256.774 228.104 265.165L227.94 265.421Z" fill="#2F2E41"/>
<path d="M324.124 231.615C323.844 232.895 323.261 234.102 322.418 235.152C321.574 236.202 320.49 237.07 319.242 237.693C317.994 238.317 316.612 238.682 315.194 238.762C313.776 238.842 312.356 238.636 311.034 238.158L255.731 289.201L250.797 273.352L305.723 225.951C306.745 223.965 308.525 222.392 310.726 221.53C312.926 220.669 315.394 220.578 317.663 221.277C319.931 221.975 321.841 223.413 323.032 225.318C324.223 227.224 324.612 229.464 324.124 231.615Z" fill="#FFB6B6"/>
<path d="M187.443 280.755C187.443 280.755 182.426 291.198 194.806 297.638C207.187 304.078 250.457 295.181 257.478 293.938C264.499 292.696 290.722 256.653 290.722 256.653L287.014 238.976L252.236 266.705L187.443 280.755Z" fill="#1E3A8A"/>
<path d="M178.311 338.506L179.013 350.756C179.013 350.756 176.941 361.608 178.645 363.95C180.336 366.28 226.488 366.574 226.488 366.574C226.488 366.574 229.537 351.476 232.164 338.26L178.311 338.506Z" fill="#FFB6B6"/>
<path d="M311.001 500.486L320.65 498.696L317.888 462.902L303.648 465.544L311.001 500.486Z" fill="#FFB6B6"/>
<path d="M324.823 453.906L333.792 450.201L322.157 415.954L308.918 421.421L324.823 453.906Z" fill="#FFB6B6"/>
<path d="M332.636 434.609L315.747 443.392L274.096 381.918C244.856 400.011 216.263 408.676 187.438 413.299C177.693 414.893 167.757 414.085 165.886 404.975C165.799 404.549 165.729 404.121 165.677 403.69C164.526 393.74 178.003 380.985 179.716 368.81L216.6 366.776L221.149 372.132L263.804 348.046C272.382 343.202 283.665 345.822 289.004 353.898C289.286 354.324 289.548 354.761 289.789 355.209L332.636 434.609Z" fill="#2F2E41"/>
<path d="M322.298 475.963L302.973 477.612L267.933 411.793C233.186 417.282 200.406 419.04 172.053 412.401C162.453 410.184 156.585 401.079 158.946 392.066C159.056 391.645 159.184 391.228 159.329 390.815C162.722 381.306 171.605 374.578 178.603 364.119L229.722 364.832L224.012 382.926L273.67 377.024C283.657 375.837 292.777 382.476 294.041 391.853C294.108 392.348 294.151 392.845 294.172 393.344L322.298 475.963Z" fill="#2F2E41"/>
<path d="M198.271 256.063C209.734 256.063 219.028 247.528 219.028 236.999C219.028 226.47 209.734 217.934 198.271 217.934C186.807 217.934 177.514 226.47 177.514 236.999C177.514 247.528 186.807 256.063 198.271 256.063Z" fill="#FFB6B6"/>
<path d="M186.102 262.946L205.134 265.002C205.937 265.089 206.69 265.403 207.288 265.902C207.887 266.4 208.302 267.058 208.474 267.783L211.501 280.504L230.369 300.911C230.369 300.911 237.144 312.579 234.603 325.803C232.063 339.026 230.946 348.852 230.946 348.852C230.946 348.852 180.334 366.281 178.64 363.947C176.946 361.614 176.396 351.014 176.396 351.014L169.621 281.786C169.621 281.786 177.243 270.118 181.478 270.118C184.211 270.033 183.86 264.384 186.102 262.946Z" fill="#1E3A8A"/>
<path d="M231.461 353.108C234.13 353.108 236.294 350.723 236.294 347.782C236.294 344.84 234.13 342.456 231.461 342.456C228.792 342.456 226.629 344.84 226.629 347.782C226.629 350.723 228.792 353.108 231.461 353.108Z" fill="#1B4F9A"/>
<path d="M306.215 491.27L320.925 484.499L323.697 490.44L342.298 493.893C343.217 494.063 344.052 494.499 344.682 495.137C345.312 495.774 345.704 496.58 345.8 497.436C345.896 498.292 345.692 499.154 345.216 499.896C344.741 500.639 344.02 501.222 343.159 501.561L325.187 508.636L319.347 503.98L320.879 510.332L314.103 513L306.215 491.27Z" fill="#2F2E41"/>
<path d="M320.613 451.056L335.191 444.049L338.077 449.943L356.741 453.096C357.663 453.252 358.506 453.674 359.148 454.301C359.791 454.928 360.198 455.727 360.31 456.582C360.423 457.436 360.235 458.302 359.774 459.051C359.313 459.801 358.604 460.396 357.749 460.749L339.915 468.114L333.986 463.552L335.641 469.879L328.916 472.655L320.613 451.056Z" fill="#2F2E41"/>
<path d="M186.413 231.019C180.929 231.027 175.577 229.476 171.091 226.579L170.941 226.483V226.315C170.947 221.443 173.057 216.772 176.808 213.327C180.559 209.882 185.644 207.945 190.949 207.939H199.373C204.677 207.945 209.763 209.882 213.514 213.327C217.264 216.772 219.374 221.443 219.38 226.315C219.375 227.43 218.895 228.499 218.044 229.294C217.193 230.09 216.038 230.548 214.824 230.573L186.887 231.015C186.729 231.018 186.57 231.019 186.413 231.019Z" fill="#2F2E41"/>
<path d="M220.783 222.786C223.469 221.361 223.918 217.457 221.786 214.064C219.653 210.672 215.747 209.077 213.061 210.501C210.375 211.926 209.926 215.83 212.058 219.223C214.191 222.615 218.097 224.21 220.783 222.786Z" fill="#2F2E41"/>
<path d="M178.772 219.001C181.788 216.232 182.454 212.353 180.261 210.339C178.068 208.324 173.845 208.937 170.83 211.707C167.814 214.476 167.147 218.355 169.34 220.369C171.534 222.384 175.756 221.771 178.772 219.001Z" fill="#2F2E41"/>
<path d="M362.476 393.311H341.758C341.29 393.31 340.828 393.403 340.404 393.583C339.98 393.763 339.603 394.026 339.302 394.354C338.537 394.225 337.751 394.264 337.006 394.469C336.262 394.673 335.581 395.037 335.019 395.53C334.457 396.023 334.031 396.631 333.775 397.305C333.519 397.978 333.44 398.698 333.546 399.405C333.651 400.112 333.938 400.786 334.382 401.372C334.826 401.957 335.415 402.438 336.1 402.774C336.786 403.11 337.548 403.292 338.325 403.305C339.102 403.317 339.871 403.161 340.569 402.848L342.287 407.976C342.491 408.584 342.901 409.116 343.458 409.494C344.015 409.872 344.689 410.075 345.382 410.075H358.852C359.544 410.075 360.218 409.871 360.775 409.494C361.332 409.116 361.742 408.584 361.946 407.976L365.57 397.159C365.719 396.714 365.752 396.244 365.667 395.785C365.582 395.326 365.381 394.892 365.08 394.518C364.779 394.144 364.387 393.84 363.934 393.63C363.482 393.42 362.982 393.311 362.476 393.311ZM338.427 402.016C337.496 402.016 336.604 401.676 335.945 401.071C335.287 400.467 334.917 399.647 334.917 398.792C334.917 397.937 335.287 397.117 335.945 396.512C336.604 395.908 337.496 395.568 338.427 395.568C338.491 395.568 338.551 395.582 338.615 395.585C338.475 396.104 338.492 396.648 338.664 397.159L340.146 401.585C339.624 401.864 339.031 402.012 338.427 402.016Z" fill="#3F3D56"/>
<path d="M269.96 379.315C268.546 379.435 267.119 379.269 265.782 378.828C264.445 378.387 263.229 377.682 262.22 376.763C261.212 375.844 260.435 374.733 259.944 373.508C259.453 372.284 259.261 370.975 259.381 369.675L190.275 335.662L205.39 326.773L270.588 361.5C272.953 361.829 275.105 362.944 276.635 364.633C278.165 366.322 278.967 368.467 278.89 370.663C278.812 372.859 277.861 374.953 276.215 376.547C274.569 378.142 272.344 379.127 269.96 379.315Z" fill="#FFB6B6"/>
<path d="M179.493 273.156C179.493 273.156 167.161 271.737 163.996 284.478C160.831 297.219 182.526 332.737 185.837 338.558C189.147 344.379 234.264 357.11 234.264 357.11L251.636 348.775L212.737 326.132L179.493 273.156Z" fill="#1E3A8A"/>
<path d="M266.414 220.512H270.626C272.674 220.512 274.638 221.259 276.086 222.59C277.534 223.92 278.348 225.724 278.348 227.605H258.691C258.691 225.724 259.505 223.92 260.953 222.59C262.401 221.259 264.366 220.512 266.414 220.512Z" fill="#CCCCCC"/>
<path d="M132.85 88.1827C155.896 88.1827 174.579 71.0233 174.579 49.8562C174.579 28.6891 155.896 11.5297 132.85 11.5297C109.804 11.5297 91.1211 28.6891 91.1211 49.8562C91.1211 71.0233 109.804 88.1827 132.85 88.1827Z" fill="#FF6584"/>
<path d="M260.614 47.8589C249.57 37.2185 236.744 27.5117 221.561 22.3823C217.332 20.9474 212.946 19.9353 208.481 19.3633C208.445 19.3588 208.411 19.3655 208.375 19.3628C208.302 19.3456 208.229 19.3323 208.154 19.323C201.909 18.5923 195.57 18.9438 189.465 20.3593C186.48 21.0474 183.568 21.9791 180.763 23.1435C177.949 24.4046 175.222 25.824 172.598 27.3937C167.044 30.4472 160.929 32.5425 154.554 33.5762C151.355 34.1052 148.114 34.3974 144.863 34.4498C142.043 34.5017 139.383 34.5917 136.711 35.5276C133.856 36.5135 131.292 38.0986 129.223 40.1563C127.154 42.214 125.637 44.6874 124.794 47.3792C124.728 47.6189 124.748 47.8714 124.849 48.1002C124.951 48.329 125.129 48.5223 125.358 48.6522C126.08 49.1277 126.785 49.6672 127.545 50.0908C128.22 50.3749 128.942 50.5556 129.681 50.626C130.888 50.86 132.097 51.0872 133.308 51.3075C137.768 52.1191 142.246 52.8375 146.743 53.4628C155.842 54.7279 164.99 55.6191 174.188 56.1363C192.613 57.1613 211.101 56.651 229.426 54.6115C239.724 53.4658 249.953 51.8409 260.072 49.743C260.277 49.688 260.463 49.5853 260.612 49.4448C260.761 49.3044 260.868 49.131 260.922 48.9414C260.977 48.7518 260.977 48.5526 260.923 48.3629C260.869 48.1732 260.762 47.9996 260.614 47.8589Z" fill="#E6E6E6"/>
<path d="M134.83 73.4843C130.601 72.0494 126.216 71.0372 121.75 70.4653C121.714 70.4608 121.68 70.4674 121.645 70.4648C121.572 70.4476 121.498 70.4343 121.424 70.425C115.178 69.6942 108.839 70.0458 102.735 71.4613C99.7496 72.1493 96.8374 73.0811 94.0329 74.2455C91.2185 75.5066 88.4915 76.926 85.8675 78.4957C80.3135 81.5492 74.1985 83.6445 67.824 84.6781C64.6243 85.2072 61.3836 85.4994 58.133 85.5517C55.3125 85.6037 52.6526 85.6937 49.9803 86.6296C47.1258 87.6155 44.5616 89.2005 42.4925 91.2582C40.4234 93.3159 38.9065 95.7894 38.063 98.4811C37.998 98.7208 38.0176 98.9733 38.119 99.2021C38.2204 99.4309 38.3983 99.6242 38.6271 99.7541C39.3499 100.23 40.0546 100.769 40.8141 101.193C41.4897 101.477 42.2114 101.658 42.9504 101.728C44.1579 101.962 45.367 102.189 46.5775 102.409C51.0373 103.221 55.5155 103.939 60.0123 104.565C69.1114 105.83 78.2597 106.721 87.4571 107.238C105.882 108.263 124.37 107.753 142.695 105.713C152.994 104.568 163.222 102.943 173.342 100.845C173.547 100.79 173.733 100.687 173.881 100.547C174.03 100.406 174.137 100.233 174.192 100.043C174.246 99.8538 174.247 99.6545 174.192 99.4648C174.138 99.2752 174.032 99.1016 173.883 98.9608C162.84 88.3205 150.014 78.6137 134.83 73.4843Z" fill="#E6E6E6"/>
<path d="M435.756 359.202L403.666 320.483L378.346 333.632L432.001 392.153L435.756 359.202Z" fill="#3F3D56"/>
<path d="M509.676 296.26C510.388 312.486 513.126 328.584 517.833 344.238C516.822 346.423 515.779 348.594 514.702 350.75C510.629 358.914 506.068 366.865 501.041 374.568C486.942 396.198 469.342 415.732 448.846 432.5C446.628 434.312 444.379 436.094 442.1 437.846C429.106 421.391 422.093 403.234 419.32 384.549C418.969 382.176 418.681 379.777 418.463 377.392V377.379C417.931 371.581 417.76 365.76 417.951 359.944C417.958 359.48 417.972 359.009 417.993 358.539C418.238 352.323 418.849 346.095 419.769 339.924V339.918C419.874 339.208 419.979 338.499 420.099 337.79C420.436 335.662 420.815 333.534 421.229 331.42C423.64 319.222 427.004 307.201 431.296 295.448V295.441C431.415 295.099 431.535 294.764 431.668 294.429C432.131 293.152 432.602 291.889 433.086 290.625C433.116 290.526 433.154 290.429 433.198 290.335C433.823 288.684 434.462 287.046 435.115 285.421C435.29 284.97 435.473 284.519 435.662 284.067C436.4 282.256 437.151 280.457 437.916 278.684C438.155 278.116 438.4 277.549 438.646 276.988C438.836 276.556 439.018 276.124 439.215 275.698V275.692C440.331 273.158 441.461 270.673 442.605 268.238C445.814 261.391 449.113 254.95 452.328 249.011L452.335 249.005C465.681 224.42 477.811 208.455 477.811 208.455L523.365 221.995C517.931 230.848 513.726 243.905 511.424 259.308C509.65 271.551 509.065 283.915 509.676 296.254L509.676 296.26Z" fill="#3F3D56"/>
<path d="M433.964 292.321C433.698 291.747 433.396 291.186 433.087 290.625C431.485 287.777 429.424 285.168 426.972 282.887C426.607 282.546 426.228 282.204 425.835 281.882C421.606 278.304 416.464 275.764 410.884 274.495C405.303 273.226 399.465 273.269 393.907 274.622L393.879 274.634L393.669 274.686L393.718 274.905C393.928 275.927 394.234 276.93 394.63 277.903C394.736 278.168 394.855 278.419 394.974 278.671C395.024 278.787 395.087 278.89 395.143 279.006C395.143 279.006 395.136 279.012 395.15 279.012C395.15 279.019 395.157 279.025 395.157 279.032C395.29 279.27 395.417 279.515 395.557 279.747C395.269 279.496 394.996 279.238 394.729 278.974C394.469 278.729 394.23 278.471 393.992 278.213C393.173 277.337 392.434 276.401 391.78 275.415L391.668 275.241L391.471 275.311C388.822 276.155 386.295 277.291 383.946 278.697L383.693 278.851C381.899 279.933 379.878 280.656 377.76 280.974C375.643 281.291 373.476 281.196 371.401 280.695C368.129 279.921 364.718 279.779 361.384 280.28C358.049 280.78 354.865 281.912 352.032 283.603C350.156 284.727 348.459 286.085 346.992 287.639C346.865 287.775 346.739 287.917 346.613 288.052C346.346 288.349 346.093 288.652 345.848 288.961C343.209 292.201 341.589 296.044 341.165 300.071L341.151 300.219L341.284 300.303C343.66 301.798 346.346 302.826 349.175 303.32C347.398 303.548 345.599 303.589 343.812 303.443H343.805C342.994 303.381 342.188 303.278 341.39 303.133L341.242 303.108H341.235L341.053 303.075L341.081 303.385C341.29 307.325 342.64 311.142 344.991 314.443L345.061 314.533C345.087 314.566 345.111 314.6 345.131 314.636C346.127 316.035 346.956 317.529 347.603 319.092C349.244 322.974 349.605 327.214 348.642 331.284C347.551 335.637 347.914 340.191 349.682 344.352C351.45 348.513 354.541 352.088 358.554 354.612C362.079 356.839 366.186 358.163 370.453 358.448C371.036 358.494 371.625 358.519 372.215 358.519C375.591 358.529 378.931 357.89 382.022 356.643L382.135 356.604L382.163 356.488C382.757 354.726 383.592 353.041 384.648 351.472C384.302 352.709 384.128 353.98 384.128 355.257V355.682L384.528 355.47C384.872 355.283 385.223 355.083 385.539 354.896C387.436 353.758 389.153 352.387 390.643 350.821C391.226 350.202 391.815 349.602 392.433 349.003L392.44 348.996C393.641 347.823 394.911 346.675 396.231 345.579C399.039 343.263 402.044 341.156 405.217 339.279C408.388 337.409 411.703 335.754 415.136 334.328H415.143C415.529 334.16 415.923 333.999 416.309 333.844C418.018 333.16 419.664 332.349 421.23 331.42C421.286 331.387 421.335 331.362 421.384 331.329C428.171 327.248 433.16 321.087 435.463 313.944C437.767 306.801 437.236 299.138 433.964 292.321Z" fill="#1E3A8A"/>
<path opacity="0.15" d="M349.798 340.439C349.606 341.223 349.461 342.016 349.363 342.814C348.056 339.021 347.867 334.977 348.814 331.094C348.96 330.5 349.07 329.899 349.156 329.295C350.453 332.89 350.675 336.738 349.798 340.439Z" fill="black"/>
<path opacity="0.15" d="M350.329 312.47C348.25 312.735 346.141 312.744 344.059 312.498C343.514 311.553 343.043 310.574 342.65 309.567C344.969 311.004 347.581 311.992 350.329 312.47Z" fill="black"/>
<path opacity="0.15" d="M343.892 303.236C343.124 305.039 342.614 306.925 342.374 308.848C341.734 307.017 341.356 305.116 341.25 303.195L341.232 302.885L341.564 302.944C342.334 303.077 343.111 303.174 343.892 303.236Z" fill="black"/>
<path opacity="0.15" d="M352.213 283.412C355.042 281.718 358.225 280.585 361.558 280.083C364.891 279.582 368.301 279.724 371.57 280.5C373.646 281.004 375.814 281.101 377.934 280.783C380.053 280.466 382.075 279.742 383.869 278.659L384.123 278.506C386.47 277.097 388.996 275.958 391.644 275.112L391.847 275.048L391.957 275.216C393.004 276.806 394.273 278.264 395.731 279.552C394.845 278.037 394.225 276.403 393.893 274.71L393.845 274.487L394.085 274.428C399.297 273.161 404.762 273.044 410.033 274.086C415.304 275.128 420.232 277.3 424.415 280.424C428.598 283.549 431.918 287.537 434.103 292.064C436.288 296.591 437.277 301.529 436.99 306.474C435.884 302.442 433.918 298.652 431.206 295.324C428.494 291.995 425.09 289.194 421.191 287.082C417.292 284.971 412.975 283.591 408.491 283.023C404.007 282.455 399.445 282.71 395.069 283.773L394.829 283.831L394.877 284.054C395.209 285.747 395.829 287.381 396.715 288.897C395.257 287.609 393.988 286.151 392.941 284.561L392.83 284.393L392.628 284.457C389.98 285.302 387.454 286.442 385.107 287.85L384.853 288.004C383.059 289.087 381.036 289.811 378.917 290.128C376.798 290.445 374.63 290.349 372.554 289.845C367.12 288.549 361.364 289.026 356.269 291.192C351.174 293.359 347.055 297.081 344.614 301.726C343.528 301.246 342.474 300.705 341.46 300.107L341.322 300.027L341.339 299.878C341.688 296.56 342.847 293.356 344.729 290.505C346.612 287.654 349.17 285.23 352.213 283.412Z" fill="black"/>
<path d="M613.195 118.664L612.528 118.258L612.043 118.838C608.295 123.173 605.312 128.023 603.205 133.21C603.496 127.235 604.633 121.319 606.589 115.614L606.799 115.015L606.196 114.699C598.341 110.613 589.972 107.426 581.274 105.208L580.326 104.975C573.661 103.295 567.455 100.344 562.115 96.3134C556.774 92.2828 552.419 87.2636 549.332 81.5831C542.16 68.5461 530.83 57.8282 516.853 50.8595C502.876 43.8908 486.917 41.0028 471.107 42.5808H471.1C470.932 42.5937 470.756 42.613 470.588 42.6323C470.3 42.6581 470.019 42.6904 469.738 42.7226C469.162 42.7935 468.601 42.8645 468.039 42.9418C467.562 43.0063 467.077 43.0772 466.6 43.1546C466.347 43.1869 466.102 43.2255 465.856 43.2707C465.61 43.3094 465.358 43.348 465.112 43.3932H465.105C460.391 44.212 455.771 45.4316 451.303 47.0361H451.296V47.0426L450.166 47.4488C449.001 47.8872 447.845 48.3514 446.698 48.8415C446.438 48.9511 446.186 49.0671 445.926 49.1768C445.856 49.209 445.778 49.2412 445.708 49.2799C444.971 49.6023 444.241 49.9376 443.518 50.2922C443.413 50.3373 443.307 50.3889 443.202 50.4405L442.528 50.7693C441.047 51.5044 439.591 52.2846 438.162 53.1099C438.042 53.1743 437.93 53.2388 437.811 53.3097C437.684 53.3871 437.551 53.4645 437.424 53.5419C437.347 53.5805 437.27 53.6321 437.193 53.6773C436.975 53.7998 436.764 53.9287 436.554 54.0641C436.133 54.3156 435.712 54.5735 435.297 54.8379C434.869 55.1022 434.448 55.3795 434.027 55.6567L433.605 55.934L433.683 56.4111C433.753 56.8044 433.816 57.1977 433.893 57.5846C433.964 57.9715 434.034 58.3519 434.111 58.7323C434.23 59.3706 434.364 60.0025 434.497 60.615C434.588 61.0212 434.673 61.421 434.771 61.8143C434.862 62.2205 434.96 62.6267 435.066 63.0329C435.269 63.8711 435.487 64.6835 435.719 65.4831C435.831 65.8828 435.95 66.2826 436.077 66.6759C436.147 66.9144 436.217 67.153 436.294 67.3851C436.35 67.5463 436.407 67.7075 436.463 67.8687C436.477 67.9203 436.491 67.9783 436.512 68.0363C436.527 68.091 436.546 68.1448 436.568 68.1975C436.645 68.4361 436.722 68.6683 436.8 68.8939C436.842 69.0164 436.884 69.1389 436.933 69.255C437.031 69.5322 437.137 69.8159 437.242 70.0867C437.354 70.3962 437.474 70.7057 437.593 71.0087C437.621 71.0861 437.649 71.157 437.677 71.2344C437.698 71.2925 437.719 71.3505 437.747 71.4085C437.775 71.473 437.804 71.5439 437.832 71.6084C437.951 71.8985 438.07 72.1951 438.197 72.4853C438.239 72.5884 438.281 72.6981 438.33 72.8012C439.468 75.4279 440.866 77.9532 442.507 80.3451C440.689 78.9137 438.938 77.3963 437.256 75.793C434.658 73.3139 432.265 70.6609 430.095 67.8558C429.92 67.6366 429.744 67.4109 429.583 67.1853C429.253 66.7533 428.93 66.3213 428.614 65.8828C428.277 65.4315 427.954 64.9608 427.638 64.4966C427.428 64.1871 427.217 63.8711 427.014 63.5616C426.81 63.265 426.62 62.9749 426.438 62.6783L425.89 61.8143H425.883V61.8207L425.111 62.5171C424.802 62.7944 424.493 63.0716 424.192 63.3488C414.756 72.0682 407.922 82.8705 404.346 94.717L404.24 95.0716L404.135 95.4391C403.931 96.0968 403.728 96.7351 403.51 97.3864V97.3928C403.3 98.0376 403.075 98.6823 402.836 99.3142C402.619 99.9139 402.394 100.507 402.155 101.1C402.078 101.3 401.994 101.5 401.903 101.7C401.755 102.087 401.594 102.467 401.432 102.854C401.355 103.028 401.278 103.209 401.201 103.383C401.011 103.808 400.821 104.234 400.632 104.653C400.604 104.717 400.569 104.788 400.534 104.853C400.477 104.982 400.414 105.111 400.358 105.233C400.211 105.543 400.056 105.859 399.909 106.168C399.804 106.368 399.705 106.574 399.607 106.774C399.565 106.865 399.516 106.955 399.474 107.045C399.214 107.561 398.947 108.07 398.666 108.573C398.35 109.166 398.027 109.76 397.683 110.34C397.382 110.881 397.066 111.41 396.736 111.939C396.167 112.874 395.57 113.802 394.953 114.705C394.714 115.053 394.475 115.401 394.23 115.75C394.173 115.833 394.117 115.917 394.061 115.995C393.857 116.298 393.647 116.588 393.429 116.884C393.282 117.084 393.134 117.284 392.987 117.478C392.741 117.826 392.482 118.161 392.215 118.49C392.145 118.593 392.067 118.69 391.99 118.786C391.597 119.289 391.204 119.779 390.804 120.269C390.79 120.276 390.79 120.282 390.783 120.289C390.769 120.289 390.769 120.295 390.762 120.302C390.586 120.514 390.411 120.727 390.228 120.933C389.989 121.237 389.73 121.533 389.47 121.823C389.049 122.313 388.606 122.81 388.157 123.293C388.143 123.306 388.136 123.319 388.122 123.326C385.796 125.836 383.276 128.189 380.582 130.367C380.533 130.405 380.498 130.444 380.449 130.476C380.07 130.779 379.691 131.082 379.298 131.379C379.136 131.501 378.975 131.624 378.813 131.746C378.547 131.953 378.273 132.159 378.006 132.346C377.974 132.376 377.939 132.402 377.901 132.423C377.662 132.604 377.43 132.772 377.192 132.939C376.904 133.152 376.616 133.352 376.321 133.552C374.931 134.519 373.504 135.432 372.039 136.292C371.821 136.427 371.59 136.563 371.365 136.692C371.232 136.769 371.098 136.846 370.972 136.911C370.438 137.214 369.905 137.511 369.371 137.794C368.838 138.084 368.29 138.362 367.75 138.632C366.591 139.213 365.447 139.819 364.331 140.451C363.769 140.773 363.208 141.096 362.653 141.424C360.449 142.74 358.326 144.147 356.286 145.648C354.246 147.149 352.289 148.743 350.424 150.425C350.192 150.632 349.961 150.844 349.729 151.064C349.266 151.483 348.816 151.908 348.388 152.334C347.7 152.985 347.04 153.656 346.387 154.333C342.945 157.92 339.897 161.812 337.289 165.951C335.98 168.018 334.789 170.147 333.723 172.328C332.916 173.96 332.179 175.63 331.512 177.319C331.069 178.447 330.655 179.586 330.269 180.736C330.08 181.31 329.897 181.89 329.722 182.471C329.125 184.437 328.626 186.423 328.219 188.415C327.889 190.014 327.622 191.616 327.419 193.219C327.314 194.025 327.229 194.831 327.152 195.63C326.971 197.595 326.879 199.562 326.875 201.531C326.863 207.438 327.644 213.324 329.202 219.055C329.546 220.319 329.927 221.576 330.346 222.827C330.557 223.452 330.782 224.071 331.006 224.69C331.575 226.238 332.204 227.77 332.895 229.287C333.309 230.197 333.744 231.099 334.2 231.996C337.1 237.693 340.801 243.017 345.208 247.831C345.931 248.624 346.677 249.404 347.447 250.172C347.454 250.172 347.447 250.178 347.447 250.178C349.358 252.092 351.38 253.908 353.506 255.62H353.513C354.362 256.31 355.226 256.978 356.103 257.625C356.11 257.619 356.11 257.625 356.11 257.625C356.995 258.283 357.886 258.915 358.799 259.527C359.255 259.83 359.719 260.133 360.189 260.436C361.109 261.036 362.047 261.614 363.004 262.171H363.011C363.966 262.738 364.935 263.28 365.917 263.796C367.89 264.834 369.912 265.807 371.99 266.691L372.341 266.839L372.699 266.691C376.031 265.314 379.465 264.157 382.976 263.228C383.748 263.022 384.528 262.835 385.3 262.654C387.252 262.21 389.217 261.836 391.197 261.533C389.268 262.421 387.406 263.427 385.623 264.544C384.24 265.401 382.878 266.336 381.509 267.368C381.053 267.709 380.596 268.064 380.14 268.425L379.003 269.328L380.428 269.76C380.947 269.915 381.467 270.069 381.986 270.211C382.695 270.418 383.397 270.605 384.085 270.779C385.588 271.166 387.099 271.507 388.62 271.804C388.993 271.875 389.358 271.946 389.73 272.017C390.453 272.146 391.183 272.274 391.913 272.391C391.943 272.397 391.973 272.402 392.004 272.403C392.762 272.519 393.528 272.629 394.286 272.726C395.697 272.913 397.108 273.061 398.519 273.171C398.673 273.19 398.828 273.196 398.989 273.203C399.333 273.229 399.67 273.255 400.014 273.274C400.772 273.319 401.538 273.351 402.303 273.377C402.359 273.377 402.408 273.383 402.464 273.383C402.85 273.396 403.236 273.409 403.623 273.416C403.623 273.416 403.623 273.422 403.63 273.416C404.016 273.422 404.402 273.429 404.788 273.429H406.922C407.322 273.429 407.722 273.435 408.129 273.435C408.691 273.435 409.26 273.441 409.821 273.448C409.969 273.448 410.123 273.454 410.278 273.454C411.176 273.467 412.075 273.487 412.973 273.506C413.029 273.506 413.086 273.512 413.142 273.512C414.04 273.538 414.939 273.564 415.838 273.603C416.034 273.609 416.231 273.616 416.434 273.628C417.298 273.661 418.161 273.699 419.025 273.745C419.27 273.757 419.523 273.777 419.776 273.79C420.429 273.822 421.089 273.861 421.742 273.906C422.128 273.925 422.507 273.951 422.893 273.983C424.451 274.093 426.003 274.215 427.561 274.357C428.081 274.396 428.6 274.447 429.12 274.499C430.51 274.634 431.904 274.783 433.304 274.944C433.928 275.008 434.553 275.086 435.178 275.163C435.248 275.169 435.318 275.176 435.389 275.189C436.161 275.286 436.926 275.382 437.698 275.485C438.204 275.55 438.709 275.621 439.215 275.692C439.734 275.763 440.254 275.834 440.773 275.917C441.054 275.956 441.335 276.001 441.623 276.046C442.297 276.143 442.977 276.246 443.658 276.362C443.72 276.368 443.781 276.376 443.841 276.388C445.287 276.62 446.74 276.865 448.186 277.13C449.036 277.278 449.878 277.433 450.721 277.594C451.381 277.716 452.04 277.845 452.7 277.974C452.813 277.994 452.925 278.019 453.037 278.045C453.062 278.052 453.088 278.056 453.115 278.058C454.111 278.258 455.115 278.464 456.112 278.684C459.573 279.419 463.029 280.235 466.481 281.134C467.274 281.334 468.067 281.546 468.861 281.759C469.198 281.849 469.528 281.94 469.858 282.03C470.546 282.217 471.226 282.404 471.914 282.604C472.518 282.771 473.129 282.945 473.733 283.126C474.112 283.236 474.491 283.345 474.87 283.461C475.46 283.629 476.049 283.803 476.632 283.99C477.13 284.132 477.622 284.28 478.113 284.441C478.815 284.654 479.524 284.873 480.226 285.105C480.43 285.17 480.641 285.234 480.844 285.305C481.701 285.576 482.557 285.853 483.413 286.144C484.249 286.421 485.084 286.704 485.913 286.988C486.488 287.188 487.064 287.381 487.633 287.588C488.271 287.813 488.91 288.039 489.542 288.271C490.455 288.6 491.374 288.935 492.287 289.277C493.129 289.587 493.965 289.903 494.807 290.231C494.962 290.289 495.123 290.347 495.277 290.412C496.008 290.689 496.738 290.979 497.461 291.27C497.931 291.45 498.394 291.637 498.858 291.824C500.88 292.636 502.899 293.477 504.916 294.345H504.923C506.187 294.893 507.471 295.415 508.763 295.912C509.065 296.028 509.367 296.144 509.676 296.254C510.188 296.453 510.708 296.64 511.227 296.834C511.564 296.956 511.901 297.079 512.245 297.195C512.744 297.375 513.249 297.55 513.755 297.717C514.288 297.898 514.815 298.078 515.355 298.246C515.545 298.31 515.734 298.368 515.931 298.433C516.556 298.626 517.18 298.82 517.812 299.007C517.875 299.026 517.939 299.045 518.009 299.065C518.669 299.258 519.329 299.452 519.995 299.632C520.048 299.65 520.102 299.665 520.157 299.677C520.873 299.877 521.603 300.071 522.326 300.258C523.393 300.528 524.467 300.786 525.541 301.025C525.738 301.07 525.934 301.115 526.131 301.154C526.707 301.283 527.275 301.405 527.851 301.521C528.462 301.65 529.079 301.766 529.69 301.882C530.308 301.998 530.926 302.115 531.537 302.218C531.866 302.276 532.196 302.334 532.519 302.385L533.383 302.521C533.98 302.618 534.576 302.701 535.18 302.792C535.197 302.791 535.213 302.793 535.229 302.798C535.91 302.895 536.584 302.985 537.265 303.062C537.918 303.146 538.571 303.217 539.224 303.288C539.357 303.301 539.497 303.314 539.638 303.327C540.178 303.385 540.719 303.443 541.259 303.488C541.414 303.501 541.568 303.514 541.723 303.527C542.256 303.572 542.79 303.617 543.323 303.649C543.43 303.662 543.538 303.668 543.646 303.668C544.124 303.707 544.601 303.739 545.078 303.759C545.415 303.785 545.745 303.797 546.082 303.817C546.258 303.823 546.426 303.83 546.602 303.836C547.065 303.862 547.528 303.875 547.999 303.888C548.567 303.907 549.136 303.92 549.698 303.933C550.379 303.946 551.067 303.952 551.748 303.952H551.762C552.429 303.952 553.102 303.946 553.769 303.933H554.022L554.759 303.913C555.138 303.907 555.517 303.894 555.889 303.881C556.606 303.855 557.315 303.823 558.024 303.785C558.304 303.772 558.592 303.752 558.873 303.739C558.999 303.733 559.133 303.72 559.259 303.714C559.701 303.688 560.137 303.662 560.579 303.63C561.035 303.598 561.499 303.559 561.955 303.514C562.545 303.462 563.134 303.404 563.724 303.346C564.187 303.301 564.651 303.249 565.107 303.198C565.168 303.193 565.229 303.184 565.29 303.172C565.732 303.127 566.174 303.075 566.609 303.017C567.129 302.953 567.641 302.882 568.154 302.811C568.21 302.804 568.259 302.798 568.315 302.792C569.2 302.663 570.091 302.534 570.983 302.385C571.917 302.231 572.85 302.063 573.777 301.889C574.121 301.824 574.458 301.754 574.802 301.689C574.991 301.65 575.188 301.618 575.37 301.579C575.658 301.521 575.939 301.463 576.22 301.399C576.269 301.392 576.325 301.38 576.374 301.373C576.767 301.296 577.154 301.205 577.547 301.115C578.333 300.941 579.105 300.761 579.877 300.567C580.221 300.49 580.565 300.406 580.895 300.322C580.994 300.296 581.092 300.271 581.183 300.245C582.608 299.877 584.022 299.488 585.423 299.078C586.041 298.897 586.652 298.71 587.263 298.51C588.575 298.098 589.876 297.663 591.166 297.208C591.51 297.092 591.854 296.963 592.198 296.84C592.703 296.653 593.209 296.466 593.707 296.279C594.156 296.105 594.606 295.931 595.062 295.751C595.287 295.667 595.511 295.577 595.736 295.486C596.41 295.216 597.084 294.938 597.751 294.661C598.2 294.468 598.642 294.281 599.084 294.087C599.786 293.778 600.481 293.462 601.176 293.146C601.352 293.062 601.52 292.978 601.689 292.901C602.131 292.694 602.574 292.482 603.023 292.275C603.732 291.927 604.441 291.579 605.143 291.218C605.382 291.102 605.613 290.979 605.852 290.857C606.624 290.457 607.389 290.051 608.147 289.638C609.825 288.716 611.48 287.753 613.111 286.75C613.518 286.505 613.925 286.247 614.325 285.995C615.083 285.518 615.827 285.028 616.572 284.538C616.649 284.487 616.719 284.435 616.796 284.39C617.168 284.138 617.54 283.887 617.912 283.629C618.685 283.094 619.45 282.552 620.215 281.998C620.229 281.991 620.25 281.972 620.271 281.959C620.615 281.708 620.959 281.456 621.296 281.205C622.342 280.424 623.374 279.631 624.385 278.813C624.883 278.419 625.375 278.013 625.859 277.607C626.224 277.304 626.589 277.001 626.947 276.691C627.67 276.066 628.379 275.447 629.081 274.815C629.432 274.505 629.776 274.183 630.127 273.861C630.472 273.538 630.823 273.216 631.167 272.887C631.286 272.777 631.405 272.661 631.525 272.545C631.876 272.204 632.227 271.855 632.578 271.514C632.879 271.217 633.174 270.908 633.476 270.598C633.982 270.082 634.494 269.566 634.992 269.044C635.019 269.015 635.047 268.987 635.077 268.96C635.105 268.928 635.133 268.902 635.154 268.877H635.147C645.351 258.039 652.933 245.335 657.39 231.604C661.848 217.874 663.08 203.43 661.005 189.229C658.93 175.029 653.594 161.395 645.352 149.23C637.11 137.065 626.149 126.647 613.195 118.664Z" fill="#1E3A8A"/>
<g opacity="0.15">
<path d="M471.103 42.5757C472.503 47.1925 474.608 51.6037 477.356 55.6774C472.755 52.0471 468.644 47.9236 465.111 43.395C467.096 43.0502 469.093 42.7771 471.103 42.5757Z" fill="black"/>
<path d="M402.602 113.976C397.407 116.58 392.549 119.717 388.121 123.325C395.597 115.206 401.06 105.691 404.133 95.4392C404.17 95.3161 404.208 95.1921 404.244 95.0687L404.349 94.7198C408.041 82.4843 415.206 71.3691 425.11 62.5111L425.889 61.8143L426.438 62.6755C429.474 67.417 433.107 71.8138 437.262 75.775C430.895 92.2773 418.505 106.012 402.602 113.976Z" fill="black"/>
<path d="M439.197 70.0571L439.093 70.4061C439.056 70.5294 439.019 70.6534 438.982 70.7766C438.777 71.4551 438.559 72.1285 438.334 72.7989C436.113 67.5159 434.553 62.018 433.685 56.4113L433.604 55.9355L434.029 55.656C439.371 52.1304 445.173 49.2336 451.3 47.0332C445.799 53.9815 441.7 61.7796 439.197 70.0571Z" fill="black"/>
<path d="M367.753 138.639C372.351 136.327 376.655 133.552 380.585 130.366C372.735 138.76 367.108 148.709 364.145 159.435C361.183 170.16 360.964 181.37 363.507 192.186C366.05 203.002 371.285 213.13 378.802 221.777C386.32 230.424 395.915 237.354 406.837 242.025L407.192 242.176L407.546 242.029C413.445 239.581 419.665 237.847 426.049 236.868C422.064 238.733 418.349 241.049 414.992 243.763L413.856 244.665L415.281 245.097C416.511 245.471 417.741 245.814 418.937 246.119C425.963 247.917 433.226 248.809 440.519 248.771C473.655 248.576 507.049 255.613 539.771 269.684C545.383 272.093 551.203 274.069 557.172 275.591C583.186 282.243 610.956 279.85 635.168 268.871C621.518 283.37 603.669 294.016 583.694 299.571C563.719 305.126 542.439 305.363 522.324 300.254C516.354 298.732 510.534 296.756 504.922 294.347C472.2 280.275 438.806 273.239 405.67 273.434C398.377 273.472 391.114 272.579 384.088 270.782C382.892 270.477 381.662 270.133 380.432 269.76L379.007 269.328L380.143 268.426C383.501 265.712 387.215 263.395 391.201 261.531C384.816 262.509 378.596 264.244 372.697 266.692L372.343 266.839L371.988 266.688C358.873 261.081 347.711 252.237 339.75 241.144C331.789 230.05 327.34 217.143 326.901 203.862C326.462 190.581 330.049 177.45 337.263 165.933C344.477 154.416 355.033 144.966 367.753 138.639Z" fill="black"/>
</g>
</g>
<defs>
<clipPath id="clip0_440_6005">
<rect width="662" height="513" fill="white"/>
</clipPath>
</defs>
</svg>
