<svg width="52" height="59" viewBox="0 0 52 59" fill="none" xmlns="http://www.w3.org/2000/svg">
<path d="M0 5.08618H52V59H0V5.08618Z" fill="white"/>
<path d="M16.05 16.9L34.45 37.6V16.5H34.95V43.5H34.45V38.35L15.55 17.15C15.5167 17.1167 15.4667 17.0833 15.4 17.05C15.3667 17.0167 15.3333 17 15.3 17C15.2667 17 15.2333 17.0167 15.2 17.05C15.2 17.0833 15.2 17.1167 15.2 17.15V43.5H14.7V17.05C14.7 16.85 14.7667 16.7 14.9 16.6C15.0333 16.5 15.1667 16.45 15.3 16.45C15.4333 16.45 15.55 16.4833 15.65 16.55C15.75 16.6167 15.8833 16.7333 16.05 16.9ZM18.75 48C19.3833 48 19.8333 47.8667 20.1 47.6C20.4 47.3 20.55 46.8333 20.55 46.2V29.7L29.1 40.05V46.2C29.1 46.8333 29.2333 47.3 29.5 47.6C29.8 47.8667 30.2667 48 30.9 48H38.4C39.0333 48 39.4833 47.8667 39.75 47.6C40.05 47.3 40.2 46.8333 40.2 46.2V13.8C40.2 13.1667 40.05 12.7167 39.75 12.45C39.4833 12.15 39.0333 12 38.4 12H30.9C30.2667 12 29.8 12.15 29.5 12.45C29.2333 12.7167 29.1 13.1667 29.1 13.8V24.45L19.4 13.35C18.9667 12.85 18.5167 12.5 18.05 12.3C17.6167 12.1 17.0833 12 16.45 12H11.25C10.6167 12 10.15 12.15 9.85 12.45C9.58333 12.7167 9.45 13.1667 9.45 13.8V46.2C9.45 46.8333 9.58333 47.3 9.85 47.6C10.15 47.8667 10.6167 48 11.25 48H18.75ZM18.75 48.5H11.25C10.45 48.5 9.86667 48.3167 9.5 47.95C9.13333 47.5833 8.95 47 8.95 46.2V13.8C8.95 13 9.13333 12.4167 9.5 12.05C9.86667 11.6833 10.45 11.5 11.25 11.5H16.45C17.1833 11.5 17.8 11.6167 18.3 11.85C18.8 12.0833 19.3 12.4667 19.8 13L28.6 23.05V13.8C28.6 13 28.7833 12.4167 29.15 12.05C29.5167 11.6833 30.1 11.5 30.9 11.5H38.4C39.2 11.5 39.7833 11.6833 40.15 12.05C40.5167 12.4167 40.7 13 40.7 13.8V46.2C40.7 47 40.5167 47.5833 40.15 47.95C39.7833 48.3167 39.2 48.5 38.4 48.5H30.9C30.1 48.5 29.5167 48.3167 29.15 47.95C28.7833 47.5833 28.6 47 28.6 46.2V40.25L21.05 31.1V46.2C21.05 47 20.8667 47.5833 20.5 47.95C20.1333 48.3167 19.55 48.5 18.75 48.5Z" fill="black"/>
<path d="M32 44.6038C32 39.6332 36.0294 35.6038 41 35.6038C45.9706 35.6038 50 39.6332 50 44.6038V49.4917C50 54.4623 45.9706 58.4917 41 58.4917C36.0294 58.4917 32 54.4623 32 49.4917V44.6038Z" fill="white"/>
<path d="M42.425 44.6673C43.4583 44.6673 44.3833 44.8757 45.2 45.2923C46.0333 45.709 46.6833 46.309 47.15 47.0923C47.6333 47.859 47.875 48.759 47.875 49.7923C47.875 50.8923 47.5833 51.8923 47 52.7923C46.4333 53.6923 45.625 54.409 44.575 54.9423C43.5417 55.459 42.3667 55.7173 41.05 55.7173C39.65 55.7173 38.4333 55.4007 37.4 54.7673C36.3667 54.1173 35.5583 53.1507 34.975 51.8673C34.4083 50.584 34.125 49.009 34.125 47.1423C34.125 45.0923 34.4667 43.3673 35.15 41.9673C35.8333 40.5673 36.75 39.534 37.9 38.8673C39.0667 38.184 40.375 37.8423 41.825 37.8423C43.3583 37.8423 44.625 38.1507 45.625 38.7673C46.6417 39.3673 47.15 40.234 47.15 41.3673C47.15 42.0173 46.9583 42.559 46.575 42.9923C46.2083 43.409 45.7 43.6173 45.05 43.6173C44.45 43.6173 43.95 43.4423 43.55 43.0923C43.15 42.7423 42.95 42.3007 42.95 41.7673C42.95 41.5007 43.0333 41.234 43.2 40.9673C43.3833 40.7007 43.6167 40.4923 43.9 40.3423C43.7 40.0923 43.4083 39.909 43.025 39.7923C42.6583 39.659 42.2583 39.5923 41.825 39.5923C40.825 39.5923 40.0167 40.0757 39.4 41.0423C38.7833 41.9923 38.475 43.5423 38.475 45.6923C38.475 45.8257 38.4833 45.9173 38.5 45.9673C38.9333 45.5673 39.5 45.2507 40.2 45.0173C40.9167 44.784 41.6583 44.6673 42.425 44.6673ZM41.125 53.8423C41.8583 53.8423 42.4667 53.5757 42.95 53.0423C43.45 52.4923 43.7 51.609 43.7 50.3923C43.7 49.1423 43.4417 48.2173 42.925 47.6173C42.425 47.0173 41.775 46.7173 40.975 46.7173C40.3917 46.7173 39.8833 46.8257 39.45 47.0423C39.0167 47.259 38.6917 47.584 38.475 48.0173C38.4583 48.2507 38.45 48.5923 38.45 49.0423C38.45 50.7423 38.7 51.9673 39.2 52.7173C39.7 53.4673 40.3417 53.8423 41.125 53.8423Z" fill="#1E3A8A"/>
<path d="M0 5.14331L52 5.14331" stroke="black"/>
<line y1="58.5" x2="52" y2="58.5" stroke="black"/>
<line x1="0.5" y1="59" x2="0.5" y2="5.08621" stroke="black"/>
<line x1="51.5" y1="59" x2="51.5" y2="5.08621" stroke="black"/>
</svg>
